<svg id="noun_register_3194805" xmlns="http://www.w3.org/2000/svg" width="18.536" height="23.212" viewBox="0 0 18.536 23.212">
  <g id="Group_25014" data-name="Group 25014">
    <path id="Path_13124" data-name="Path 13124" d="M55.269,53H50.235a.631.631,0,0,0-.635.635.647.647,0,0,0,.635.635h5.033a.635.635,0,0,0,0-1.271Z" transform="translate(-40.413 -40.661)" fill="#005288"/>
    <path id="Path_13125" data-name="Path 13125" d="M55.269,66.1H50.235a.631.631,0,0,0-.635.635.647.647,0,0,0,.635.635h5.033a.635.635,0,0,0,0-1.271Z" transform="translate(-40.413 -50.56)" fill="#005288"/>
    <path id="Path_13126" data-name="Path 13126" d="M55.269,79.2H50.235a.631.631,0,0,0-.635.635.647.647,0,0,0,.635.635h5.033a.635.635,0,0,0,0-1.271Z" transform="translate(-40.413 -60.459)" fill="#005288"/>
    <path id="Path_13127" data-name="Path 13127" d="M39.122,53h-.586a.631.631,0,0,0-.635.635.647.647,0,0,0,.635.635h.586a.635.635,0,0,0,0-1.271Z" transform="translate(-31.572 -40.661)" fill="#005288"/>
    <path id="Path_13128" data-name="Path 13128" d="M39.122,66.1h-.586a.631.631,0,0,0-.635.635.647.647,0,0,0,.635.635h.586a.635.635,0,1,0,0-1.271Z" transform="translate(-31.572 -50.56)" fill="#005288"/>
    <path id="Path_13129" data-name="Path 13129" d="M39.122,79.2h-.586a.631.631,0,0,0-.635.635.647.647,0,0,0,.635.635h.586a.635.635,0,1,0,0-1.271Z" transform="translate(-31.572 -60.459)" fill="#005288"/>
    <path id="Path_13130" data-name="Path 13130" d="M30.374,11.3,26,6.923a.668.668,0,0,0-.464-.2H22.58a5.349,5.349,0,1,0-7.33,6.035V25.077a.631.631,0,0,0,.635.635h14a.631.631,0,0,0,.635-.635V11.76A.478.478,0,0,0,30.374,11.3ZM25.658,8.389l3.25,3.25h-3.25ZM13.295,7.851a4.056,4.056,0,1,1,4.056,4.056A4.046,4.046,0,0,1,13.295,7.851Zm3.274,16.566V13.129a4.3,4.3,0,0,0,.806.073A5.338,5.338,0,0,0,22.7,8.046h1.686v4.276a.631.631,0,0,0,.635.635H29.3V24.442H16.569Z" transform="translate(-12 -2.5)" fill="#005288"/>
    <path id="Path_13131" data-name="Path 13131" d="M28.7,17.133a.649.649,0,0,0-.9,0l-1.881,1.881-.782-.782a.639.639,0,0,0-.9.9l1.222,1.222a.649.649,0,0,0,.928,0l2.346-2.346A.643.643,0,0,0,28.7,17.133Z" transform="translate(-21.106 -13.419)" fill="#005288"/>
  </g>
</svg>
