<svg xmlns="http://www.w3.org/2000/svg" width="18.447" height="10.684" viewBox="0 0 18.447 10.684">
  <g id="ic_arrow" transform="translate(-1.043 10.934) rotate(-90)">
    <path id="Path_62" data-name="Path 62" d="M.706,11.161l7.953,7.922a1.367,1.367,0,0,0,1.378.343,1.224,1.224,0,0,0,.764-.637,1.365,1.365,0,0,0-.276-1.559L4.537,11.243a1.382,1.382,0,0,1,0-1.954L10.524,3.3A1.365,1.365,0,0,0,10.8,1.743a1.224,1.224,0,0,0-.762-.636,1.366,1.366,0,0,0-1.379.345L.673,9.437a1.046,1.046,0,0,0-.031,1.658C.663,11.117.684,11.14.706,11.161Z" transform="translate(0 0)" fill="#005288"/>
  </g>
</svg>
