<svg xmlns="http://www.w3.org/2000/svg" width="26.3" height="26.3" viewBox="0 0 26.3 26.3">
  <g id="icon-setting" transform="translate(0.15 0.15)">
    <g id="Group_25955" data-name="Group 25955">
      <path id="Path_30781" data-name="Path 30781" d="M19.747,32.059a13.94,13.94,0,0,0,.535,1.338l-2.371,2.371V36.3L21.7,40.088h.535L24.6,37.718a8.143,8.143,0,0,0,1.338.535v3.365l.382.382h5.353l.382-.382V38.253a13.94,13.94,0,0,0,1.338-.535l2.371,2.371H36.3L40.088,36.3v-.535L37.718,33.4a8.143,8.143,0,0,0,.535-1.338h3.365L42,31.676V26.324l-.382-.382H38.253a13.941,13.941,0,0,0-.535-1.338l2.371-2.371V21.7L36.3,17.912h-.535L33.4,20.282a8.143,8.143,0,0,0-1.338-.535V16.382L31.676,16H26.324l-.382.382v3.365a13.941,13.941,0,0,0-1.338.535l-2.371-2.371H21.7L17.912,21.7v.535L20.282,24.6a8.143,8.143,0,0,0-.535,1.338H16.382L16,26.324v5.353l.382.382Zm-2.982-5.353h3.25l.382-.268a11.531,11.531,0,0,1,.688-1.721l-.076-.459-2.294-2.294,3.25-3.25,2.294,2.294.459.076a6.749,6.749,0,0,1,1.721-.688l.268-.382v-3.25h4.588v3.25l.268.382a11.531,11.531,0,0,1,1.721.688l.459-.076,2.294-2.294,3.25,3.25-2.294,2.294-.076.459a6.749,6.749,0,0,1,.688,1.721l.382.268h3.25v4.588h-3.25l-.382.268a11.531,11.531,0,0,1-.688,1.721l.076.459,2.294,2.294-3.25,3.25-2.294-2.294-.459-.076a6.749,6.749,0,0,1-1.721.688l-.268.382v3.25H26.706v-3.25l-.268-.382a11.531,11.531,0,0,1-1.721-.688l-.459.076-2.294,2.294-3.25-3.25,2.294-2.294.076-.459a6.749,6.749,0,0,1-.688-1.721l-.382-.268h-3.25Z" transform="translate(-16 -16)" fill="#005288" stroke="#005289" stroke-width="0.3"/>
      <path id="Path_30782" data-name="Path 30782" d="M41.662,46.824A5.162,5.162,0,1,0,36.5,41.662,5.189,5.189,0,0,0,41.662,46.824Zm0-9.559a4.4,4.4,0,1,1-4.4,4.4A4.422,4.422,0,0,1,41.662,37.265Z" transform="translate(-28.662 -28.662)" fill="#005288" stroke="#005289" stroke-width="0.3"/>
    </g>
  </g>
</svg>
