<svg xmlns="http://www.w3.org/2000/svg" width="26" height="26" viewBox="0 0 26 26">
  <g id="icon-view" transform="translate(0 0.237)">
    <rect id="Boundary" width="26" height="26" transform="translate(0 -0.237)" fill="none"/>
    <path id="_Color" data-name=" ↳Color" d="M11.8,16.1A12.589,12.589,0,0,1,4.586,13.84,12.7,12.7,0,0,1,0,8.048a12.683,12.683,0,0,1,23.609,0,12.7,12.7,0,0,1-4.586,5.791A12.589,12.589,0,0,1,11.8,16.1Zm0-13.415a5.366,5.366,0,1,0,5.366,5.365A5.371,5.371,0,0,0,11.8,2.683Zm0,8.585a3.22,3.22,0,1,1,3.22-3.22A3.223,3.223,0,0,1,11.8,11.269Z" transform="translate(0.438 5.463)" fill="#ddd"/>
  </g>
</svg>
