<svg id="icon-status" xmlns="http://www.w3.org/2000/svg" xmlns:xlink="http://www.w3.org/1999/xlink" width="24.188" height="26.701" viewBox="0 0 24.188 26.701">
  <defs>
    <clipPath id="clip-path">
      <rect id="Rectangle_695" data-name="Rectangle 695" width="24.188" height="26.701" fill="#005288"/>
    </clipPath>
  </defs>
  <g id="Group_1677" data-name="Group 1677">
    <g id="Group_1632" data-name="Group 1632" clip-path="url(#clip-path)">
      <path id="Path_1081" data-name="Path 1081" d="M3.154,4.273a.668.668,0,0,0-.94-.007.66.66,0,0,0-.007.94L3.8,6.809a.675.675,0,0,0,.477.2.654.654,0,0,0,.47-.2L9.592,1.991a.668.668,0,1,0-.934-.94L7.18,2.5A4.181,4.181,0,1,0,8.189,6.631a.668.668,0,1,0-1.282-.378A2.856,2.856,0,1,1,6.24,3.459L4.278,5.4Zm0,0" transform="translate(0.001 -0.798)" fill="#005288"/>
    </g>
  </g>
  <path id="Path_1195" data-name="Path 1195" d="M4.183,137.3a4.18,4.18,0,1,0,4.184,4.177A4.18,4.18,0,0,0,4.183,137.3Zm0,7.024a2.848,2.848,0,1,1,2.848-2.848,2.848,2.848,0,0,1-2.848,2.848Zm0,0" transform="translate(0.001 -127.948)" fill="#005288"/>
  <path id="Path_1196" data-name="Path 1196" d="M8.36,272.383a4.18,4.18,0,1,0-4.177,4.184,4.18,4.18,0,0,0,4.177-4.184Zm-4.177,2.848a2.848,2.848,0,1,1,2.848-2.848,2.848,2.848,0,0,1-2.848,2.848Zm0,0" transform="translate(0 -249.927)" fill="#005288"/>
  <path id="Path_1197" data-name="Path 1197" d="M157.854,188.8H144.868a.668.668,0,0,0,0,1.335h12.987a.668.668,0,0,0,.668-.668.66.66,0,0,0-.668-.668Zm0,0" transform="translate(-134.377 -175.936)" fill="#005288"/>
  <path id="Path_1198" data-name="Path 1198" d="M157.854,58H144.868a.668.668,0,0,0,0,1.335h12.987a.668.668,0,0,0,.668-.668.66.66,0,0,0-.668-.668Zm0,0" transform="translate(-134.377 -54.049)" fill="#005288"/>
  <path id="Path_1199" data-name="Path 1199" d="M157.854,319.8H144.868a.668.668,0,0,0,0,1.335h12.987a.668.668,0,0,0,.668-.668.66.66,0,0,0-.668-.668Zm0,0" transform="translate(-134.377 -298.011)" fill="#005288"/>
</svg>
