<svg xmlns="http://www.w3.org/2000/svg" width="27.24" height="26.635" viewBox="0 0 27.24 26.635">
  <g id="icon-historico" transform="translate(0.1 0.1)">
    <rect id="Rectangle_874" data-name="Rectangle 874" width="13.782" height="0.78" transform="translate(4.843 8.313)" fill="#fff" stroke="#fff" stroke-width="0.2"/>
    <rect id="Rectangle_875" data-name="Rectangle 875" width="13.782" height="0.78" transform="translate(4.843 22.532)" fill="#fff" stroke="#fff" stroke-width="0.2"/>
    <path id="Path_605" data-name="Path 605" d="M794.41,358.28l-.289-.289a2.153,2.153,0,0,0-3.041,0l-.282.282-.552.551-1.43,1.43v-2.969A2.648,2.648,0,0,0,788.58,352H770.648A2.651,2.651,0,0,0,768,354.648v21.086h2.258v2.7h18.559V366.913l4.759-4.759.417-.417.417-.417a2.15,2.15,0,0,0,0-3.041Zm-21.887-5.5H788.58a1.868,1.868,0,1,1,0,3.737H772.523a2.643,2.643,0,0,0,0-3.737Zm-2.265,3.737v18.437H768.78V354.648a1.868,1.868,0,1,1,1.868,1.868Zm17.779,21.138h-17V357.3h17v3.738l-1.691,1.691h-13.5v.78h12.724l-1.633,1.633H772.842v.78h10.311l-1.633,1.633h-8.678v.78h7.9l-.136.136-.444,1.5h-7.318v.78h7.087l-.484,1.633h-6.6v.78h13.781v-.78h-4.646l1.956-.58,1.053-1.053h1.638v-.78h-.857l2.271-2.27Zm-6.9-8.242,1.851,1.851-2.631.78Zm2.59,1.487-2.226-2.226,9.3-9.3,2.226,2.226Zm10.13-10.13-.282.282-2.226-2.226.282-.282a1.371,1.371,0,0,1,1.937,0l.289.289a1.37,1.37,0,0,1,0,1.938Zm0,0" transform="translate(-768 -352)" fill="#fff" stroke="#fff" stroke-width="0.2"/>
  </g>
</svg>
