<svg id="icon-menu" xmlns="http://www.w3.org/2000/svg" width="23.524" height="18.947" viewBox="0 0 23.524 18.947">
  <path id="Path_1097" data-name="Path 1097" d="M160.359,120.933a1.236,1.236,0,0,0-1.233-1.233H138.033a1.233,1.233,0,0,0,0,2.465h21.078a1.23,1.23,0,0,0,1.248-1.232Z" transform="translate(-136.835 -111.682)" fill="#005288"/>
  <path id="Path_1098" data-name="Path 1098" d="M138.033,87.965h15.809a1.233,1.233,0,1,0,0-2.465H138.033a1.233,1.233,0,0,0,0,2.465Z" transform="translate(-136.835 -85.499)" fill="#005288"/>
  <path id="Path_1099" data-name="Path 1099" d="M138.033,87.965h15.809a1.233,1.233,0,1,0,0-2.465H138.033a1.233,1.233,0,0,0,0,2.465Z" transform="translate(-136.835 -69.018)" fill="#005288"/>
</svg>
