<svg xmlns="http://www.w3.org/2000/svg" width="26.03" height="20.872" viewBox="0 0 26.03 20.872">
  <g id="noun_Folder_3532819" transform="translate(-5.27 -14.25)">
    <path id="Path_30891" data-name="Path 30891" d="M30.761,21.105a1.426,1.426,0,0,0-1.153-.58H27.326V18.8A1.723,1.723,0,0,0,25.6,17.082H15.247l-2.126-2.39a.564.564,0,0,0-.428-.192H7.242A1.723,1.723,0,0,0,5.52,16.222V33.15a1.723,1.723,0,0,0,1.722,1.722H26.115a1.425,1.425,0,0,0,1.371-1.016l3.492-11.477A1.424,1.424,0,0,0,30.761,21.105ZM6.668,16.222a.576.576,0,0,1,.574-.574h5.193l2.126,2.39a.564.564,0,0,0,.428.192H25.6a.576.576,0,0,1,.574.574v1.722H10.748a1.425,1.425,0,0,0-1.372,1.016l-2.709,8.9Zm23.215,5.822L26.388,33.52a.286.286,0,0,1-.273.2H7.256a.288.288,0,0,1-.275-.37l3.495-11.477a.282.282,0,0,1,.273-.2h18.86a.288.288,0,0,1,.275.37Z" transform="translate(0 0)" fill="#005288" stroke="#005289" stroke-width="0.5"/>
  </g>
</svg>
