<svg id="Group_26996" data-name="Group 26996" xmlns="http://www.w3.org/2000/svg" xmlns:xlink="http://www.w3.org/1999/xlink" width="25.198" height="28.429" viewBox="0 0 25.198 28.429">
  <defs>
    <clipPath id="clip-path">
      <rect id="Rectangle_22893" data-name="Rectangle 22893" width="25.198" height="28.429" fill="#005288"/>
    </clipPath>
  </defs>
  <g id="Group_26996-2" data-name="Group 26996" clip-path="url(#clip-path)">
    <path id="Path_32517" data-name="Path 32517" d="M22.042,28.429H3.164a1.276,1.276,0,0,1-.885-1.4c.023-1.682.008-3.365.008-5.048v-.346c-.282,0-.54.014-.8,0A1.508,1.508,0,0,1,.2,20.8a4.277,4.277,0,0,1-.2-.52V11.518a.267.267,0,0,0,.04-.065A1.6,1.6,0,0,1,1.714,10.17h.572V9.824q0-4.33,0-8.66A1.107,1.107,0,0,1,3.439,0q6.675,0,13.35,0a.694.694,0,0,1,.563.255Q20.015,3.3,22.686,6.334a.9.9,0,0,1,.235.636c-.006.968,0,1.936,0,2.9v.3c.253,0,.476,0,.7,0a1.457,1.457,0,0,1,.357.045A1.611,1.611,0,0,1,25.2,11.9q0,4.006,0,8.012a1.612,1.612,0,0,1-1.726,1.738c-.178,0-.357,0-.552,0v.321c0,1.677-.017,3.354.008,5.03a1.308,1.308,0,0,1-.886,1.431M21.779,7.382H20.745q-1.854,0-3.708,0c-.552,0-.723-.175-.727-.734,0-.078,0-.156,0-.233V1.147H3.434v9.006H21.779Zm0,14.283H3.431v5.327H21.78Zm-6.926-5.948c0-.065-.008-.194-.016-.323A3.44,3.44,0,0,0,11.8,11.95a3.655,3.655,0,0,0-3,.893A4.455,4.455,0,0,0,8.2,18.107a3.277,3.277,0,0,0,2.983,1.6,3.445,3.445,0,0,0,2.847-1.285,4.225,4.225,0,0,0,.829-2.7m7.188-3.375a.726.726,0,0,0-.082-.049c-.056-.023-.112-.045-.17-.062a5.923,5.923,0,0,0-3.516-.012A3.571,3.571,0,0,0,16,14.163a4.179,4.179,0,0,0-.284,2.558,3.242,3.242,0,0,0,2.489,2.743,7.017,7.017,0,0,0,3.853-.148c.181-.053.244-.119.242-.312-.01-1.158,0-2.316-.006-3.474,0-.082-.01-.164-.015-.247H19.509v1.322h1.139c0,.507.005.989-.007,1.47,0,.054-.1.139-.161.15a6.062,6.062,0,0,1-.617.064,2.239,2.239,0,0,1-2.17-1.222,3.054,3.054,0,0,1-.261-1.489,2.1,2.1,0,0,1,1.685-2.085,6.134,6.134,0,0,1,1.564-.07,5.732,5.732,0,0,1,1.016.229l.345-1.311m-14.684,5.8H4.353V12.053H2.665v7.5H7.358Z" transform="translate(0 0)" fill="#005288"/>
    <path id="Path_32518" data-name="Path 32518" d="M100.594,139.38a3.286,3.286,0,0,1-.491,1.8,1.607,1.607,0,0,1-2.688.022,3.592,3.592,0,0,1,.055-3.725,1.589,1.589,0,0,1,2.605.042,3.3,3.3,0,0,1,.519,1.863" transform="translate(-87.524 -123.552)" fill="#005288"/>
  </g>
</svg>
