<svg xmlns="http://www.w3.org/2000/svg" width="125.257" height="20.479" viewBox="0 0 125.257 20.479">
  <g id="jabil-logo-fy21" transform="translate(0 -0.48)">
    <g id="XMLID_25_" transform="translate(0 0.48)">
      <path id="XMLID_36_" d="M5.073,20.955q-2.981,0-4.029-1.015C.351,19.264,0,17.991,0,16.116V11.87l4.806-.91v6.146h9.353V.48h4.776V16.116c0,1.871-.355,3.144-1.056,3.825s-2.046,1.015-4.029,1.015Z" transform="translate(0 -0.48)" fill="#fff"/>
      <path id="XMLID_29_" d="M139.9,20.955V.48h17.532a5.284,5.284,0,0,1,3.516.952,3.821,3.821,0,0,1,1.09,3.027V6.947a3.123,3.123,0,0,1-.906,2.346,4.438,4.438,0,0,1-2.61,1.094,4.378,4.378,0,0,1,2.726,1.261,3.769,3.769,0,0,1,.96,2.676v2.622a3.374,3.374,0,0,1-1.5,3.023,8.356,8.356,0,0,1-4.551.99H139.9ZM155.436,3.82H144.589V8.68h10.847a3.168,3.168,0,0,0,1.712-.33,1.277,1.277,0,0,0,.472-1.136V5.29a1.3,1.3,0,0,0-.472-1.127,3.072,3.072,0,0,0-1.712-.342m0,8.234H144.589v5.223h10.847a2.951,2.951,0,0,0,1.845-.409,1.817,1.817,0,0,0,.48-1.436V13.878a1.777,1.777,0,0,0-.48-1.428,3.015,3.015,0,0,0-1.845-.4" transform="translate(-81.489 -0.48)" fill="#fff"/>
      <rect id="XMLID_28_" width="4.776" height="20.475" transform="translate(89.897)" fill="#fff"/>
      <path id="XMLID_27_" d="M251.76,20.955V.48h4.776V17.106H271.9v3.85Z" transform="translate(-146.645 -0.48)" fill="#fff"/>
    </g>
    <g id="Group_26414" data-name="Group 26414" transform="translate(23.928 0.48)">
      <path id="Path_30875" data-name="Path 30875" d="M102.86,32.192l3.532,6.563h5.344l-4.422-7.716Z" transform="translate(-83.842 -18.281)" fill="#fff"/>
      <path id="Path_30876" data-name="Path 30876" d="M71.017,4.451,73.886,9.87l4.969,0L73.472.48H68.888L57.31,20.955h4.743Z" transform="translate(-57.31 -0.48)" fill="#fff"/>
    </g>
    <path id="XMLID_26_" d="M77.163,22.96,72.95,30.726l29.9-7.753Z" transform="translate(-42.492 -13.094)" fill="#54c0e8"/>
  </g>
</svg>
