<svg id="noun_Exit_1558251" xmlns="http://www.w3.org/2000/svg" width="16.694" height="18.167" viewBox="0 0 16.694 18.167">
  <g id="Group_25308" data-name="Group 25308">
    <path id="Path_13491" data-name="Path 13491" d="M56,966.1a.767.767,0,0,1,.745-.736h5.394a.764.764,0,0,1,.735.737v16.694a.764.764,0,0,1-.735.736H56.745a.737.737,0,1,1,0-1.473H61.4V966.835H56.745A.754.754,0,0,1,56,966.1Z" transform="translate(-46.18 -965.362)" fill="#005288"/>
    <path id="Path_13492" data-name="Path 13492" d="M16,987.271a.826.826,0,0,1,.2-.506l3.928-4.174a.844.844,0,0,1,1.074-.061.767.767,0,0,1-.008,1.074l-2.762,2.931H28.52a.737.737,0,0,1,0,1.473H18.432l2.762,2.931a.811.811,0,0,1,.008,1.074.833.833,0,0,1-1.074-.061L16.2,987.777A.708.708,0,0,1,16,987.271Z" transform="translate(-16 -978.189)" fill="#005288"/>
  </g>
</svg>
