<svg xmlns="http://www.w3.org/2000/svg" width="164.171" height="26.842" viewBox="0 0 164.171 26.842">
  <g id="jabil-logo-fy21" transform="translate(0 -0.48)">
    <g id="XMLID_25_" transform="translate(0 0.48)">
      <path id="XMLID_36_" d="M6.649,27.317q-3.907,0-5.281-1.33C.46,25.1,0,23.431,0,20.974V15.409l6.3-1.193v8.055H18.557V.48h6.26V20.974c0,2.452-.465,4.121-1.385,5.013s-2.681,1.33-5.281,1.33Z" transform="translate(0 -0.48)" fill="#005288"/>
      <path id="XMLID_29_" d="M139.9,27.317V.48h22.979c2.123,0,3.656.416,4.608,1.248A5.008,5.008,0,0,1,168.915,5.7V8.957a4.093,4.093,0,0,1-1.187,3.075,5.817,5.817,0,0,1-3.42,1.434,5.738,5.738,0,0,1,3.573,1.653,4.94,4.94,0,0,1,1.259,3.508v3.437a4.422,4.422,0,0,1-1.965,3.962q-1.962,1.3-5.965,1.3H139.9ZM160.263,4.858H146.045v6.37h14.217a4.152,4.152,0,0,0,2.244-.432,1.673,1.673,0,0,0,.618-1.488V6.784a1.7,1.7,0,0,0-.618-1.478,4.026,4.026,0,0,0-2.244-.449m0,10.792H146.045V22.5h14.217a3.868,3.868,0,0,0,2.419-.536,2.382,2.382,0,0,0,.629-1.882V18.041a2.329,2.329,0,0,0-.629-1.872,3.952,3.952,0,0,0-2.419-.52" transform="translate(-63.341 -0.48)" fill="#005288"/>
      <rect id="XMLID_28_" width="6.26" height="26.837" transform="translate(117.826)" fill="#005288"/>
      <path id="XMLID_27_" d="M251.76,27.317V.48h6.26V22.271h20.138v5.046Z" transform="translate(-113.987 -0.48)" fill="#005288"/>
    </g>
    <g id="Group_26414" data-name="Group 26414" transform="translate(31.362 0.48)">
      <path id="Path_30875" data-name="Path 30875" d="M102.86,32.55l4.63,8.6h7L108.7,31.04Z" transform="translate(-77.933 -14.316)" fill="#005288"/>
      <path id="Path_30876" data-name="Path 30876" d="M75.276,5.684l3.76,7.1,6.512.005L78.494.48H72.485L57.31,27.317h6.217Z" transform="translate(-57.31 -0.48)" fill="#005288"/>
    </g>
    <path id="XMLID_26_" d="M78.472,22.96,72.95,33.139l39.188-10.162Z" transform="translate(-33.029 -10.178)" fill="#54c0e8"/>
  </g>
</svg>
