<svg id="outdoor" xmlns="http://www.w3.org/2000/svg" width="32.612" height="23.918" viewBox="0 0 32.612 23.918">
  <path id="Path_30783" data-name="Path 30783" d="M51.42,47.693H35.1c0,.489,0,.961,0,1.433,0,.54-.177.723-.7.724q-2,0-4.009,0c-.534,0-.713-.18-.714-.714,0-.473,0-.947,0-1.461-.351,0-.676,0-1,0a1.627,1.627,0,0,1-1.717-1.7q0-9.174,0-18.35a1.617,1.617,0,0,1,1.692-1.689q14.609,0,29.217,0a1.616,1.616,0,0,1,1.7,1.684q.006,9.192,0,18.384a1.618,1.618,0,0,1-1.676,1.671c-.327,0-.656,0-1.04,0V49.1c0,.582-.168.752-.743.753q-1.988,0-3.974,0c-.53,0-.707-.183-.709-.719C51.419,48.66,51.42,48.186,51.42,47.693Zm-8.163-20.68H28.821c-.628,0-.788.156-.788.776V45.728c0,.744.125.87.862.87H57.7c.627,0,.788-.158.788-.777V27.814c0-.651-.151-.8-.8-.8ZM30.77,47.695v1.062H34V47.695Zm21.751-.007v1.064h3.225V47.688Z" transform="translate(-26.955 -25.935)" fill="#005288"/>
  <path id="Path_30784" data-name="Path 30784" d="M193.86,54.79v6.319a1.642,1.642,0,0,1-1.789,1.8q-3.108,0-6.216,0a1.641,1.641,0,0,1-1.771-1.783q0-6.37,0-12.74a1.641,1.641,0,0,1,1.772-1.781q3.108,0,6.216,0a1.641,1.641,0,0,1,1.788,1.8Q193.862,51.6,193.86,54.79Zm-8.68,2.117h7.586V52.593H185.18Zm7.591-5.426c0-.092.011-.168.011-.245q0-1.444,0-2.886c0-.467-.2-.664-.655-.669-.385,0-.769,0-1.154,0h-5.091c-.538,0-.718.177-.719.7,0,.4,0,.791,0,1.189V51.48Zm-7.607,6.545c0,1.116-.008,2.2.005,3.283,0,.335.245.519.627.519q3.173,0,6.346,0c.44,0,.636-.2.639-.649.005-.747,0-1.494,0-2.24v-.914Z" transform="translate(-163.424 -43.885)" fill="#005288"/>
  <path id="Path_30785" data-name="Path 30785" d="M43.5,51.157a8.694,8.694,0,1,1,8.665,8.713A8.705,8.705,0,0,1,43.5,51.157Zm1.078.014a7.616,7.616,0,1,0,7.635-7.614A7.614,7.614,0,0,0,44.578,51.172Z" transform="translate(-41.325 -40.305)" fill="#005288"/>
  <path id="Path_30786" data-name="Path 30786" d="M66.359,63.181l-2.272,1.308c-.667.384-1.331.773-2,1.153-.417.237-.7.139-.9-.3a2.17,2.17,0,0,1-.078-1.653,4.782,4.782,0,0,1,5.028-3.053c.458.071.7-.129.7-.577V55.642c0-.6.264-.816.859-.709a2.57,2.57,0,0,1,1.78,1.349,4.9,4.9,0,0,1-.327,5.284.532.532,0,0,0,.17.9q1.909,1.1,3.818,2.21c.5.289.556.589.2,1.044a2.364,2.364,0,0,1-2.1.9,4.782,4.782,0,0,1-4.423-2.959C66.73,63.47,66.517,63.342,66.359,63.181Zm5.769,2.152-3.2-1.85c-.507-.293-.507-.294-.981.06C68.642,65.013,70.854,65.988,72.128,65.333ZM67.934,56.2a.753.753,0,0,0-.014.093c0,1.189.021,2.377-.014,3.564-.013.446.092.73.542.836C69.542,59.17,68.9,56.636,67.934,56.2Zm-2.2,5.477c-1.465-.151-3.537,1.158-3.631,2.707.112-.06.209-.112.305-.167.97-.56,1.926-1.144,2.916-1.668A.679.679,0,0,0,65.732,61.68Zm1.637.834a.546.546,0,0,0,.039-1.091.556.556,0,0,0-.575.543A.549.549,0,0,0,67.369,62.513Z" transform="translate(-56.51 -51.098)" fill="#005288"/>
</svg>
