<svg id="Group_26509" data-name="Group 26509" xmlns="http://www.w3.org/2000/svg" width="85.646" height="62.815" viewBox="0 0 85.646 62.815">
  <path id="Path_30783" data-name="Path 30783" d="M91.207,83.077H48.347c0,1.284,0,2.524,0,3.764,0,1.419-.466,1.9-1.847,1.9q-5.262.005-10.528,0c-1.4,0-1.871-.473-1.875-1.875,0-1.243,0-2.486,0-3.836-.922,0-1.775.007-2.628,0a4.273,4.273,0,0,1-4.509-4.464q-.01-24.094,0-48.191A4.247,4.247,0,0,1,31.4,25.94q38.368-.01,76.732,0a4.243,4.243,0,0,1,4.458,4.423q.016,24.14,0,48.281a4.25,4.25,0,0,1-4.4,4.389c-.86.01-1.723,0-2.731,0v3.736c0,1.53-.442,1.975-1.951,1.978q-5.221.005-10.438,0c-1.391,0-1.858-.48-1.861-1.889C91.2,85.615,91.207,84.372,91.207,83.077ZM69.768,28.768H31.856c-1.65,0-2.068.411-2.068,2.037v47.11c0,1.954.328,2.286,2.265,2.286H107.7c1.647,0,2.068-.414,2.068-2.041V30.871c0-1.709-.4-2.106-2.089-2.106Q88.724,28.77,69.768,28.768ZM36.973,83.081v2.79h8.494v-2.79ZM94.1,83.064v2.793h8.47V83.064Z" transform="translate(-26.955 -25.935)" fill="#005288"/>
  <path id="Path_30784" data-name="Path 30784" d="M209.76,68.106V84.7c0,2.976-1.737,4.72-4.7,4.723q-8.162.005-16.325,0a4.308,4.308,0,0,1-4.651-4.682q-.005-16.729,0-33.458a4.308,4.308,0,0,1,4.654-4.679q8.162-.005,16.325,0c2.963,0,4.692,1.744,4.7,4.723Q209.765,59.724,209.76,68.106Zm-22.8,5.559h19.923V62.336H186.965ZM206.9,59.415c.01-.242.028-.442.028-.642q.005-3.791,0-7.579c0-1.226-.514-1.744-1.719-1.757-1.012-.01-2.02,0-3.032,0q-6.686,0-13.369,0c-1.412,0-1.885.466-1.889,1.851,0,1.039,0,2.079,0,3.121v5C193.622,59.415,200.23,59.415,206.9,59.415ZM186.923,76.6c0,2.931-.021,5.777.014,8.622.01.88.642,1.364,1.647,1.364q8.333.01,16.667,0c1.157,0,1.671-.535,1.678-1.706.014-1.961,0-3.922,0-5.884V76.6C200.224,76.6,193.636,76.6,186.923,76.6Z" transform="translate(-129.83 -39.466)" fill="#005288"/>
  <path id="Path_30785" data-name="Path 30785" d="M43.5,65.269A22.832,22.832,0,1,1,66.257,88.15,22.862,22.862,0,0,1,43.5,65.269Zm2.831.038a20,20,0,1,0,20.05-20A20,20,0,0,0,46.331,65.307Z" transform="translate(-37.788 -36.767)" fill="#005288"/>
  <path id="Path_30786" data-name="Path 30786" d="M75.1,76.637l-5.966,3.436c-1.751,1.008-3.494,2.03-5.252,3.028-1.095.622-1.833.366-2.362-.791a5.7,5.7,0,0,1-.2-4.34,12.559,12.559,0,0,1,13.2-8.017c1.2.186,1.84-.338,1.84-1.516v-11.6c0-1.578.694-2.144,2.255-1.861a6.75,6.75,0,0,1,4.675,3.543,12.878,12.878,0,0,1-.86,13.877,1.4,1.4,0,0,0,.445,2.362q5.013,2.9,10.027,5.8c1.312.76,1.461,1.547.528,2.742a6.209,6.209,0,0,1-5.525,2.355c-5.352-.311-9.371-2.728-11.615-7.772C76.075,77.4,75.515,77.058,75.1,76.637Zm15.151,5.652c-2.862-1.654-5.635-3.256-8.4-4.858-1.333-.77-1.333-.773-2.576.159C81.1,81.447,86.906,84.009,90.252,82.289ZM79.237,58.309a1.979,1.979,0,0,0-.038.245c0,3.121.055,6.243-.038,9.361-.035,1.171.242,1.916,1.423,2.2C83.46,66.1,81.768,59.449,79.237,58.309ZM73.454,72.694c-3.846-.4-9.288,3.042-9.537,7.109.293-.159.549-.294.8-.439,2.548-1.471,5.058-3,7.658-4.382A1.784,1.784,0,0,0,73.454,72.694Zm4.3,2.189a1.434,1.434,0,0,0,.1-2.866,1.46,1.46,0,0,0-1.509,1.426A1.443,1.443,0,0,0,77.753,74.883Z" transform="translate(-49.234 -44.904)" fill="#005288"/>
</svg>
