<svg id="refresh_2" data-name="refresh 2" xmlns="http://www.w3.org/2000/svg" width="44.864" height="43.746" viewBox="0 0 44.864 43.746">
  <g id="Group_26400" data-name="Group 26400" transform="translate(0 0)">
    <rect id="Rectangle_21911" data-name="Rectangle 21911" width="44.864" height="43.746" rx="10" transform="translate(0 0)" fill="#005288"/>
  </g>
  <g id="noun_Refresh_3523564" transform="translate(7.583 5.309)">
    <g id="Group_26403" data-name="Group 26403" transform="translate(0)">
      <path id="Path_30865" data-name="Path 30865" d="M33.893,23.909v2.572l4.293-3.948L33.893,18.81v2.608a13.8,13.8,0,0,0-8.058,24.258l.288.25,2.357-1.6-.522-.421a11.149,11.149,0,0,1-4.237-8.7A11.568,11.568,0,0,1,33.893,23.909Z" transform="translate(-21 -18.81)" fill="#fff"/>
      <path id="Path_30866" data-name="Path 30866" d="M50.758,54.705A13.923,13.923,0,0,0,63.617,40.98a13.758,13.758,0,0,0-4.267-9.823l-.285-.276L56.71,32.426l.475.43A11.037,11.037,0,0,1,60.9,41a11.341,11.341,0,0,1-10.137,11.21V49.567L46.586,53.8l4.172,4.117Z" transform="translate(-33.898 -24.895)" fill="#fff"/>
    </g>
  </g>
</svg>
