<svg id="Group_25975" data-name="Group 25975" xmlns="http://www.w3.org/2000/svg" width="100.049" height="97.555" viewBox="0 0 100.049 97.555">
  <path id="Path_30788" data-name="Path 30788" d="M48.538,0h2.973a48.538,48.538,0,0,1,48.538,48.538v.479A48.538,48.538,0,0,1,51.511,97.555H48.538A48.538,48.538,0,0,1,0,49.017v-.479A48.538,48.538,0,0,1,48.538,0Z" transform="translate(0 0)" fill="#005288"/>
  <g id="noun_Refresh_1684525" transform="translate(18.316 18.316)">
    <path id="Path_30788-2" data-name="Path 30788" d="M70.265,13.76a1.891,1.891,0,0,0-2.284,1.387l-2.314,9.745A30.992,30.992,0,1,0,67.154,52.06a1.89,1.89,0,1,0-3.482-1.472,27.219,27.219,0,1,1-.8-22.908l-10.621-3.5a1.89,1.89,0,0,0-1.2,3.586L65.6,32.572a2,2,0,0,0,1.513-.139,1.93,1.93,0,0,0,.922-1.205l3.617-15.183A1.89,1.89,0,0,0,70.265,13.76Z" transform="translate(-7.6 -9)" fill="#fff"/>
  </g>
</svg>
