<svg xmlns="http://www.w3.org/2000/svg" width="102.044" height="99.5" viewBox="0 0 102.044 99.5">
  <g id="Group_25969" data-name="Group 25969" transform="translate(0.001 0)">
    <rect id="Rectangle_888" data-name="Rectangle 888" width="102.044" height="99.5" rx="49.75" transform="translate(-0.001 0)" fill="#e8061d"/>
    <g id="icon_parabens" data-name="icon parabens" transform="translate(15.306 13.606)">
      <g id="Ellipse_134" data-name="Ellipse 134" transform="translate(0 0)" fill="none" stroke="#fff" stroke-width="4" opacity="0.999">
        <ellipse cx="35.837" cy="35.837" rx="35.837" ry="35.837" stroke="none"/>
        <ellipse cx="35.837" cy="35.837" rx="33.837" ry="33.837" fill="none"/>
      </g>
      <g id="noun_Close_4035763" transform="translate(19.558 19.558)">
        <g id="Layer_46" data-name="Layer 46" transform="translate(0 0)">
          <path id="Path_30787" data-name="Path 30787" d="M27,24.107,39.662,11.446a2.013,2.013,0,0,0-2.838-2.838L24.163,21.269,11.5,8.588a2.021,2.021,0,0,0-2.858,2.858L21.325,24.107,8.644,36.768a2.013,2.013,0,1,0,2.838,2.838L24.163,26.945,36.824,39.606a2.013,2.013,0,0,0,2.838-2.838Z" transform="translate(-7.94 -7.996)" fill="#fff"/>
        </g>
      </g>
    </g>
  </g>
</svg>
