<svg id="Icon_ionic-md-eye-off" data-name="Icon ionic-md-eye-off" xmlns="http://www.w3.org/2000/svg" width="24.73" height="21.193" viewBox="0 0 24.73 21.193">
  <path id="Icon_ionic-md-eye-off-2" data-name="Icon ionic-md-eye-off" d="M14.618,8.959a5.606,5.606,0,0,1,5.624,5.58,5.367,5.367,0,0,1-.4,2.042l3.284,3.256a13.194,13.194,0,0,0,3.858-5.3A13.318,13.318,0,0,0,10.131,6.95l2.428,2.412A5.561,5.561,0,0,1,14.618,8.959ZM3.376,5.918,5.942,8.463l.519.513A13.131,13.131,0,0,0,2.25,14.539a13.338,13.338,0,0,0,17.291,7.429l.475.469,3.295,3.256,1.429-1.418L4.8,4.5ZM9.59,12.083l1.744,1.727a3.161,3.161,0,0,0-.088.723,3.355,3.355,0,0,0,3.372,3.344,3.172,3.172,0,0,0,.729-.088l1.744,1.727a5.594,5.594,0,0,1-8.1-4.989A5.513,5.513,0,0,1,9.59,12.083Zm4.846-.866,3.543,3.516L18,14.556a3.355,3.355,0,0,0-3.372-3.344Z" transform="translate(-2.25 -4.5)" fill="#ddd"/>
</svg>
