<svg id="Group_26995" data-name="Group 26995" xmlns="http://www.w3.org/2000/svg" xmlns:xlink="http://www.w3.org/1999/xlink" width="35.397" height="22.157" viewBox="0 0 35.397 22.157">
  <defs>
    <clipPath id="clip-path">
      <rect id="Rectangle_22892" data-name="Rectangle 22892" width="35.397" height="22.157" fill="#005288" stroke="#005287" stroke-width="0.5"/>
    </clipPath>
  </defs>
  <g id="Group_26995-2" data-name="Group 26995" clip-path="url(#clip-path)">
    <path id="Path_32487" data-name="Path 32487" d="M17.731.014C22.915.014,28.1.034,33.282,0a2.051,2.051,0,0,1,2.136,2.126c-.045,2.128-.012,4.258-.013,6.386a1.927,1.927,0,0,1-2.039,2.039H2.1A1.934,1.934,0,0,1,.024,8.483q0-3.225,0-6.451A1.919,1.919,0,0,1,2.052.015q7.84,0,15.679,0m.012,1.017H2.126c-.746,0-1.086.342-1.086,1.094q0,3.178,0,6.356A.938.938,0,0,0,2.1,9.534h31.2a.938.938,0,0,0,1.08-1.065q0-3.162,0-6.324c0-.794-.323-1.115-1.123-1.115H17.743" transform="translate(-0.022 0)" fill="#005288" stroke="#005287" stroke-width="0.5"/>
    <path id="Path_32488" data-name="Path 32488" d="M17.7,181.75q7.791,0,15.582,0a1.907,1.907,0,0,1,1.883,1.064,2.189,2.189,0,0,1,.209.917c.017,2.192.011,4.385.008,6.577a1.9,1.9,0,0,1-1.808,1.975c-.116.01-.234.01-.351.01q-15.534,0-31.068,0a1.939,1.939,0,0,1-1.908-1.024,2.106,2.106,0,0,1-.234-.911C-.006,188.136,0,185.911,0,183.687a1.9,1.9,0,0,1,1.763-1.92c.148-.014.3-.015.446-.015H17.7m0,1.013H2.112a.95.95,0,0,0-1.093,1.093q0,3.114,0,6.228c0,.884.31,1.2,1.184,1.2H33.182c.1,0,.192,0,.287,0a.911.911,0,0,0,.9-.965c0-2.193.005-4.386-.006-6.579a1.176,1.176,0,0,0-.162-.567.977.977,0,0,0-.946-.4q-7.777.005-15.554,0" transform="translate(0 -170.138)" fill="#005288" stroke="#005287" stroke-width="0.5"/>
    <path id="Path_32489" data-name="Path 32489" d="M448.853,55.627a1.949,1.949,0,0,1-1.966-1.963,1.976,1.976,0,1,1,1.966,1.963m0-1.015a.959.959,0,0,0,.965-.941.987.987,0,0,0-.944-.973.973.973,0,0,0-.974.969.942.942,0,0,0,.953.946" transform="translate(-418.339 -48.382)" fill="#005288" stroke="#005287" stroke-width="0.5"/>
    <path id="Path_32490" data-name="Path 32490" d="M364.882,55.693a1.969,1.969,0,1,1-.014-3.938,1.969,1.969,0,1,1,.014,3.938m-.029-1.013a.959.959,0,0,0,.977-.929.99.99,0,0,0-.963-.986.969.969,0,0,0-.953.956.944.944,0,0,0,.94.959" transform="translate(-339.714 -48.449)" fill="#005288" stroke="#005287" stroke-width="0.5"/>
    <path id="Path_32491" data-name="Path 32491" d="M163.19,44.348c-.18,0-.361.006-.541,0a.507.507,0,0,1-.528-.483.52.52,0,0,1,.494-.525c.381-.017.764-.016,1.145,0a.5.5,0,1,1-.029,1.008c-.18.007-.36,0-.541,0Z" transform="translate(-151.764 -40.558)" fill="#005288" stroke="#005287" stroke-width="0.5"/>
    <path id="Path_32492" data-name="Path 32492" d="M222.493,44.444c-.191,0-.382.007-.573,0a.463.463,0,0,1-.475-.461.442.442,0,0,1,.4-.524,8.336,8.336,0,0,1,1.3-.007.5.5,0,0,1-.078.993c-.191.006-.382,0-.573,0" transform="translate(-207.296 -40.654)" fill="#005288" stroke="#005287" stroke-width="0.5"/>
    <path id="Path_32493" data-name="Path 32493" d="M163.184,75.674c-.18,0-.36.008-.54,0a.508.508,0,0,1-.515-.466.485.485,0,0,1,.446-.525,9.723,9.723,0,0,1,1.268,0,.466.466,0,0,1,.416.515.481.481,0,0,1-.471.471c-.2.013-.4,0-.6,0v0" transform="translate(-151.771 -69.892)" fill="#005288" stroke="#005287" stroke-width="0.5"/>
    <path id="Path_32494" data-name="Path 32494" d="M45,44.361c-.191,0-.382.008-.572,0a.5.5,0,0,1-.039-1,9.65,9.65,0,0,1,1.206,0,.477.477,0,0,1,.454.546.482.482,0,0,1-.509.458H45Z" transform="translate(-41.132 -40.571)" fill="#005288" stroke="#005287" stroke-width="0.5"/>
    <path id="Path_32495" data-name="Path 32495" d="M104.088,44.4c-.191,0-.382.008-.572,0a.49.49,0,0,1-.491-.482.506.506,0,0,1,.457-.522,11.519,11.519,0,0,1,1.207.006.474.474,0,0,1,.455.512.489.489,0,0,1-.516.487c-.18.007-.36,0-.54,0h0" transform="translate(-96.444 -40.61)" fill="#005288" stroke="#005287" stroke-width="0.5"/>
    <path id="Path_32496" data-name="Path 32496" d="M104.084,75.616c-.18,0-.36.007-.54,0a.5.5,0,0,1-.041-1,11.66,11.66,0,0,1,1.206,0,.463.463,0,0,1,.439.522.457.457,0,0,1-.461.47c-.2.014-.4,0-.6,0h0" transform="translate(-96.449 -69.837)" fill="#005288" stroke="#005287" stroke-width="0.5"/>
    <path id="Path_32497" data-name="Path 32497" d="M45.012,75.7c-.191,0-.382.01-.572,0a.457.457,0,0,1-.453-.447.436.436,0,0,1,.388-.53,8.141,8.141,0,0,1,1.329,0c.28.022.409.242.389.525a.45.45,0,0,1-.446.451c-.21.019-.423,0-.635,0" transform="translate(-41.174 -69.918)" fill="#005288" stroke="#005287" stroke-width="0.5"/>
    <path id="Path_32498" data-name="Path 32498" d="M222.481,75.679c-.191,0-.382.01-.572,0a.462.462,0,0,1-.466-.469.447.447,0,0,1,.412-.516,9.187,9.187,0,0,1,1.3,0,.441.441,0,0,1,.408.488.458.458,0,0,1-.446.488c-.21.017-.423,0-.635,0v0" transform="translate(-207.296 -69.901)" fill="#005288" stroke="#005287" stroke-width="0.5"/>
    <path id="Path_32499" data-name="Path 32499" d="M163.236,105.968c.2,0,.4-.012.6,0a.5.5,0,0,1,.46.482.489.489,0,0,1-.441.5c-.412.02-.826.021-1.237,0a.493.493,0,0,1,.011-.983c.2-.012.4,0,.6,0" transform="translate(-151.805 -99.194)" fill="#005288" stroke="#005287" stroke-width="0.5"/>
    <path id="Path_32500" data-name="Path 32500" d="M104.12,106.915c-.192,0-.384.009-.575,0a.5.5,0,0,1-.5-.513.489.489,0,0,1,.494-.48c.383-.01.767-.012,1.149,0a.476.476,0,0,1,.48.492.486.486,0,0,1-.477.5c-.095.01-.191.009-.287.01s-.192,0-.287,0v0" transform="translate(-96.465 -99.146)" fill="#005288" stroke="#005287" stroke-width="0.5"/>
    <path id="Path_32501" data-name="Path 32501" d="M222.442,106.9c-.2,0-.4.013-.6,0a.483.483,0,0,1-.457-.512.46.46,0,0,1,.459-.476c.4-.015.8-.014,1.206,0a.464.464,0,0,1,.459.477.485.485,0,0,1-.461.509c-.2.016-.4,0-.6,0" transform="translate(-207.239 -99.134)" fill="#005288" stroke="#005287" stroke-width="0.5"/>
    <path id="Path_32502" data-name="Path 32502" d="M45.076,105.965c.2,0,.405-.015.606,0a.451.451,0,0,1,.436.463.44.44,0,0,1-.41.512,10.523,10.523,0,0,1-1.306-.005.429.429,0,0,1-.391-.5.447.447,0,0,1,.428-.47c.211-.021.425,0,.638,0v0" transform="translate(-41.199 -99.191)" fill="#005288" stroke="#005287" stroke-width="0.5"/>
    <path id="Path_32503" data-name="Path 32503" d="M446.882,235.307a1.976,1.976,0,1,1,1.971,1.993,1.976,1.976,0,0,1-1.971-1.993m1.017.007a.954.954,0,0,0,.937.969.959.959,0,1,0,.021-1.917.958.958,0,0,0-.958.948" transform="translate(-418.335 -218.442)" fill="#005288" stroke="#005287" stroke-width="0.5"/>
    <path id="Path_32504" data-name="Path 32504" d="M362.9,235.324a1.976,1.976,0,1,1,3.951.027,1.989,1.989,0,0,1-2.01,1.961,1.967,1.967,0,0,1-1.941-1.988m1.962.97a.961.961,0,0,0,.969-.938.973.973,0,0,0-.934-.978.958.958,0,1,0-.035,1.916" transform="translate(-339.719 -218.454)" fill="#005288" stroke="#005287" stroke-width="0.5"/>
    <path id="Path_32505" data-name="Path 32505" d="M45.018,257.25c-.18,0-.361.007-.54,0a.506.506,0,1,1-.013-1.012c.371-.011.742-.012,1.112,0a.5.5,0,0,1-.018,1.009c-.18.009-.36,0-.54,0" transform="translate(-41.144 -239.86)" fill="#005288" stroke="#005287" stroke-width="0.5"/>
    <path id="Path_32506" data-name="Path 32506" d="M45.016,225.174c.191,0,.383-.013.572,0a.5.5,0,0,1,.049,1,10.787,10.787,0,0,1-1.239,0,.5.5,0,0,1,.046-1c.19-.01.382,0,.572,0" transform="translate(-41.141 -210.785)" fill="#005288" stroke="#005287" stroke-width="0.5"/>
    <path id="Path_32507" data-name="Path 32507" d="M163.208,226.179c-.18,0-.361.01-.541,0a.506.506,0,1,1,.025-1.012c.36-.007.721-.009,1.081,0a.5.5,0,0,1,.513.5.522.522,0,0,1-.506.512c-.19.011-.382,0-.572,0" transform="translate(-151.796 -210.776)" fill="#005288" stroke="#005287" stroke-width="0.5"/>
    <path id="Path_32508" data-name="Path 32508" d="M222.44,225.189c.18,0,.361-.007.541,0a.5.5,0,0,1,.06,1,10.87,10.87,0,0,1-1.24,0,.5.5,0,0,1,.035-1c.2-.015.4,0,.6,0h0" transform="translate(-207.218 -210.801)" fill="#005288" stroke="#005287" stroke-width="0.5"/>
    <path id="Path_32509" data-name="Path 32509" d="M163.166,257.242c-.17,0-.34,0-.509,0a.527.527,0,0,1-.539-.513.518.518,0,0,1,.517-.5c.371-.011.743-.013,1.114,0a.488.488,0,0,1,.5.511.5.5,0,0,1-.507.5c-.191.009-.382,0-.573,0" transform="translate(-151.762 -239.85)" fill="#005288" stroke="#005287" stroke-width="0.5"/>
    <path id="Path_32510" data-name="Path 32510" d="M222.379,257.242c-.191,0-.383.011-.573,0a.506.506,0,0,1-.477-.5.5.5,0,0,1,.477-.5c.392-.017.785-.018,1.177,0a.5.5,0,0,1,.479.5.512.512,0,0,1-.511.506c-.19.009-.382,0-.573,0Z" transform="translate(-207.191 -239.854)" fill="#005288" stroke="#005287" stroke-width="0.5"/>
    <path id="Path_32511" data-name="Path 32511" d="M163.293,288.368c-.192,0-.384.009-.575,0a.5.5,0,0,1-.487-.494.513.513,0,0,1,.441-.507,11.841,11.841,0,0,1,1.243,0,.5.5,0,0,1,.438.541.51.51,0,0,1-.486.459c-.191.009-.383,0-.575,0" transform="translate(-151.868 -268.993)" fill="#005288" stroke="#005287" stroke-width="0.5"/>
    <path id="Path_32512" data-name="Path 32512" d="M104.071,288.321c-.18,0-.361.007-.54,0a.5.5,0,0,1-.04-1,10.625,10.625,0,0,1,1.206,0,.486.486,0,0,1,.46.543.5.5,0,0,1-.513.461c-.19.008-.381,0-.572,0" transform="translate(-96.453 -268.946)" fill="#005288" stroke="#005287" stroke-width="0.5"/>
    <path id="Path_32513" data-name="Path 32513" d="M45.01,288.335c-.191,0-.382.009-.572,0a.485.485,0,0,1-.484-.487.491.491,0,0,1,.458-.516,11.147,11.147,0,0,1,1.207,0,.5.5,0,0,1-.037,1c-.19.011-.381,0-.572,0" transform="translate(-41.145 -268.96)" fill="#005288" stroke="#005287" stroke-width="0.5"/>
    <path id="Path_32514" data-name="Path 32514" d="M104.15,257.19c-.191,0-.383.015-.572,0a.468.468,0,0,1-.451-.486.45.45,0,0,1,.422-.508,8.2,8.2,0,0,1,1.27,0,.449.449,0,0,1,.417.512.462.462,0,0,1-.451.484,6.167,6.167,0,0,1-.635,0" transform="translate(-96.538 -239.803)" fill="#005288" stroke="#005287" stroke-width="0.5"/>
    <path id="Path_32515" data-name="Path 32515" d="M104.09,226.163c-.18,0-.361.008-.541,0a.517.517,0,0,1-.524-.524.5.5,0,0,1,.523-.488c.36-.009.721-.01,1.081,0a.506.506,0,1,1,0,1.011c-.18.009-.36,0-.541,0" transform="translate(-96.444 -210.759)" fill="#005288" stroke="#005287" stroke-width="0.5"/>
    <path id="Path_32516" data-name="Path 32516" d="M222.653,288.405c-.18,0-.36.006-.54,0a.473.473,0,0,1-.511-.455.443.443,0,0,1,.412-.538,8.168,8.168,0,0,1,1.3,0,.462.462,0,0,1,.4.5.49.49,0,0,1-.456.484c-.2.015-.4,0-.6,0v0" transform="translate(-207.442 -269.029)" fill="#005288" stroke="#005287" stroke-width="0.5"/>
  </g>
</svg>
