<svg id="_Icon" data-name="🎨 Icon" xmlns="http://www.w3.org/2000/svg" xmlns:xlink="http://www.w3.org/1999/xlink" width="12" height="12" viewBox="0 0 12 12">
  <defs>
    <clipPath id="clip-path">
      <path id="_Icon_Color" data-name="🎨 Icon Color" d="M9.058.644A1.666,1.666,0,0,1,11.333.3a1.538,1.538,0,0,1,.352,2.2L6.306,9.6a1,1,0,0,1-1.493.115L.476,5.515a1.535,1.535,0,0,1,0-2.224,1.669,1.669,0,0,1,2.3,0L5.243,5.678Z" transform="translate(0 1.5)" fill="#fff"/>
    </clipPath>
  </defs>
  <rect id="_8_Toggle_Checkmark:_Toggle_background" data-name=" 8) Toggle/Checkmark: Toggle background" width="12" height="12" fill="none"/>
  <g id="Group_35" data-name="Group 35">
    <path id="_Icon_Color-2" data-name="🎨 Icon Color" d="M9.058.644A1.666,1.666,0,0,1,11.333.3a1.538,1.538,0,0,1,.352,2.2L6.306,9.6a1,1,0,0,1-1.493.115L.476,5.515a1.535,1.535,0,0,1,0-2.224,1.669,1.669,0,0,1,2.3,0L5.243,5.678Z" transform="translate(0 1.5)" fill="#005288"/>
  </g>
</svg>
