<svg xmlns="http://www.w3.org/2000/svg" width="25.706" height="27.483" viewBox="0 0 25.706 27.483">
  <g id="noun_User_4401047" transform="translate(-6.465 -35.483)">
    <path id="Path_30917" data-name="Path 30917" d="M70.744,44.641a5.145,5.145,0,1,0-8.337-4.657,6.312,6.312,0,0,0-6.469,10.753,9.868,9.868,0,0,0-6.1,9.155v1.923a1.152,1.152,0,0,0,1.152,1.151H68.522a1.153,1.153,0,0,0,1.152-1.148V59.892a9.916,9.916,0,0,0-1.548-5.342h6.407a1.012,1.012,0,0,0,1.011-1.011V52A7.994,7.994,0,0,0,70.744,44.641ZM68.776,61.818a.254.254,0,0,1-.254.254H50.991a.254.254,0,0,1-.254-.254V59.892a8.978,8.978,0,0,1,6.334-8.611.448.448,0,0,0,.083-.821,5.413,5.413,0,0,1,2.6-10.16c.119,0,.239,0,.358.011A5.414,5.414,0,0,1,62.36,50.46a.449.449,0,0,0,.082.821,8.978,8.978,0,0,1,6.334,8.611Zm5.872-8.277a.114.114,0,0,1-.114.114H67.483a9.872,9.872,0,0,0-3.906-2.918,6.316,6.316,0,0,0-.312-10.272,4.248,4.248,0,1,1,6.286,3.9.449.449,0,0,0,.083.822A7.107,7.107,0,0,1,74.646,52Z" transform="translate(-43.374)" fill="#005288"/>
  </g>
</svg>
