<svg xmlns="http://www.w3.org/2000/svg" xmlns:xlink="http://www.w3.org/1999/xlink" width="30" height="30" viewBox="0 0 30 30">
  <defs>
    <clipPath id="clip-path">
      <rect id="Rectangle_22900" data-name="Rectangle 22900" width="11" height="20" transform="translate(10 13)" fill="#fff"/>
    </clipPath>
  </defs>
  <g id="Group_27014" data-name="Group 27014" transform="translate(-5 -8)">
    <g id="Group_27013" data-name="Group 27013">
      <g id="Group_27010" data-name="Group 27010" transform="translate(-16 -34)">
        <rect id="Rectangle_22898" data-name="Rectangle 22898" width="30" height="30" rx="4" transform="translate(21 42)" fill="#f8f8f8"/>
      </g>
      <g id="Group_27012" data-name="Group 27012" transform="translate(0 1.4)">
        <g id="noun-folder-power-745321" transform="translate(-98.737 -12.82)">
          <path id="Path_32526" data-name="Path 32526" d="M126.3,26.618H125v-.709a.71.71,0,0,0-.709-.709H113.616a.71.71,0,0,0-.709.709v8.042a4.236,4.236,0,0,0,0,8.006v.973a.71.71,0,0,0,.709.709h10.672A.71.71,0,0,0,125,42.93v-.507h.5a1.116,1.116,0,0,0,1.114-1.114v-7.72l.715-.67a.3.3,0,0,0,.1-.222V27.733a1.116,1.116,0,0,0-1.114-1.114ZM114.3,41.588a3.634,3.634,0,1,1,3.634-3.634A3.638,3.638,0,0,1,114.3,41.588Zm8.1-10.713h-4.255a.507.507,0,1,1,0-1.013H122.4a.507.507,0,1,1,0,1.013Zm0-2.33h-6.889a.507.507,0,1,1,0-1.013H122.4a.507.507,0,1,1,0,1.013Zm4.415,4.021-.714.67a.3.3,0,0,0-.1.222v7.851a.507.507,0,0,1-.507.507H125V27.226H126.3a.507.507,0,0,1,.507.507Z" transform="translate(0 0)" fill="#035187"/>
        </g>
        <g id="noun-power-plug-147552" transform="translate(-61.005 19.342)">
          <path id="Path_32527" data-name="Path 32527" d="M77.681,6.167l.787-.787a.238.238,0,1,0-.331-.343l-.793.793a.131.131,0,0,1-.18,0l-.8-.8a.131.131,0,0,1,0-.18l.787-.781a.238.238,0,1,0-.331-.343l-.793.793a.131.131,0,0,1-.18,0l-.21-.21a.131.131,0,0,0-.18,0l-.661.661a1.745,1.745,0,0,0-.06,2.422,1.726,1.726,0,0,0,2.47.036l.691-.691a.131.131,0,0,0,0-.18l-.21-.21a.125.125,0,0,1-.006-.18Zm-2.224.577a.51.51,0,1,1,.721,0A.511.511,0,0,1,75.457,6.744Z" fill="#035187"/>
        </g>
      </g>
    </g>
    <g id="Mask_Group_37" data-name="Mask Group 37" opacity="0.233" clip-path="url(#clip-path)">
      <g id="noun-folder-power-745321-2" data-name="noun-folder-power-745321" transform="translate(-98.737 -11.42)">
        <path id="Path_32526-2" data-name="Path 32526" d="M126.3,26.618H125v-.709a.71.71,0,0,0-.709-.709H113.616a.71.71,0,0,0-.709.709v8.042a4.236,4.236,0,0,0,0,8.006v.973a.71.71,0,0,0,.709.709h10.672A.71.71,0,0,0,125,42.93v-.507h.5a1.116,1.116,0,0,0,1.114-1.114v-7.72l.715-.67a.3.3,0,0,0,.1-.222V27.733a1.116,1.116,0,0,0-1.114-1.114ZM114.3,41.588a3.634,3.634,0,1,1,3.634-3.634A3.638,3.638,0,0,1,114.3,41.588Zm8.1-10.713h-4.255a.507.507,0,1,1,0-1.013H122.4a.507.507,0,1,1,0,1.013Zm0-2.33h-6.889a.507.507,0,1,1,0-1.013H122.4a.507.507,0,1,1,0,1.013Zm4.415,4.021-.714.67a.3.3,0,0,0-.1.222v7.851a.507.507,0,0,1-.507.507H125V27.226H126.3a.507.507,0,0,1,.507.507Z" transform="translate(0 0)" fill="#083f65"/>
      </g>
    </g>
  </g>
</svg>
