G04*
G04 #@! TF.GenerationSoftware,Altium Limited,Altium Designer,18.0.7 (293)*
G04*
G04 Layer_Color=32768*
%FSLAX24Y24*%
%MOIN*%
G70*
G01*
G75*
%ADD12C,0.0079*%
%ADD14C,0.0060*%
%ADD61C,0.0039*%
%ADD62C,0.0020*%
D12*
X13466Y11350D02*
G03*
X14543Y11342I533J-794D01*
G01*
X32850Y21534D02*
G03*
X32842Y20457I-794J-533D01*
G01*
X40350Y21534D02*
G03*
X40342Y20457I-794J-533D01*
G01*
X37850Y21534D02*
G03*
X37842Y20457I-794J-533D01*
G01*
X35350Y21534D02*
G03*
X35342Y20457I-794J-533D01*
G01*
X13466Y5850D02*
G03*
X14543Y5842I533J-794D01*
G01*
X13466Y16850D02*
G03*
X14543Y16842I533J-794D01*
G01*
X13466Y11350D02*
X14543D01*
X32850Y20457D02*
Y21534D01*
X40350Y20457D02*
Y21534D01*
X37850Y20457D02*
Y21534D01*
X35350Y20457D02*
Y21534D01*
X13466Y5850D02*
X14543D01*
X13466Y16850D02*
X14543D01*
D14*
X14200Y11500D02*
X14500D01*
X14400D01*
X14200Y11700D01*
X14350Y11550D01*
X14500Y11700D01*
X13700Y10500D02*
X14000D01*
Y10700D01*
X13700Y11000D02*
Y10800D01*
X14000D01*
Y11000D01*
X13850Y10800D02*
Y10900D01*
X13700Y11100D02*
X14000D01*
Y11250D01*
X13950Y11300D01*
X13750D01*
X13700Y11250D01*
Y11100D01*
X14000Y11600D02*
Y11400D01*
X13800Y11600D01*
X13750D01*
X13700Y11550D01*
Y11450D01*
X13750Y11400D01*
X33000Y20800D02*
Y20500D01*
Y20600D01*
X33200Y20800D01*
X33050Y20650D01*
X33200Y20500D01*
X32000Y21300D02*
Y21000D01*
X32100Y21100D01*
X32200Y21000D01*
Y21300D01*
X32300D02*
X32400D01*
X32350D01*
Y21000D01*
X32300D01*
X32400D01*
X32750Y21300D02*
X32550D01*
Y21150D01*
X32650D01*
X32550D01*
Y21000D01*
X32850Y21300D02*
X32950D01*
X32900D01*
Y21000D01*
X32850D01*
X32950D01*
X40500Y20800D02*
Y20500D01*
Y20600D01*
X40700Y20800D01*
X40550Y20650D01*
X40700Y20500D01*
X39700Y21250D02*
X39650Y21300D01*
X39550D01*
X39500Y21250D01*
Y21200D01*
X39550Y21150D01*
X39650D01*
X39700Y21100D01*
Y21050D01*
X39650Y21000D01*
X39550D01*
X39500Y21050D01*
X39800Y21300D02*
X40000D01*
X39900D01*
Y21000D01*
X40300Y21250D02*
X40250Y21300D01*
X40150D01*
X40100Y21250D01*
Y21200D01*
X40150Y21150D01*
X40250D01*
X40300Y21100D01*
Y21050D01*
X40250Y21000D01*
X40150D01*
X40100Y21050D01*
X38000Y20800D02*
Y20500D01*
Y20600D01*
X38200Y20800D01*
X38050Y20650D01*
X38200Y20500D01*
X37000Y21300D02*
Y21000D01*
X37200D01*
X37450Y21300D02*
X37350D01*
X37300Y21250D01*
Y21050D01*
X37350Y21000D01*
X37450D01*
X37500Y21050D01*
Y21250D01*
X37450Y21300D01*
X37600D02*
Y21000D01*
X37700Y21100D01*
X37800Y21000D01*
Y21300D01*
X35500Y20800D02*
Y20500D01*
Y20600D01*
X35700Y20800D01*
X35550Y20650D01*
X35700Y20500D01*
X34700Y21250D02*
X34650Y21300D01*
X34550D01*
X34500Y21250D01*
Y21200D01*
X34550Y21150D01*
X34650D01*
X34700Y21100D01*
Y21050D01*
X34650Y21000D01*
X34550D01*
X34500Y21050D01*
X35000Y21300D02*
X34800D01*
Y21000D01*
X35000D01*
X34800Y21150D02*
X34900D01*
X35100Y21000D02*
Y21300D01*
X35250D01*
X35300Y21250D01*
Y21150D01*
X35250Y21100D01*
X35100D01*
X35200D02*
X35300Y21000D01*
X35400Y21300D02*
Y21100D01*
X35500Y21000D01*
X35600Y21100D01*
Y21300D01*
X13700Y5000D02*
X14000D01*
Y5200D01*
X13700Y5500D02*
Y5300D01*
X14000D01*
Y5500D01*
X13850Y5300D02*
Y5400D01*
X13700Y5600D02*
X14000D01*
Y5750D01*
X13950Y5800D01*
X13750D01*
X13700Y5750D01*
Y5600D01*
X13750Y5900D02*
X13700Y5950D01*
Y6050D01*
X13750Y6100D01*
X13800D01*
X13850Y6050D01*
Y6000D01*
Y6050D01*
X13900Y6100D01*
X13950D01*
X14000Y6050D01*
Y5950D01*
X13950Y5900D01*
X14200Y6000D02*
X14500D01*
X14400D01*
X14200Y6200D01*
X14350Y6050D01*
X14500Y6200D01*
X13700Y16000D02*
X14000D01*
Y16200D01*
X13700Y16500D02*
Y16300D01*
X14000D01*
Y16500D01*
X13850Y16300D02*
Y16400D01*
X13700Y16600D02*
X14000D01*
Y16750D01*
X13950Y16800D01*
X13750D01*
X13700Y16750D01*
Y16600D01*
X14000Y16900D02*
Y17000D01*
Y16950D01*
X13700D01*
X13750Y16900D01*
X14200Y17000D02*
X14500D01*
X14400D01*
X14200Y17200D01*
X14350Y17050D01*
X14500Y17200D01*
D61*
X18803Y7500D02*
X19197D01*
X19000Y7303D02*
Y7697D01*
X18803Y13000D02*
X19197D01*
X19000Y12803D02*
Y13197D01*
Y18303D02*
Y18697D01*
X18803Y18500D02*
X19197D01*
X6500Y8303D02*
Y8697D01*
X6303Y8500D02*
X6697D01*
X39500Y16803D02*
Y17197D01*
X39303Y17000D02*
X39697D01*
X16000Y18303D02*
Y18697D01*
X15803Y18500D02*
X16197D01*
X16000Y12803D02*
Y13197D01*
X15803Y13000D02*
X16197D01*
X16000Y7303D02*
Y7697D01*
X15803Y7500D02*
X16197D01*
X8500Y5803D02*
Y6197D01*
X8303Y6000D02*
X8697D01*
X6303Y19500D02*
X6697D01*
X6500Y19303D02*
Y19697D01*
X6303Y14000D02*
X6697D01*
X6500Y13803D02*
Y14197D01*
X8500Y11303D02*
Y11697D01*
X8303Y11500D02*
X8697D01*
X8500Y16803D02*
Y17197D01*
X8303Y17000D02*
X8697D01*
X25303Y17500D02*
X25697D01*
X25500Y17303D02*
Y17697D01*
X20303Y16000D02*
X20697D01*
X20500Y15803D02*
Y16197D01*
D62*
X40524Y17000D02*
G03*
X40524Y17000I-1024J0D01*
G01*
X10114Y6000D02*
G03*
X10114Y6000I-1614J0D01*
G01*
Y11500D02*
G03*
X10114Y11500I-1614J0D01*
G01*
Y17000D02*
G03*
X10114Y17000I-1614J0D01*
G01*
X26524Y17500D02*
G03*
X26524Y17500I-1024J0D01*
G01*
X21524Y16000D02*
G03*
X21524Y16000I-1024J0D01*
G01*
X30300Y12803D02*
Y13197D01*
X30103Y13000D02*
X30497D01*
X22074Y12390D02*
Y13610D01*
Y12390D02*
X38526D01*
Y13610D01*
X22074D02*
X38526D01*
X18488Y5423D02*
X19512D01*
Y9577D01*
X18488Y5423D02*
Y9577D01*
X19512D01*
X18488Y10923D02*
X19512D01*
Y15077D01*
X18488Y10923D02*
Y15077D01*
X19512D01*
X18488Y20577D02*
X19512D01*
X18488Y16423D02*
Y20577D01*
X19512Y16423D02*
Y20577D01*
X18488Y16423D02*
X19512D01*
X3193Y7693D02*
X9807D01*
X3193Y9307D02*
X9807D01*
X3193Y7693D02*
Y9307D01*
X9807Y7693D02*
Y9307D01*
X14091Y17437D02*
X17909D01*
X14091Y19563D02*
X17909D01*
Y17437D02*
Y19563D01*
X14091Y17437D02*
Y19563D01*
Y11937D02*
X17909D01*
X14091Y14063D02*
X17909D01*
Y11937D02*
Y14063D01*
X14091Y11937D02*
Y14063D01*
Y6437D02*
X17909D01*
X14091Y8563D02*
X17909D01*
Y6437D02*
Y8563D01*
X14091Y6437D02*
Y8563D01*
X9807Y18693D02*
Y20307D01*
X3193Y18693D02*
Y20307D01*
X9807D01*
X3193Y18693D02*
X9807D01*
Y13193D02*
Y14807D01*
X3193Y13193D02*
Y14807D01*
X9807D01*
X3193Y13193D02*
X9807D01*
X30300Y2703D02*
Y3097D01*
X30103Y2900D02*
X30497D01*
X22074Y2290D02*
Y3510D01*
Y2290D02*
X38526D01*
Y3510D01*
X22074D02*
X38526D01*
X40890Y2274D02*
Y14726D01*
X42110D01*
Y2274D02*
Y14726D01*
X40890Y2274D02*
X42110D01*
X41500Y8303D02*
Y8697D01*
X41303Y8500D02*
X41697D01*
M02*
