G04*
G04 #@! TF.GenerationSoftware,Altium Limited,Altium Designer,18.0.7 (293)*
G04*
G04 Layer_Physical_Order=1*
G04 Layer_Color=255*
%FSLAX24Y24*%
%MOIN*%
G70*
G01*
G75*
%ADD16R,0.0610X0.0610*%
%ADD17C,0.0610*%
%ADD33R,0.0618X0.0618*%
%ADD34R,0.0618X0.0618*%
%ADD35C,0.0618*%
%ADD38C,0.0250*%
%ADD39C,0.1575*%
%ADD40C,0.1535*%
%ADD41R,0.0598X0.0598*%
%ADD42C,0.0598*%
%ADD43C,0.0551*%
%ADD44R,0.0531X0.0531*%
%ADD45C,0.0531*%
%ADD46C,0.0630*%
%ADD47R,0.0630X0.0630*%
%ADD48C,0.0512*%
%ADD49R,0.0512X0.0512*%
%ADD50R,0.0598X0.0598*%
%ADD51C,0.0591*%
%ADD52R,0.0591X0.0591*%
%ADD53R,0.0551X0.0551*%
%ADD54C,0.0500*%
G36*
X44000Y0D02*
X16500D01*
Y23000D01*
X44000D01*
Y0D01*
D02*
G37*
%LPC*%
G36*
X32555Y21415D02*
X32445D01*
X32340Y21387D01*
X32245Y21332D01*
X32168Y21255D01*
X32113Y21160D01*
X32085Y21055D01*
Y21013D01*
X32039Y20994D01*
X31943Y21090D01*
X31897Y21120D01*
X31887Y21160D01*
X31832Y21255D01*
X31755Y21332D01*
X31660Y21387D01*
X31555Y21415D01*
X31445D01*
X31340Y21387D01*
X31245Y21332D01*
X31168Y21255D01*
X31113Y21160D01*
X31085Y21055D01*
Y20945D01*
X31113Y20840D01*
X31168Y20745D01*
X31245Y20668D01*
X31340Y20613D01*
X31445Y20585D01*
X31555D01*
X31660Y20613D01*
X31730Y20654D01*
X32463Y19921D01*
X32440Y19873D01*
X32355Y19850D01*
X32269Y19801D01*
X32199Y19731D01*
X32150Y19645D01*
X32124Y19549D01*
Y19451D01*
X32150Y19355D01*
X32199Y19269D01*
X32269Y19199D01*
X32355Y19150D01*
X32451Y19124D01*
X32549D01*
X32645Y19150D01*
X32731Y19199D01*
X32801Y19269D01*
X32850Y19355D01*
X32873Y19440D01*
X32921Y19463D01*
X32991Y19393D01*
Y13580D01*
X33008Y13492D01*
X33058Y13417D01*
X33405Y13070D01*
X33401Y13053D01*
Y12947D01*
X33428Y12846D01*
X33481Y12755D01*
X33555Y12681D01*
X33646Y12628D01*
X33747Y12601D01*
X33853D01*
X33954Y12628D01*
X34045Y12681D01*
X34119Y12755D01*
X34172Y12846D01*
X34199Y12947D01*
Y13053D01*
X34172Y13154D01*
X34119Y13245D01*
X34045Y13319D01*
X33954Y13372D01*
X33853Y13399D01*
X33747D01*
X33730Y13395D01*
X33450Y13675D01*
Y19488D01*
X33432Y19575D01*
X33383Y19650D01*
X32494Y20539D01*
X32513Y20585D01*
X32555D01*
X32660Y20613D01*
X32755Y20668D01*
X32832Y20745D01*
X32887Y20840D01*
X32915Y20945D01*
Y21055D01*
X32887Y21160D01*
X32832Y21255D01*
X32755Y21332D01*
X32660Y21387D01*
X32555Y21415D01*
D02*
G37*
G36*
X39055D02*
X38945D01*
X38840Y21387D01*
X38745Y21332D01*
X38668Y21255D01*
X38613Y21160D01*
X38585Y21055D01*
Y20945D01*
X38613Y20840D01*
X38668Y20745D01*
X38745Y20668D01*
X38840Y20613D01*
X38945Y20585D01*
X39055D01*
X39160Y20613D01*
X39255Y20668D01*
X39332Y20745D01*
X39387Y20840D01*
X39415Y20945D01*
Y21055D01*
X39387Y21160D01*
X39332Y21255D01*
X39255Y21332D01*
X39160Y21387D01*
X39055Y21415D01*
D02*
G37*
G36*
X37555D02*
X37445D01*
X37340Y21387D01*
X37245Y21332D01*
X37168Y21255D01*
X37113Y21160D01*
X37085Y21055D01*
Y20945D01*
X37113Y20840D01*
X37168Y20745D01*
X37245Y20668D01*
X37340Y20613D01*
X37445Y20585D01*
X37555D01*
X37660Y20613D01*
X37755Y20668D01*
X37832Y20745D01*
X37887Y20840D01*
X37915Y20945D01*
Y21055D01*
X37887Y21160D01*
X37832Y21255D01*
X37755Y21332D01*
X37660Y21387D01*
X37555Y21415D01*
D02*
G37*
G36*
X36555D02*
X36445D01*
X36340Y21387D01*
X36245Y21332D01*
X36168Y21255D01*
X36113Y21160D01*
X36085Y21055D01*
Y20945D01*
X36093Y20917D01*
X35638Y20462D01*
X35588Y20388D01*
X35571Y20300D01*
Y13329D01*
X35555Y13319D01*
X35481Y13245D01*
X35428Y13154D01*
X35401Y13053D01*
Y12947D01*
X35428Y12846D01*
X35481Y12755D01*
X35555Y12681D01*
X35646Y12628D01*
X35747Y12601D01*
X35853D01*
X35954Y12628D01*
X36045Y12681D01*
X36119Y12755D01*
X36172Y12846D01*
X36199Y12947D01*
Y13053D01*
X36172Y13154D01*
X36119Y13245D01*
X36045Y13319D01*
X36029Y13329D01*
Y20205D01*
X36417Y20593D01*
X36445Y20585D01*
X36555D01*
X36660Y20613D01*
X36755Y20668D01*
X36832Y20745D01*
X36887Y20840D01*
X36915Y20945D01*
Y21055D01*
X36887Y21160D01*
X36832Y21255D01*
X36755Y21332D01*
X36660Y21387D01*
X36555Y21415D01*
D02*
G37*
G36*
X35055D02*
X34945D01*
X34840Y21387D01*
X34745Y21332D01*
X34668Y21255D01*
X34613Y21160D01*
X34585Y21055D01*
Y20945D01*
X34613Y20840D01*
X34668Y20745D01*
X34745Y20668D01*
X34840Y20613D01*
X34945Y20585D01*
X35055D01*
X35160Y20613D01*
X35255Y20668D01*
X35332Y20745D01*
X35387Y20840D01*
X35415Y20945D01*
Y21055D01*
X35387Y21160D01*
X35332Y21255D01*
X35255Y21332D01*
X35160Y21387D01*
X35055Y21415D01*
D02*
G37*
G36*
X29549Y20876D02*
X29451D01*
X29355Y20850D01*
X29269Y20801D01*
X29199Y20731D01*
X29150Y20645D01*
X29124Y20549D01*
Y20451D01*
X29150Y20355D01*
X29199Y20269D01*
X29269Y20199D01*
X29355Y20150D01*
X29451Y20124D01*
X29549D01*
X29645Y20150D01*
X29731Y20199D01*
X29801Y20269D01*
X29850Y20355D01*
X29876Y20451D01*
Y20549D01*
X29850Y20645D01*
X29801Y20731D01*
X29731Y20801D01*
X29645Y20850D01*
X29549Y20876D01*
D02*
G37*
G36*
X23554Y20909D02*
X23446D01*
X23342Y20881D01*
X23249Y20827D01*
X23173Y20751D01*
X23119Y20658D01*
X23091Y20554D01*
Y20446D01*
X23119Y20342D01*
X23173Y20249D01*
X23249Y20173D01*
X23342Y20119D01*
X23446Y20091D01*
X23554D01*
X23658Y20119D01*
X23751Y20173D01*
X23827Y20249D01*
X23881Y20342D01*
X23909Y20446D01*
Y20554D01*
X23881Y20658D01*
X23827Y20751D01*
X23751Y20827D01*
X23658Y20881D01*
X23554Y20909D01*
D02*
G37*
G36*
X22909D02*
X22091D01*
Y20091D01*
X22909D01*
Y20909D01*
D02*
G37*
G36*
X19366Y20637D02*
X18634D01*
Y19906D01*
X19366D01*
Y20637D01*
D02*
G37*
G36*
X37549Y19876D02*
X37451D01*
X37355Y19850D01*
X37269Y19801D01*
X37199Y19731D01*
X37150Y19645D01*
X37124Y19549D01*
Y19451D01*
X37150Y19355D01*
X37199Y19269D01*
X37269Y19199D01*
X37355Y19150D01*
X37451Y19124D01*
X37549D01*
X37645Y19150D01*
X37731Y19199D01*
X37801Y19269D01*
X37850Y19355D01*
X37876Y19451D01*
Y19549D01*
X37850Y19645D01*
X37801Y19731D01*
X37731Y19801D01*
X37645Y19850D01*
X37549Y19876D01*
D02*
G37*
G36*
X35049D02*
X34951D01*
X34855Y19850D01*
X34769Y19801D01*
X34699Y19731D01*
X34650Y19645D01*
X34624Y19549D01*
Y19451D01*
X34650Y19355D01*
X34699Y19269D01*
X34769Y19199D01*
X34855Y19150D01*
X34951Y19124D01*
X35049D01*
X35145Y19150D01*
X35231Y19199D01*
X35301Y19269D01*
X35350Y19355D01*
X35376Y19451D01*
Y19549D01*
X35350Y19645D01*
X35301Y19731D01*
X35231Y19801D01*
X35145Y19850D01*
X35049Y19876D01*
D02*
G37*
G36*
X22553Y19783D02*
X22447D01*
X22344Y19755D01*
X22251Y19702D01*
X22176Y19627D01*
X22122Y19534D01*
X22095Y19431D01*
Y19325D01*
X22122Y19222D01*
X22176Y19129D01*
X22251Y19054D01*
X22344Y19000D01*
X22447Y18973D01*
X22553D01*
X22656Y19000D01*
X22749Y19054D01*
X22824Y19129D01*
X22878Y19222D01*
X22905Y19325D01*
Y19431D01*
X22878Y19534D01*
X22824Y19627D01*
X22749Y19702D01*
X22656Y19755D01*
X22553Y19783D01*
D02*
G37*
G36*
X17552Y19395D02*
X17448D01*
X17347Y19368D01*
X17257Y19316D01*
X17184Y19243D01*
X17132Y19153D01*
X17105Y19052D01*
Y18948D01*
X17132Y18847D01*
X17184Y18757D01*
X17257Y18684D01*
X17347Y18632D01*
X17448Y18605D01*
X17552D01*
X17653Y18632D01*
X17743Y18684D01*
X17816Y18757D01*
X17868Y18847D01*
X17895Y18948D01*
Y19052D01*
X17868Y19153D01*
X17816Y19243D01*
X17743Y19316D01*
X17653Y19368D01*
X17552Y19395D01*
D02*
G37*
G36*
X25856Y18250D02*
X25144D01*
Y17538D01*
X25856D01*
Y18250D01*
D02*
G37*
G36*
X41554Y17909D02*
X41446D01*
X41342Y17881D01*
X41249Y17827D01*
X41173Y17751D01*
X41119Y17658D01*
X41091Y17554D01*
Y17446D01*
X41119Y17342D01*
X41173Y17249D01*
X41249Y17173D01*
X41342Y17119D01*
X41446Y17091D01*
X41554D01*
X41658Y17119D01*
X41751Y17173D01*
X41827Y17249D01*
X41881Y17342D01*
X41909Y17446D01*
Y17554D01*
X41881Y17658D01*
X41827Y17751D01*
X41751Y17827D01*
X41658Y17881D01*
X41554Y17909D01*
D02*
G37*
G36*
X39856Y17750D02*
X39144D01*
Y17623D01*
X38686D01*
X38598Y17606D01*
X38524Y17556D01*
X36837Y15870D01*
X36787Y15795D01*
X36770Y15707D01*
Y14542D01*
X36787Y14454D01*
X36837Y14380D01*
X37772Y13445D01*
X37752Y13399D01*
X37747D01*
X37646Y13372D01*
X37555Y13319D01*
X37481Y13245D01*
X37428Y13154D01*
X37401Y13053D01*
Y12947D01*
X37428Y12846D01*
X37481Y12755D01*
X37500Y12736D01*
X37484Y12680D01*
X37421Y12638D01*
X34890Y10107D01*
X30335D01*
X30324Y10127D01*
X30249Y10202D01*
X30156Y10255D01*
X30053Y10283D01*
X29947D01*
X29844Y10255D01*
X29794Y10227D01*
X29780Y10229D01*
X27301D01*
X27301Y10231D01*
X27231Y10301D01*
X27145Y10350D01*
X27049Y10376D01*
X26951D01*
X26855Y10350D01*
X26769Y10301D01*
X26699Y10231D01*
X26650Y10145D01*
X26624Y10049D01*
Y9951D01*
X26650Y9855D01*
X26699Y9769D01*
X26769Y9699D01*
X26855Y9650D01*
X26951Y9624D01*
X27049D01*
X27145Y9650D01*
X27231Y9699D01*
X27301Y9769D01*
X27301Y9771D01*
X29609D01*
X29622Y9722D01*
X29676Y9629D01*
X29751Y9554D01*
X29844Y9500D01*
X29947Y9473D01*
X30053D01*
X30156Y9500D01*
X30249Y9554D01*
X30324Y9629D01*
X30335Y9649D01*
X34985D01*
X35073Y9666D01*
X35147Y9716D01*
X37678Y12246D01*
X38017D01*
X38105Y12264D01*
X38179Y12314D01*
X38486Y12621D01*
X38536Y12695D01*
X38554Y12783D01*
Y13217D01*
X38536Y13305D01*
X38486Y13379D01*
X37229Y14637D01*
Y15176D01*
X37279Y15194D01*
X37355Y15150D01*
X37451Y15124D01*
X37549D01*
X37645Y15150D01*
X37731Y15199D01*
X37801Y15269D01*
X37850Y15355D01*
X37876Y15451D01*
Y15549D01*
X37875Y15551D01*
X38701Y16377D01*
X39226D01*
X39281Y16322D01*
X39363Y16275D01*
X39453Y16250D01*
X39547D01*
X39637Y16275D01*
X39719Y16322D01*
X39785Y16388D01*
X39832Y16469D01*
X39856Y16559D01*
Y16653D01*
X39832Y16744D01*
X39785Y16825D01*
X39719Y16891D01*
X39637Y16938D01*
X39547Y16962D01*
X39453D01*
X39363Y16938D01*
X39281Y16891D01*
X39226Y16836D01*
X38606D01*
X38519Y16818D01*
X38479Y16792D01*
X38447Y16831D01*
X38781Y17164D01*
X39144D01*
Y17038D01*
X39856D01*
Y17750D01*
D02*
G37*
G36*
X41909Y16909D02*
X41091D01*
Y16091D01*
X41909D01*
Y16909D01*
D02*
G37*
G36*
X20856Y16750D02*
X20144D01*
Y16038D01*
X20856D01*
Y16750D01*
D02*
G37*
G36*
X25549Y20876D02*
X25451D01*
X25355Y20850D01*
X25269Y20801D01*
X25199Y20731D01*
X25150Y20645D01*
X25124Y20549D01*
Y20451D01*
X25150Y20355D01*
X25199Y20269D01*
X25269Y20199D01*
X25271Y20199D01*
Y19664D01*
X22338Y16731D01*
X22288Y16657D01*
X22271Y16569D01*
Y15957D01*
X22251Y15946D01*
X22176Y15871D01*
X22122Y15778D01*
X22095Y15675D01*
Y15569D01*
X22122Y15466D01*
X22176Y15373D01*
X22251Y15298D01*
X22344Y15245D01*
X22447Y15217D01*
X22553D01*
X22656Y15245D01*
X22749Y15298D01*
X22824Y15373D01*
X22878Y15466D01*
X22905Y15569D01*
Y15675D01*
X22878Y15778D01*
X22824Y15871D01*
X22749Y15946D01*
X22729Y15957D01*
Y16474D01*
X25662Y19407D01*
X25712Y19481D01*
X25729Y19569D01*
Y20199D01*
X25731Y20199D01*
X25801Y20269D01*
X25850Y20355D01*
X25876Y20451D01*
Y20549D01*
X25850Y20645D01*
X25801Y20731D01*
X25731Y20801D01*
X25645Y20850D01*
X25549Y20876D01*
D02*
G37*
G36*
X35049Y15876D02*
X34951D01*
X34855Y15850D01*
X34769Y15801D01*
X34699Y15731D01*
X34650Y15645D01*
X34624Y15549D01*
Y15451D01*
X34650Y15355D01*
X34699Y15269D01*
X34769Y15199D01*
X34855Y15150D01*
X34951Y15124D01*
X35049D01*
X35145Y15150D01*
X35231Y15199D01*
X35301Y15269D01*
X35350Y15355D01*
X35376Y15451D01*
Y15549D01*
X35350Y15645D01*
X35301Y15731D01*
X35231Y15801D01*
X35145Y15850D01*
X35049Y15876D01*
D02*
G37*
G36*
X32549D02*
X32451D01*
X32355Y15850D01*
X32269Y15801D01*
X32199Y15731D01*
X32150Y15645D01*
X32124Y15549D01*
Y15451D01*
X32150Y15355D01*
X32199Y15269D01*
X32269Y15199D01*
X32355Y15150D01*
X32451Y15124D01*
X32549D01*
X32645Y15150D01*
X32731Y15199D01*
X32801Y15269D01*
X32850Y15355D01*
X32876Y15451D01*
Y15549D01*
X32850Y15645D01*
X32801Y15731D01*
X32731Y15801D01*
X32645Y15850D01*
X32549Y15876D01*
D02*
G37*
G36*
X19366Y15137D02*
X18634D01*
Y14406D01*
X19366D01*
Y15137D01*
D02*
G37*
G36*
X41553Y14399D02*
X41447D01*
X41346Y14372D01*
X41255Y14319D01*
X41181Y14245D01*
X41128Y14154D01*
X41101Y14053D01*
Y13947D01*
X41128Y13846D01*
X41181Y13755D01*
X41255Y13681D01*
X41346Y13628D01*
X41447Y13601D01*
X41553D01*
X41654Y13628D01*
X41745Y13681D01*
X41819Y13755D01*
X41872Y13846D01*
X41899Y13947D01*
Y14053D01*
X41872Y14154D01*
X41819Y14245D01*
X41745Y14319D01*
X41654Y14372D01*
X41553Y14399D01*
D02*
G37*
G36*
X40055Y21415D02*
X39945D01*
X39840Y21387D01*
X39745Y21332D01*
X39668Y21255D01*
X39613Y21160D01*
X39585Y21055D01*
Y20945D01*
X39613Y20840D01*
X39668Y20745D01*
X39745Y20668D01*
X39840Y20613D01*
X39945Y20585D01*
X40055D01*
X40083Y20593D01*
X40271Y20405D01*
Y14095D01*
X39526Y13350D01*
X39454D01*
X39365Y13326D01*
X39285Y13280D01*
X39220Y13215D01*
X39174Y13135D01*
X39150Y13046D01*
Y12954D01*
X39174Y12865D01*
X39220Y12785D01*
X39285Y12720D01*
X39365Y12674D01*
X39454Y12650D01*
X39546D01*
X39635Y12674D01*
X39715Y12720D01*
X39780Y12785D01*
X39826Y12865D01*
X39850Y12954D01*
Y13026D01*
X40662Y13838D01*
X40712Y13912D01*
X40729Y14000D01*
Y20500D01*
X40712Y20588D01*
X40662Y20662D01*
X40407Y20917D01*
X40415Y20945D01*
Y21055D01*
X40387Y21160D01*
X40332Y21255D01*
X40255Y21332D01*
X40160Y21387D01*
X40055Y21415D01*
D02*
G37*
G36*
X41553Y13399D02*
X41447D01*
X41346Y13372D01*
X41255Y13319D01*
X41181Y13245D01*
X41128Y13154D01*
X41101Y13053D01*
Y12947D01*
X41128Y12846D01*
X41181Y12755D01*
X41255Y12681D01*
X41346Y12628D01*
X41447Y12601D01*
X41553D01*
X41654Y12628D01*
X41745Y12681D01*
X41819Y12755D01*
X41872Y12846D01*
X41899Y12947D01*
Y13053D01*
X41872Y13154D01*
X41819Y13245D01*
X41745Y13319D01*
X41654Y13372D01*
X41553Y13399D01*
D02*
G37*
G36*
X36853D02*
X36747D01*
X36646Y13372D01*
X36555Y13319D01*
X36481Y13245D01*
X36428Y13154D01*
X36401Y13053D01*
Y12947D01*
X36428Y12846D01*
X36481Y12755D01*
X36555Y12681D01*
X36646Y12628D01*
X36747Y12601D01*
X36853D01*
X36954Y12628D01*
X37045Y12681D01*
X37119Y12755D01*
X37172Y12846D01*
X37199Y12947D01*
Y13053D01*
X37172Y13154D01*
X37119Y13245D01*
X37045Y13319D01*
X36954Y13372D01*
X36853Y13399D01*
D02*
G37*
G36*
X34055Y21415D02*
X33945D01*
X33840Y21387D01*
X33745Y21332D01*
X33668Y21255D01*
X33613Y21160D01*
X33585Y21055D01*
Y20945D01*
X33613Y20840D01*
X33668Y20745D01*
X33745Y20668D01*
X33771Y20653D01*
Y13800D01*
X33788Y13712D01*
X33838Y13638D01*
X34405Y13070D01*
X34401Y13053D01*
Y12947D01*
X34428Y12846D01*
X34481Y12755D01*
X34555Y12681D01*
X34646Y12628D01*
X34747Y12601D01*
X34853D01*
X34954Y12628D01*
X35045Y12681D01*
X35119Y12755D01*
X35172Y12846D01*
X35199Y12947D01*
Y13053D01*
X35172Y13154D01*
X35119Y13245D01*
X35045Y13319D01*
X34954Y13372D01*
X34853Y13399D01*
X34747D01*
X34730Y13395D01*
X34229Y13895D01*
Y20653D01*
X34255Y20668D01*
X34332Y20745D01*
X34387Y20840D01*
X34415Y20945D01*
Y21055D01*
X34387Y21160D01*
X34332Y21255D01*
X34255Y21332D01*
X34160Y21387D01*
X34055Y21415D01*
D02*
G37*
G36*
X32853Y13399D02*
X32747D01*
X32646Y13372D01*
X32555Y13319D01*
X32481Y13245D01*
X32428Y13154D01*
X32401Y13053D01*
Y12947D01*
X32428Y12846D01*
X32481Y12755D01*
X32555Y12681D01*
X32646Y12628D01*
X32747Y12601D01*
X32853D01*
X32954Y12628D01*
X33045Y12681D01*
X33119Y12755D01*
X33172Y12846D01*
X33199Y12947D01*
Y13053D01*
X33172Y13154D01*
X33119Y13245D01*
X33045Y13319D01*
X32954Y13372D01*
X32853Y13399D01*
D02*
G37*
G36*
X31853D02*
X31747D01*
X31646Y13372D01*
X31555Y13319D01*
X31481Y13245D01*
X31428Y13154D01*
X31401Y13053D01*
Y12947D01*
X31428Y12846D01*
X31481Y12755D01*
X31555Y12681D01*
X31646Y12628D01*
X31747Y12601D01*
X31853D01*
X31954Y12628D01*
X32045Y12681D01*
X32119Y12755D01*
X32172Y12846D01*
X32199Y12947D01*
Y13053D01*
X32172Y13154D01*
X32119Y13245D01*
X32045Y13319D01*
X31954Y13372D01*
X31853Y13399D01*
D02*
G37*
G36*
X30853D02*
X30747D01*
X30646Y13372D01*
X30555Y13319D01*
X30481Y13245D01*
X30428Y13154D01*
X30401Y13053D01*
Y12947D01*
X30428Y12846D01*
X30481Y12755D01*
X30555Y12681D01*
X30646Y12628D01*
X30747Y12601D01*
X30853D01*
X30954Y12628D01*
X31045Y12681D01*
X31119Y12755D01*
X31172Y12846D01*
X31199Y12947D01*
Y13053D01*
X31172Y13154D01*
X31119Y13245D01*
X31045Y13319D01*
X30954Y13372D01*
X30853Y13399D01*
D02*
G37*
G36*
X29853D02*
X29747D01*
X29646Y13372D01*
X29555Y13319D01*
X29481Y13245D01*
X29428Y13154D01*
X29401Y13053D01*
Y12947D01*
X29428Y12846D01*
X29481Y12755D01*
X29555Y12681D01*
X29646Y12628D01*
X29747Y12601D01*
X29853D01*
X29954Y12628D01*
X30045Y12681D01*
X30119Y12755D01*
X30172Y12846D01*
X30199Y12947D01*
Y13053D01*
X30172Y13154D01*
X30119Y13245D01*
X30045Y13319D01*
X29954Y13372D01*
X29853Y13399D01*
D02*
G37*
G36*
X28853D02*
X28747D01*
X28646Y13372D01*
X28555Y13319D01*
X28481Y13245D01*
X28428Y13154D01*
X28401Y13053D01*
Y12947D01*
X28428Y12846D01*
X28481Y12755D01*
X28555Y12681D01*
X28646Y12628D01*
X28747Y12601D01*
X28853D01*
X28954Y12628D01*
X29045Y12681D01*
X29119Y12755D01*
X29172Y12846D01*
X29199Y12947D01*
Y13053D01*
X29172Y13154D01*
X29119Y13245D01*
X29045Y13319D01*
X28954Y13372D01*
X28853Y13399D01*
D02*
G37*
G36*
X27853D02*
X27747D01*
X27646Y13372D01*
X27555Y13319D01*
X27481Y13245D01*
X27428Y13154D01*
X27401Y13053D01*
Y12947D01*
X27428Y12846D01*
X27481Y12755D01*
X27555Y12681D01*
X27646Y12628D01*
X27747Y12601D01*
X27853D01*
X27954Y12628D01*
X28045Y12681D01*
X28119Y12755D01*
X28172Y12846D01*
X28199Y12947D01*
Y13053D01*
X28172Y13154D01*
X28119Y13245D01*
X28045Y13319D01*
X27954Y13372D01*
X27853Y13399D01*
D02*
G37*
G36*
X26853D02*
X26747D01*
X26646Y13372D01*
X26555Y13319D01*
X26481Y13245D01*
X26428Y13154D01*
X26401Y13053D01*
Y12947D01*
X26428Y12846D01*
X26481Y12755D01*
X26555Y12681D01*
X26646Y12628D01*
X26747Y12601D01*
X26853D01*
X26954Y12628D01*
X27045Y12681D01*
X27119Y12755D01*
X27172Y12846D01*
X27199Y12947D01*
Y13053D01*
X27172Y13154D01*
X27119Y13245D01*
X27045Y13319D01*
X26954Y13372D01*
X26853Y13399D01*
D02*
G37*
G36*
X25853D02*
X25747D01*
X25646Y13372D01*
X25555Y13319D01*
X25481Y13245D01*
X25428Y13154D01*
X25401Y13053D01*
Y12947D01*
X25428Y12846D01*
X25481Y12755D01*
X25555Y12681D01*
X25646Y12628D01*
X25747Y12601D01*
X25853D01*
X25954Y12628D01*
X26045Y12681D01*
X26119Y12755D01*
X26172Y12846D01*
X26199Y12947D01*
Y13053D01*
X26172Y13154D01*
X26119Y13245D01*
X26045Y13319D01*
X25954Y13372D01*
X25853Y13399D01*
D02*
G37*
G36*
X24853D02*
X24747D01*
X24646Y13372D01*
X24555Y13319D01*
X24481Y13245D01*
X24428Y13154D01*
X24401Y13053D01*
Y12947D01*
X24428Y12846D01*
X24481Y12755D01*
X24555Y12681D01*
X24646Y12628D01*
X24747Y12601D01*
X24853D01*
X24954Y12628D01*
X25045Y12681D01*
X25119Y12755D01*
X25172Y12846D01*
X25199Y12947D01*
Y13053D01*
X25172Y13154D01*
X25119Y13245D01*
X25045Y13319D01*
X24954Y13372D01*
X24853Y13399D01*
D02*
G37*
G36*
X41553Y12399D02*
X41447D01*
X41346Y12372D01*
X41255Y12319D01*
X41181Y12245D01*
X41128Y12154D01*
X41101Y12053D01*
Y11947D01*
X41128Y11846D01*
X41181Y11755D01*
X41255Y11681D01*
X41346Y11628D01*
X41447Y11601D01*
X41553D01*
X41654Y11628D01*
X41745Y11681D01*
X41819Y11755D01*
X41872Y11846D01*
X41899Y11947D01*
Y12053D01*
X41872Y12154D01*
X41819Y12245D01*
X41745Y12319D01*
X41654Y12372D01*
X41553Y12399D01*
D02*
G37*
G36*
Y11399D02*
X41447D01*
X41346Y11372D01*
X41255Y11319D01*
X41181Y11245D01*
X41128Y11154D01*
X41101Y11053D01*
Y10947D01*
X41128Y10846D01*
X41181Y10755D01*
X41255Y10681D01*
X41346Y10628D01*
X41447Y10601D01*
X41553D01*
X41654Y10628D01*
X41745Y10681D01*
X41819Y10755D01*
X41872Y10846D01*
X41899Y10947D01*
Y11053D01*
X41872Y11154D01*
X41819Y11245D01*
X41745Y11319D01*
X41654Y11372D01*
X41553Y11399D01*
D02*
G37*
G36*
X17552Y18395D02*
X17448D01*
X17347Y18368D01*
X17257Y18316D01*
X17184Y18243D01*
X17132Y18153D01*
X17105Y18052D01*
Y17948D01*
X17132Y17847D01*
X17184Y17757D01*
X17257Y17684D01*
X17347Y17632D01*
X17448Y17605D01*
X17552D01*
X17567Y17609D01*
X17791Y17385D01*
Y17014D01*
Y13833D01*
X17767Y13824D01*
X17741Y13817D01*
X17653Y13868D01*
X17552Y13895D01*
X17448D01*
X17347Y13868D01*
X17257Y13816D01*
X17184Y13743D01*
X17132Y13653D01*
X17105Y13552D01*
Y13448D01*
X17132Y13347D01*
X17184Y13257D01*
X17257Y13184D01*
X17347Y13132D01*
X17448Y13105D01*
X17552D01*
X17653Y13132D01*
X17741Y13183D01*
X17767Y13176D01*
X17791Y13167D01*
Y13115D01*
X17567Y12891D01*
X17552Y12895D01*
X17448D01*
X17347Y12868D01*
X17257Y12816D01*
X17184Y12743D01*
X17132Y12653D01*
X17105Y12552D01*
Y12448D01*
X17132Y12347D01*
X17184Y12257D01*
X17257Y12184D01*
X17271Y12176D01*
Y10356D01*
X17288Y10269D01*
X17338Y10194D01*
X17791Y9741D01*
Y8333D01*
X17767Y8324D01*
X17741Y8317D01*
X17653Y8368D01*
X17552Y8395D01*
X17448D01*
X17347Y8368D01*
X17257Y8316D01*
X17184Y8243D01*
X17132Y8153D01*
X17105Y8052D01*
Y7948D01*
X17132Y7847D01*
X17184Y7757D01*
X17257Y7684D01*
X17347Y7632D01*
X17448Y7605D01*
X17552D01*
X17653Y7632D01*
X17741Y7683D01*
X17767Y7676D01*
X17791Y7667D01*
Y7615D01*
X17567Y7391D01*
X17552Y7395D01*
X17448D01*
X17347Y7368D01*
X17257Y7316D01*
X17184Y7243D01*
X17132Y7153D01*
X17105Y7052D01*
Y6948D01*
X17132Y6847D01*
X17184Y6757D01*
X17257Y6684D01*
X17347Y6632D01*
X17448Y6605D01*
X17552D01*
X17653Y6632D01*
X17743Y6684D01*
X17816Y6757D01*
X17868Y6847D01*
X17895Y6948D01*
Y7052D01*
X17891Y7067D01*
X18182Y7358D01*
X18232Y7432D01*
X18250Y7520D01*
Y9836D01*
X18232Y9924D01*
X18182Y9998D01*
X17729Y10451D01*
Y12176D01*
X17743Y12184D01*
X17816Y12257D01*
X17868Y12347D01*
X17895Y12448D01*
Y12552D01*
X17891Y12567D01*
X18182Y12858D01*
X18232Y12932D01*
X18250Y13020D01*
Y16395D01*
X18296Y16414D01*
X19266Y15444D01*
X19340Y15394D01*
X19428Y15377D01*
X20226D01*
X20281Y15322D01*
X20363Y15275D01*
X20453Y15250D01*
X20531D01*
X21944Y13838D01*
X22019Y13788D01*
X22106Y13771D01*
X22705D01*
X23030Y13445D01*
X23011Y13399D01*
X22401D01*
Y12601D01*
X23199D01*
Y13211D01*
X23245Y13230D01*
X23405Y13070D01*
X23401Y13053D01*
Y12947D01*
X23428Y12846D01*
X23481Y12755D01*
X23555Y12681D01*
X23571Y12671D01*
Y10281D01*
X23588Y10194D01*
X23638Y10119D01*
X23642Y10115D01*
X23624Y10049D01*
Y9951D01*
X23650Y9855D01*
X23699Y9769D01*
X23769Y9699D01*
X23855Y9650D01*
X23951Y9624D01*
X24049D01*
X24145Y9650D01*
X24231Y9699D01*
X24301Y9769D01*
X24301Y9771D01*
X25199D01*
X25199Y9769D01*
X25269Y9699D01*
X25355Y9650D01*
X25451Y9624D01*
X25549D01*
X25645Y9650D01*
X25731Y9699D01*
X25801Y9769D01*
X25850Y9855D01*
X25876Y9951D01*
Y10049D01*
X25850Y10145D01*
X25801Y10231D01*
X25731Y10301D01*
X25645Y10350D01*
X25549Y10376D01*
X25451D01*
X25355Y10350D01*
X25269Y10301D01*
X25199Y10231D01*
X25199Y10229D01*
X24301D01*
X24301Y10231D01*
X24231Y10301D01*
X24145Y10350D01*
X24049Y10376D01*
X24030D01*
X24029Y10377D01*
Y12671D01*
X24045Y12681D01*
X24119Y12755D01*
X24172Y12846D01*
X24199Y12947D01*
Y13053D01*
X24172Y13154D01*
X24119Y13245D01*
X24045Y13319D01*
X24029Y13329D01*
Y15311D01*
X25469Y16750D01*
X25547D01*
X25637Y16775D01*
X25719Y16822D01*
X25785Y16888D01*
X25832Y16969D01*
X25856Y17059D01*
Y17153D01*
X25832Y17244D01*
X25785Y17325D01*
X25719Y17391D01*
X25637Y17438D01*
X25547Y17462D01*
X25453D01*
X25363Y17438D01*
X25281Y17391D01*
X25215Y17325D01*
X25168Y17244D01*
X25144Y17153D01*
Y17075D01*
X23638Y15569D01*
X23588Y15494D01*
X23571Y15406D01*
Y13619D01*
X23524Y13600D01*
X22962Y14162D01*
X22888Y14212D01*
X22800Y14229D01*
X22201D01*
X20856Y15575D01*
Y15653D01*
X20832Y15744D01*
X20785Y15825D01*
X20719Y15891D01*
X20637Y15938D01*
X20547Y15962D01*
X20453D01*
X20363Y15938D01*
X20281Y15891D01*
X20226Y15836D01*
X19523D01*
X19042Y16317D01*
X19063Y16367D01*
X19141Y16388D01*
X19225Y16436D01*
X19293Y16504D01*
X19341Y16587D01*
X19366Y16680D01*
Y16776D01*
X19341Y16870D01*
X19293Y16953D01*
X19225Y17021D01*
X19141Y17069D01*
X19048Y17094D01*
X18952D01*
X18859Y17069D01*
X18775Y17021D01*
X18707Y16953D01*
X18659Y16870D01*
X18638Y16791D01*
X18588Y16770D01*
X18250Y17109D01*
Y17480D01*
X18232Y17568D01*
X18182Y17642D01*
X17891Y17933D01*
X17895Y17948D01*
Y18052D01*
X17868Y18153D01*
X17816Y18243D01*
X17743Y18316D01*
X17653Y18368D01*
X17552Y18395D01*
D02*
G37*
G36*
X41553Y10399D02*
X41447D01*
X41346Y10372D01*
X41255Y10319D01*
X41181Y10245D01*
X41128Y10154D01*
X41101Y10053D01*
Y9947D01*
X41128Y9846D01*
X41181Y9755D01*
X41255Y9681D01*
X41346Y9628D01*
X41447Y9601D01*
X41553D01*
X41654Y9628D01*
X41745Y9681D01*
X41819Y9755D01*
X41872Y9846D01*
X41899Y9947D01*
Y10053D01*
X41872Y10154D01*
X41819Y10245D01*
X41745Y10319D01*
X41654Y10372D01*
X41553Y10399D01*
D02*
G37*
G36*
Y9399D02*
X41447D01*
X41346Y9372D01*
X41255Y9319D01*
X41181Y9245D01*
X41128Y9154D01*
X41101Y9053D01*
Y8947D01*
X41128Y8846D01*
X41181Y8755D01*
X41255Y8681D01*
X41346Y8628D01*
X41447Y8601D01*
X41553D01*
X41654Y8628D01*
X41745Y8681D01*
X41819Y8755D01*
X41872Y8846D01*
X41899Y8947D01*
Y9053D01*
X41872Y9154D01*
X41819Y9245D01*
X41745Y9319D01*
X41654Y9372D01*
X41553Y9399D01*
D02*
G37*
G36*
Y8399D02*
X41447D01*
X41346Y8372D01*
X41255Y8319D01*
X41181Y8245D01*
X41128Y8154D01*
X41101Y8053D01*
Y7947D01*
X41128Y7846D01*
X41181Y7755D01*
X41255Y7681D01*
X41346Y7628D01*
X41447Y7601D01*
X41553D01*
X41654Y7628D01*
X41745Y7681D01*
X41819Y7755D01*
X41872Y7846D01*
X41899Y7947D01*
Y8053D01*
X41872Y8154D01*
X41819Y8245D01*
X41745Y8319D01*
X41654Y8372D01*
X41553Y8399D01*
D02*
G37*
G36*
Y7399D02*
X41447D01*
X41346Y7372D01*
X41255Y7319D01*
X41181Y7245D01*
X41171Y7229D01*
X37900D01*
X37812Y7212D01*
X37738Y7162D01*
X33870Y3295D01*
X33853Y3299D01*
X33747D01*
X33646Y3272D01*
X33555Y3219D01*
X33481Y3145D01*
X33428Y3054D01*
X33401Y2953D01*
Y2847D01*
X33428Y2746D01*
X33481Y2655D01*
X33555Y2581D01*
X33646Y2528D01*
X33747Y2501D01*
X33853D01*
X33954Y2528D01*
X34045Y2581D01*
X34119Y2655D01*
X34172Y2746D01*
X34199Y2847D01*
Y2953D01*
X34195Y2970D01*
X37995Y6771D01*
X41171D01*
X41181Y6755D01*
X41255Y6681D01*
X41346Y6628D01*
X41447Y6601D01*
X41553D01*
X41654Y6628D01*
X41745Y6681D01*
X41819Y6755D01*
X41872Y6846D01*
X41899Y6947D01*
Y7053D01*
X41872Y7154D01*
X41819Y7245D01*
X41745Y7319D01*
X41654Y7372D01*
X41553Y7399D01*
D02*
G37*
G36*
X27049Y6376D02*
X26951D01*
X26855Y6350D01*
X26769Y6301D01*
X26699Y6231D01*
X26699Y6229D01*
X25801D01*
X25801Y6231D01*
X25731Y6301D01*
X25645Y6350D01*
X25549Y6376D01*
X25451D01*
X25355Y6350D01*
X25269Y6301D01*
X25199Y6231D01*
X25150Y6145D01*
X25124Y6049D01*
Y5951D01*
X25150Y5855D01*
X25199Y5769D01*
X25269Y5699D01*
X25271Y5699D01*
Y3294D01*
X25288Y3206D01*
X25338Y3132D01*
X25425Y3044D01*
X25401Y2953D01*
Y2847D01*
X25428Y2746D01*
X25481Y2655D01*
X25555Y2581D01*
X25646Y2528D01*
X25747Y2501D01*
X25853D01*
X25954Y2528D01*
X26045Y2581D01*
X26119Y2655D01*
X26172Y2746D01*
X26199Y2847D01*
Y2953D01*
X26172Y3054D01*
X26119Y3145D01*
X26045Y3219D01*
X25954Y3272D01*
X25853Y3299D01*
X25819D01*
X25729Y3389D01*
Y5699D01*
X25731Y5699D01*
X25801Y5769D01*
X25801Y5771D01*
X26699D01*
X26699Y5769D01*
X26769Y5699D01*
X26855Y5650D01*
X26951Y5624D01*
X27049D01*
X27145Y5650D01*
X27231Y5699D01*
X27301Y5769D01*
X27350Y5855D01*
X27376Y5951D01*
Y6049D01*
X27350Y6145D01*
X27301Y6231D01*
X27231Y6301D01*
X27145Y6350D01*
X27049Y6376D01*
D02*
G37*
G36*
X30053Y6527D02*
X29947D01*
X29844Y6500D01*
X29751Y6446D01*
X29676Y6371D01*
X29622Y6278D01*
X29595Y6175D01*
Y6069D01*
X29622Y5966D01*
X29676Y5873D01*
X29751Y5798D01*
X29844Y5745D01*
X29947Y5717D01*
X30053D01*
X30156Y5745D01*
X30249Y5798D01*
X30324Y5873D01*
X30378Y5966D01*
X30405Y6069D01*
Y6175D01*
X30378Y6278D01*
X30324Y6371D01*
X30249Y6446D01*
X30156Y6500D01*
X30053Y6527D01*
D02*
G37*
G36*
X24049Y6376D02*
X23951D01*
X23855Y6350D01*
X23769Y6301D01*
X23699Y6231D01*
X23650Y6145D01*
X23624Y6049D01*
Y5951D01*
X23650Y5855D01*
X23699Y5769D01*
X23769Y5699D01*
X23855Y5650D01*
X23951Y5624D01*
X24049D01*
X24145Y5650D01*
X24231Y5699D01*
X24301Y5769D01*
X24350Y5855D01*
X24376Y5951D01*
Y6049D01*
X24350Y6145D01*
X24301Y6231D01*
X24231Y6301D01*
X24145Y6350D01*
X24049Y6376D01*
D02*
G37*
G36*
X41553Y6399D02*
X41447D01*
X41346Y6372D01*
X41255Y6319D01*
X41181Y6245D01*
X41171Y6229D01*
X37900D01*
X37812Y6212D01*
X37738Y6162D01*
X34870Y3295D01*
X34853Y3299D01*
X34747D01*
X34646Y3272D01*
X34555Y3219D01*
X34481Y3145D01*
X34428Y3054D01*
X34401Y2953D01*
Y2847D01*
X34428Y2746D01*
X34481Y2655D01*
X34555Y2581D01*
X34646Y2528D01*
X34747Y2501D01*
X34853D01*
X34954Y2528D01*
X35045Y2581D01*
X35119Y2655D01*
X35172Y2746D01*
X35199Y2847D01*
Y2953D01*
X35195Y2970D01*
X37995Y5771D01*
X41171D01*
X41181Y5755D01*
X41255Y5681D01*
X41346Y5628D01*
X41447Y5601D01*
X41553D01*
X41654Y5628D01*
X41745Y5681D01*
X41819Y5755D01*
X41872Y5846D01*
X41899Y5947D01*
Y6053D01*
X41872Y6154D01*
X41819Y6245D01*
X41745Y6319D01*
X41654Y6372D01*
X41553Y6399D01*
D02*
G37*
G36*
X19048Y11594D02*
X18952D01*
X18859Y11569D01*
X18775Y11521D01*
X18707Y11453D01*
X18659Y11370D01*
X18634Y11276D01*
Y11180D01*
X18659Y11087D01*
X18707Y11004D01*
X18771Y10941D01*
Y10278D01*
X18788Y10190D01*
X18838Y10116D01*
X19261Y9692D01*
Y9637D01*
X18634D01*
Y8906D01*
X19261D01*
Y6314D01*
X19041Y6094D01*
X18952D01*
X18859Y6069D01*
X18775Y6021D01*
X18707Y5953D01*
X18659Y5870D01*
X18634Y5776D01*
Y5680D01*
X18659Y5587D01*
X18707Y5504D01*
X18775Y5436D01*
X18859Y5388D01*
X18952Y5363D01*
X19048D01*
X19141Y5388D01*
X19225Y5436D01*
X19293Y5504D01*
X19341Y5587D01*
X19366Y5680D01*
Y5770D01*
X19653Y6057D01*
X19703Y6131D01*
X19720Y6219D01*
Y9787D01*
X19703Y9875D01*
X19653Y9949D01*
X19229Y10373D01*
Y10941D01*
X19293Y11004D01*
X19341Y11087D01*
X19366Y11180D01*
Y11276D01*
X19341Y11370D01*
X19293Y11453D01*
X19225Y11521D01*
X19141Y11569D01*
X19048Y11594D01*
D02*
G37*
G36*
X41553Y5399D02*
X41447D01*
X41346Y5372D01*
X41255Y5319D01*
X41181Y5245D01*
X41128Y5154D01*
X41101Y5053D01*
Y4947D01*
X41128Y4846D01*
X41181Y4755D01*
X41255Y4681D01*
X41346Y4628D01*
X41447Y4601D01*
X41553D01*
X41654Y4628D01*
X41745Y4681D01*
X41819Y4755D01*
X41872Y4846D01*
X41899Y4947D01*
Y5053D01*
X41872Y5154D01*
X41819Y5245D01*
X41745Y5319D01*
X41654Y5372D01*
X41553Y5399D01*
D02*
G37*
G36*
Y4399D02*
X41447D01*
X41346Y4372D01*
X41255Y4319D01*
X41181Y4245D01*
X41128Y4154D01*
X41101Y4053D01*
Y3947D01*
X41128Y3846D01*
X41181Y3755D01*
X41255Y3681D01*
X41346Y3628D01*
X41447Y3601D01*
X41553D01*
X41654Y3628D01*
X41745Y3681D01*
X41819Y3755D01*
X41872Y3846D01*
X41899Y3947D01*
Y4053D01*
X41872Y4154D01*
X41819Y4245D01*
X41745Y4319D01*
X41654Y4372D01*
X41553Y4399D01*
D02*
G37*
G36*
X41899Y3399D02*
X41101D01*
Y2601D01*
X41899D01*
Y3399D01*
D02*
G37*
G36*
X37853Y3299D02*
X37747D01*
X37646Y3272D01*
X37555Y3219D01*
X37481Y3145D01*
X37428Y3054D01*
X37401Y2953D01*
Y2847D01*
X37428Y2746D01*
X37481Y2655D01*
X37555Y2581D01*
X37646Y2528D01*
X37747Y2501D01*
X37853D01*
X37954Y2528D01*
X38045Y2581D01*
X38119Y2655D01*
X38172Y2746D01*
X38199Y2847D01*
Y2953D01*
X38172Y3054D01*
X38119Y3145D01*
X38045Y3219D01*
X37954Y3272D01*
X37853Y3299D01*
D02*
G37*
G36*
X36853D02*
X36747D01*
X36646Y3272D01*
X36555Y3219D01*
X36481Y3145D01*
X36428Y3054D01*
X36401Y2953D01*
Y2847D01*
X36428Y2746D01*
X36481Y2655D01*
X36555Y2581D01*
X36646Y2528D01*
X36747Y2501D01*
X36853D01*
X36954Y2528D01*
X37045Y2581D01*
X37119Y2655D01*
X37172Y2746D01*
X37199Y2847D01*
Y2953D01*
X37172Y3054D01*
X37119Y3145D01*
X37045Y3219D01*
X36954Y3272D01*
X36853Y3299D01*
D02*
G37*
G36*
X35853D02*
X35747D01*
X35646Y3272D01*
X35555Y3219D01*
X35481Y3145D01*
X35428Y3054D01*
X35401Y2953D01*
Y2847D01*
X35428Y2746D01*
X35481Y2655D01*
X35555Y2581D01*
X35646Y2528D01*
X35747Y2501D01*
X35853D01*
X35954Y2528D01*
X36045Y2581D01*
X36119Y2655D01*
X36172Y2746D01*
X36199Y2847D01*
Y2953D01*
X36172Y3054D01*
X36119Y3145D01*
X36045Y3219D01*
X35954Y3272D01*
X35853Y3299D01*
D02*
G37*
G36*
X32853D02*
X32747D01*
X32646Y3272D01*
X32555Y3219D01*
X32481Y3145D01*
X32428Y3054D01*
X32401Y2953D01*
Y2847D01*
X32428Y2746D01*
X32481Y2655D01*
X32555Y2581D01*
X32646Y2528D01*
X32747Y2501D01*
X32853D01*
X32954Y2528D01*
X33045Y2581D01*
X33119Y2655D01*
X33172Y2746D01*
X33199Y2847D01*
Y2953D01*
X33172Y3054D01*
X33119Y3145D01*
X33045Y3219D01*
X32954Y3272D01*
X32853Y3299D01*
D02*
G37*
G36*
X31853D02*
X31747D01*
X31646Y3272D01*
X31555Y3219D01*
X31481Y3145D01*
X31428Y3054D01*
X31401Y2953D01*
Y2847D01*
X31428Y2746D01*
X31481Y2655D01*
X31555Y2581D01*
X31646Y2528D01*
X31747Y2501D01*
X31853D01*
X31954Y2528D01*
X32045Y2581D01*
X32119Y2655D01*
X32172Y2746D01*
X32199Y2847D01*
Y2953D01*
X32172Y3054D01*
X32119Y3145D01*
X32045Y3219D01*
X31954Y3272D01*
X31853Y3299D01*
D02*
G37*
G36*
X30853D02*
X30747D01*
X30646Y3272D01*
X30555Y3219D01*
X30481Y3145D01*
X30428Y3054D01*
X30401Y2953D01*
Y2847D01*
X30428Y2746D01*
X30481Y2655D01*
X30555Y2581D01*
X30646Y2528D01*
X30747Y2501D01*
X30853D01*
X30954Y2528D01*
X31045Y2581D01*
X31119Y2655D01*
X31172Y2746D01*
X31199Y2847D01*
Y2953D01*
X31172Y3054D01*
X31119Y3145D01*
X31045Y3219D01*
X30954Y3272D01*
X30853Y3299D01*
D02*
G37*
G36*
X29853D02*
X29747D01*
X29646Y3272D01*
X29555Y3219D01*
X29481Y3145D01*
X29428Y3054D01*
X29401Y2953D01*
Y2847D01*
X29428Y2746D01*
X29481Y2655D01*
X29555Y2581D01*
X29646Y2528D01*
X29747Y2501D01*
X29853D01*
X29954Y2528D01*
X30045Y2581D01*
X30119Y2655D01*
X30172Y2746D01*
X30199Y2847D01*
Y2953D01*
X30172Y3054D01*
X30119Y3145D01*
X30045Y3219D01*
X29954Y3272D01*
X29853Y3299D01*
D02*
G37*
G36*
X28853D02*
X28747D01*
X28646Y3272D01*
X28555Y3219D01*
X28481Y3145D01*
X28428Y3054D01*
X28401Y2953D01*
Y2847D01*
X28428Y2746D01*
X28481Y2655D01*
X28555Y2581D01*
X28646Y2528D01*
X28747Y2501D01*
X28853D01*
X28954Y2528D01*
X29045Y2581D01*
X29119Y2655D01*
X29172Y2746D01*
X29199Y2847D01*
Y2953D01*
X29172Y3054D01*
X29119Y3145D01*
X29045Y3219D01*
X28954Y3272D01*
X28853Y3299D01*
D02*
G37*
G36*
X27853D02*
X27747D01*
X27646Y3272D01*
X27555Y3219D01*
X27481Y3145D01*
X27428Y3054D01*
X27401Y2953D01*
Y2847D01*
X27428Y2746D01*
X27481Y2655D01*
X27555Y2581D01*
X27646Y2528D01*
X27747Y2501D01*
X27853D01*
X27954Y2528D01*
X28045Y2581D01*
X28119Y2655D01*
X28172Y2746D01*
X28199Y2847D01*
Y2953D01*
X28172Y3054D01*
X28119Y3145D01*
X28045Y3219D01*
X27954Y3272D01*
X27853Y3299D01*
D02*
G37*
G36*
X26853D02*
X26747D01*
X26646Y3272D01*
X26555Y3219D01*
X26481Y3145D01*
X26428Y3054D01*
X26401Y2953D01*
Y2847D01*
X26428Y2746D01*
X26481Y2655D01*
X26555Y2581D01*
X26646Y2528D01*
X26747Y2501D01*
X26853D01*
X26954Y2528D01*
X27045Y2581D01*
X27119Y2655D01*
X27172Y2746D01*
X27199Y2847D01*
Y2953D01*
X27172Y3054D01*
X27119Y3145D01*
X27045Y3219D01*
X26954Y3272D01*
X26853Y3299D01*
D02*
G37*
G36*
X24853D02*
X24747D01*
X24646Y3272D01*
X24555Y3219D01*
X24481Y3145D01*
X24428Y3054D01*
X24401Y2953D01*
Y2847D01*
X24428Y2746D01*
X24481Y2655D01*
X24555Y2581D01*
X24646Y2528D01*
X24747Y2501D01*
X24853D01*
X24954Y2528D01*
X25045Y2581D01*
X25119Y2655D01*
X25172Y2746D01*
X25199Y2847D01*
Y2953D01*
X25172Y3054D01*
X25119Y3145D01*
X25045Y3219D01*
X24954Y3272D01*
X24853Y3299D01*
D02*
G37*
G36*
X23853D02*
X23747D01*
X23646Y3272D01*
X23555Y3219D01*
X23481Y3145D01*
X23428Y3054D01*
X23401Y2953D01*
Y2847D01*
X23428Y2746D01*
X23481Y2655D01*
X23555Y2581D01*
X23646Y2528D01*
X23747Y2501D01*
X23853D01*
X23954Y2528D01*
X24045Y2581D01*
X24119Y2655D01*
X24172Y2746D01*
X24199Y2847D01*
Y2953D01*
X24172Y3054D01*
X24119Y3145D01*
X24045Y3219D01*
X23954Y3272D01*
X23853Y3299D01*
D02*
G37*
G36*
X23199D02*
X22401D01*
Y2501D01*
X23199D01*
Y3299D01*
D02*
G37*
G36*
X38249Y1976D02*
X38151D01*
X38055Y1950D01*
X37969Y1901D01*
X37899Y1831D01*
X37850Y1745D01*
X37824Y1649D01*
Y1551D01*
X37850Y1455D01*
X37899Y1369D01*
X37969Y1299D01*
X38055Y1250D01*
X38151Y1224D01*
X38249D01*
X38345Y1250D01*
X38431Y1299D01*
X38501Y1369D01*
X38550Y1455D01*
X38576Y1551D01*
Y1649D01*
X38550Y1745D01*
X38501Y1831D01*
X38431Y1901D01*
X38345Y1950D01*
X38249Y1976D01*
D02*
G37*
G36*
X34249D02*
X34151D01*
X34055Y1950D01*
X33969Y1901D01*
X33899Y1831D01*
X33850Y1745D01*
X33824Y1649D01*
Y1551D01*
X33850Y1455D01*
X33899Y1369D01*
X33969Y1299D01*
X34055Y1250D01*
X34151Y1224D01*
X34249D01*
X34345Y1250D01*
X34431Y1299D01*
X34501Y1369D01*
X34550Y1455D01*
X34576Y1551D01*
Y1649D01*
X34550Y1745D01*
X34501Y1831D01*
X34431Y1901D01*
X34345Y1950D01*
X34249Y1976D01*
D02*
G37*
G36*
X32849D02*
X32751D01*
X32655Y1950D01*
X32569Y1901D01*
X32499Y1831D01*
X32450Y1745D01*
X32424Y1649D01*
Y1551D01*
X32450Y1455D01*
X32499Y1369D01*
X32569Y1299D01*
X32655Y1250D01*
X32751Y1224D01*
X32849D01*
X32945Y1250D01*
X33031Y1299D01*
X33101Y1369D01*
X33150Y1455D01*
X33176Y1551D01*
Y1649D01*
X33150Y1745D01*
X33101Y1831D01*
X33031Y1901D01*
X32945Y1950D01*
X32849Y1976D01*
D02*
G37*
G36*
X28849D02*
X28751D01*
X28655Y1950D01*
X28569Y1901D01*
X28499Y1831D01*
X28450Y1745D01*
X28424Y1649D01*
Y1551D01*
X28450Y1455D01*
X28499Y1369D01*
X28569Y1299D01*
X28655Y1250D01*
X28751Y1224D01*
X28849D01*
X28945Y1250D01*
X29031Y1299D01*
X29101Y1369D01*
X29150Y1455D01*
X29176Y1551D01*
Y1649D01*
X29150Y1745D01*
X29101Y1831D01*
X29031Y1901D01*
X28945Y1950D01*
X28849Y1976D01*
D02*
G37*
%LPD*%
D16*
X5500Y6000D02*
D03*
Y11500D02*
D03*
Y17000D02*
D03*
D17*
Y7000D02*
D03*
X3500Y6000D02*
D03*
Y7000D02*
D03*
X5500Y12500D02*
D03*
X3500Y11500D02*
D03*
Y12500D02*
D03*
X5500Y18000D02*
D03*
X3500D02*
D03*
Y17000D02*
D03*
X11000Y16122D02*
D03*
Y19878D02*
D03*
Y10622D02*
D03*
Y14378D02*
D03*
Y5122D02*
D03*
Y8878D02*
D03*
X30000Y6122D02*
D03*
X22500Y15622D02*
D03*
Y19378D02*
D03*
X30000Y9878D02*
D03*
D33*
X2000Y8500D02*
D03*
Y14000D02*
D03*
Y19500D02*
D03*
Y3000D02*
D03*
X41500Y16500D02*
D03*
D34*
X22500Y20500D02*
D03*
D35*
X2000Y13000D02*
D03*
Y18500D02*
D03*
Y2000D02*
D03*
Y7500D02*
D03*
X41500Y17500D02*
D03*
X23500Y20500D02*
D03*
D38*
X30000Y9878D02*
X34985D01*
X37583Y12476D01*
X38017D01*
X38324Y12783D01*
X36999Y14542D02*
Y15707D01*
Y14542D02*
X38324Y13217D01*
Y12783D02*
Y13217D01*
X39500Y13000D02*
X40500Y14000D01*
X22106D02*
X22800D01*
X23800Y13000D01*
X20500Y15606D02*
X22106Y14000D01*
X23800Y10281D02*
Y13000D01*
X34000Y13800D02*
Y21000D01*
Y13800D02*
X34800Y13000D01*
X33220Y13580D02*
X33800Y13000D01*
X33220Y13580D02*
Y19488D01*
X35800Y13000D02*
Y20300D01*
X36500Y21000D01*
X23800Y10281D02*
X24000Y10081D01*
Y10000D02*
Y10081D01*
X40500Y14000D02*
Y20500D01*
X40000Y21000D02*
X40500Y20500D01*
X36999Y15707D02*
X38686Y17394D01*
X39500D01*
X38606Y16606D02*
X39500D01*
X37500Y15500D02*
X38606Y16606D01*
X31500Y21000D02*
X31573Y20927D01*
X31781D01*
X33220Y19488D01*
X23800Y15406D02*
X25500Y17106D01*
X23800Y13000D02*
Y15406D01*
X22500Y16569D02*
X25500Y19569D01*
X22500Y15622D02*
Y16569D01*
X25500Y19569D02*
Y20500D01*
X18020Y13020D02*
Y17014D01*
X19428Y15606D01*
X20500D01*
X18020Y17014D02*
Y17480D01*
X17500Y12500D02*
X18020Y13020D01*
X19000Y10278D02*
Y11228D01*
Y10278D02*
X19491Y9787D01*
Y6219D02*
Y9787D01*
X19000Y5728D02*
X19491Y6219D01*
X17500Y18000D02*
X18020Y17480D01*
X17500Y7000D02*
X18020Y7520D01*
X17500Y10356D02*
Y12500D01*
Y10356D02*
X18020Y9836D01*
Y7520D02*
Y9836D01*
X29780Y10000D02*
X29903Y9878D01*
X27000Y10000D02*
X29780D01*
X29903Y9878D02*
X30000D01*
X24000Y10000D02*
X25500D01*
Y3294D02*
Y6000D01*
Y3294D02*
X25800Y2994D01*
Y2900D02*
Y2994D01*
X25500Y6000D02*
X27000D01*
X34800Y2900D02*
X37900Y6000D01*
X41500D01*
X37900Y7000D02*
X41500D01*
X33800Y2900D02*
X37900Y7000D01*
X12500D02*
X14000Y5500D01*
X12500Y7000D02*
Y9000D01*
Y12500D02*
X14000Y11000D01*
X12500Y12500D02*
Y14500D01*
Y18000D02*
Y20000D01*
Y18000D02*
X14000Y16500D01*
D39*
X42750Y21800D02*
D03*
Y1200D02*
D03*
X5500Y21800D02*
D03*
D40*
Y1200D02*
D03*
D41*
X22800Y13000D02*
D03*
Y2900D02*
D03*
D42*
X26800Y13000D02*
D03*
X27800D02*
D03*
X25800D02*
D03*
X23800D02*
D03*
X33800D02*
D03*
X31800D02*
D03*
X28800D02*
D03*
X24800D02*
D03*
X29800D02*
D03*
X30800D02*
D03*
X32800D02*
D03*
X34800D02*
D03*
X35800D02*
D03*
X36800D02*
D03*
X37800D02*
D03*
X41500Y14000D02*
D03*
Y13000D02*
D03*
Y11000D02*
D03*
Y10000D02*
D03*
Y8000D02*
D03*
Y7000D02*
D03*
Y6000D02*
D03*
Y4000D02*
D03*
Y5000D02*
D03*
Y9000D02*
D03*
Y12000D02*
D03*
X33800Y2900D02*
D03*
X31800D02*
D03*
X29800D02*
D03*
X30800D02*
D03*
X32800D02*
D03*
X34800D02*
D03*
X35800D02*
D03*
X36800D02*
D03*
X25800D02*
D03*
X28800D02*
D03*
X24800D02*
D03*
X23800D02*
D03*
X26800D02*
D03*
X27800D02*
D03*
X37800D02*
D03*
D43*
X27000Y6000D02*
D03*
Y10000D02*
D03*
X37500Y15500D02*
D03*
Y19500D02*
D03*
X35000Y15500D02*
D03*
Y19500D02*
D03*
X32500Y15500D02*
D03*
Y19500D02*
D03*
X12500Y5000D02*
D03*
Y9000D02*
D03*
Y10500D02*
D03*
Y14500D02*
D03*
Y16000D02*
D03*
Y20000D02*
D03*
X38200Y1600D02*
D03*
X34200D02*
D03*
X32800D02*
D03*
X28800D02*
D03*
X25500Y20500D02*
D03*
X24000Y6000D02*
D03*
X29500Y20500D02*
D03*
X8500Y6689D02*
D03*
Y12189D02*
D03*
Y17689D02*
D03*
X25500Y6000D02*
D03*
X24000Y10000D02*
D03*
X25500D02*
D03*
D44*
X19000Y9272D02*
D03*
Y14772D02*
D03*
Y20272D02*
D03*
D45*
Y5728D02*
D03*
Y11228D02*
D03*
Y16728D02*
D03*
D46*
X9453Y8500D02*
D03*
X14000Y10000D02*
D03*
Y11000D02*
D03*
X31500Y21000D02*
D03*
X32500D02*
D03*
X40000D02*
D03*
X39000D02*
D03*
X36500D02*
D03*
X37500D02*
D03*
X34000D02*
D03*
X35000D02*
D03*
X14000Y5500D02*
D03*
Y16500D02*
D03*
X9453Y14000D02*
D03*
Y19500D02*
D03*
X14000Y4500D02*
D03*
Y15500D02*
D03*
D47*
X3547Y8500D02*
D03*
Y14000D02*
D03*
Y19500D02*
D03*
D48*
X39500Y16606D02*
D03*
X20500Y15606D02*
D03*
X25500Y17106D02*
D03*
D49*
X39500Y17394D02*
D03*
X20500Y16394D02*
D03*
X25500Y17894D02*
D03*
D50*
X41500Y3000D02*
D03*
D51*
X17500Y18000D02*
D03*
X14500D02*
D03*
X17500Y19000D02*
D03*
Y12500D02*
D03*
X14500D02*
D03*
X17500Y13500D02*
D03*
Y7000D02*
D03*
X14500D02*
D03*
X17500Y8000D02*
D03*
D52*
X14500Y19000D02*
D03*
Y13500D02*
D03*
Y8000D02*
D03*
D53*
X8500Y5311D02*
D03*
Y10811D02*
D03*
Y16311D02*
D03*
D54*
X39500Y13000D02*
D03*
M02*
