G04*
G04 #@! TF.GenerationSoftware,Altium Limited,Altium Designer,18.0.7 (293)*
G04*
G04 Layer_Color=65535*
%FSLAX24Y24*%
%MOIN*%
G70*
G01*
G75*
%ADD10C,0.0098*%
%ADD11C,0.0100*%
%ADD12C,0.0079*%
%ADD13C,0.0236*%
%ADD14C,0.0060*%
%ADD15C,0.0059*%
G36*
X4574Y5397D02*
X4588D01*
Y5392D01*
X4603D01*
Y5387D01*
X4613D01*
Y5382D01*
X4623D01*
Y5377D01*
X4627D01*
Y5373D01*
X4637D01*
Y5368D01*
X4642D01*
Y5363D01*
X4647D01*
Y5358D01*
X4652D01*
Y5353D01*
X4657D01*
Y5348D01*
X4662D01*
Y5343D01*
X4667D01*
Y5338D01*
X4672D01*
Y5328D01*
X4676D01*
Y5319D01*
X4681D01*
Y5314D01*
X4686D01*
Y5304D01*
X4691D01*
Y5294D01*
X4696D01*
Y5289D01*
X4701D01*
Y5279D01*
X4706D01*
Y5270D01*
X4711D01*
Y5260D01*
X4716D01*
Y5255D01*
X4721D01*
Y5245D01*
X4725D01*
Y5235D01*
X4730D01*
Y5225D01*
X4735D01*
Y5221D01*
X4740D01*
Y5211D01*
X4745D01*
Y5201D01*
X4750D01*
Y5196D01*
X4755D01*
Y5186D01*
X4760D01*
Y5176D01*
X4765D01*
Y5167D01*
X4770D01*
Y5157D01*
X4775D01*
Y5152D01*
X4779D01*
Y5142D01*
X4784D01*
Y5132D01*
X4789D01*
Y5127D01*
X4794D01*
Y5118D01*
X4799D01*
Y5108D01*
X4804D01*
Y5103D01*
X4809D01*
Y5093D01*
X4814D01*
Y5083D01*
X4819D01*
Y5074D01*
X4824D01*
Y5069D01*
X4828D01*
Y5059D01*
X4833D01*
Y5049D01*
X4838D01*
Y5039D01*
X4843D01*
Y5034D01*
X4848D01*
Y5025D01*
X4853D01*
Y5015D01*
X4858D01*
Y5005D01*
X4863D01*
Y5000D01*
X4868D01*
Y4990D01*
X4873D01*
Y4980D01*
X4877D01*
Y4971D01*
X4882D01*
Y4966D01*
X4887D01*
Y4956D01*
X4892D01*
Y4946D01*
X4897D01*
Y4941D01*
X4902D01*
Y4931D01*
X4907D01*
Y4922D01*
X4912D01*
Y4912D01*
X4917D01*
Y4907D01*
X4922D01*
Y4897D01*
X4926D01*
Y4887D01*
X4931D01*
Y4877D01*
X4936D01*
Y4873D01*
X4941D01*
Y4863D01*
X4946D01*
Y4853D01*
X4951D01*
Y4843D01*
X4956D01*
Y4838D01*
X4961D01*
Y4828D01*
X4966D01*
Y4819D01*
X4971D01*
Y4809D01*
X4975D01*
Y4804D01*
X4980D01*
Y4794D01*
X4985D01*
Y4784D01*
X4990D01*
Y4779D01*
X4995D01*
Y4770D01*
X5000D01*
Y4760D01*
X5005D01*
Y4750D01*
X5010D01*
Y4745D01*
X5015D01*
Y4735D01*
X5020D01*
Y4725D01*
X5025D01*
Y4716D01*
X5029D01*
Y4711D01*
X5034D01*
Y4701D01*
X5039D01*
Y4691D01*
X5044D01*
Y4686D01*
X5049D01*
Y4676D01*
X5054D01*
Y4667D01*
X5059D01*
Y4657D01*
X5064D01*
Y4652D01*
X5069D01*
Y4642D01*
X5074D01*
Y4632D01*
X5078D01*
Y4623D01*
X5083D01*
Y4618D01*
X5088D01*
Y4608D01*
X5093D01*
Y4598D01*
X5098D01*
Y4593D01*
X5103D01*
Y4583D01*
X5108D01*
Y4574D01*
X5113D01*
Y4564D01*
X5118D01*
Y4559D01*
X5123D01*
Y4549D01*
X5127D01*
Y4539D01*
X5132D01*
Y4529D01*
X5137D01*
Y4525D01*
X5142D01*
Y4515D01*
X5147D01*
Y4505D01*
X5152D01*
Y4495D01*
X5157D01*
Y4490D01*
X5162D01*
Y4480D01*
X5167D01*
Y4471D01*
X5172D01*
Y4466D01*
X5176D01*
Y4456D01*
X5181D01*
Y4446D01*
X5186D01*
Y4436D01*
X5191D01*
Y4431D01*
X5196D01*
Y4422D01*
X5201D01*
Y4412D01*
X5206D01*
Y4402D01*
X5211D01*
Y4397D01*
X5216D01*
Y4387D01*
X5221D01*
Y4377D01*
X5225D01*
Y4373D01*
X5230D01*
Y4363D01*
X5235D01*
Y4353D01*
X5240D01*
Y4343D01*
X5245D01*
Y4333D01*
X5250D01*
Y4328D01*
X5255D01*
Y4319D01*
X5260D01*
Y4309D01*
X5265D01*
Y4304D01*
X5270D01*
Y4294D01*
X5275D01*
Y4284D01*
X5279D01*
Y4275D01*
X5284D01*
Y4270D01*
X5289D01*
Y4260D01*
X5294D01*
Y4250D01*
X5299D01*
Y4240D01*
X5304D01*
Y4235D01*
X5309D01*
Y4225D01*
X5314D01*
Y4216D01*
X5319D01*
Y4211D01*
X5324D01*
Y4201D01*
X5328D01*
Y4191D01*
X5333D01*
Y4181D01*
X5338D01*
Y4176D01*
X5343D01*
Y4167D01*
X5348D01*
Y4157D01*
X5353D01*
Y4152D01*
X5358D01*
Y4142D01*
X5363D01*
Y4132D01*
X5368D01*
Y4123D01*
X5373D01*
Y4118D01*
X5377D01*
Y4108D01*
X5382D01*
Y4098D01*
X5387D01*
Y4088D01*
X5392D01*
Y4083D01*
X5397D01*
Y4074D01*
X5402D01*
Y4064D01*
X5407D01*
Y4054D01*
X5412D01*
Y4049D01*
X5417D01*
Y4039D01*
X5422D01*
Y4029D01*
X5426D01*
Y4020D01*
X5431D01*
Y4015D01*
X5436D01*
Y4005D01*
X5441D01*
Y3995D01*
X5446D01*
Y3985D01*
X5451D01*
Y3980D01*
X5456D01*
Y3971D01*
X5461D01*
Y3961D01*
X5466D01*
Y3956D01*
X5471D01*
Y3946D01*
X5475D01*
Y3936D01*
X5480D01*
Y3926D01*
X5485D01*
Y3922D01*
X5490D01*
Y3912D01*
X5495D01*
Y3902D01*
X5500D01*
Y3892D01*
X5505D01*
Y3887D01*
X5510D01*
Y3877D01*
X5515D01*
Y3868D01*
X5520D01*
Y3863D01*
X5525D01*
Y3853D01*
X5529D01*
Y3838D01*
X5534D01*
Y3824D01*
X5539D01*
Y3799D01*
X5544D01*
Y3765D01*
X5539D01*
Y3735D01*
X5534D01*
Y3721D01*
X5529D01*
Y3711D01*
X5525D01*
Y3701D01*
X5520D01*
Y3691D01*
X5515D01*
Y3686D01*
X5510D01*
Y3676D01*
X5505D01*
Y3672D01*
X5500D01*
Y3667D01*
X5495D01*
Y3662D01*
X5490D01*
Y3657D01*
X5485D01*
Y3652D01*
X5480D01*
Y3647D01*
X5471D01*
Y3642D01*
X5466D01*
Y3637D01*
X5456D01*
Y3632D01*
X5451D01*
Y3627D01*
X5436D01*
Y3623D01*
X5426D01*
Y3618D01*
X5402D01*
Y3613D01*
X3662D01*
Y3618D01*
X3642D01*
Y3623D01*
X3632D01*
Y3627D01*
X3618D01*
Y3632D01*
X3613D01*
Y3637D01*
X3603D01*
Y3642D01*
X3593D01*
Y3647D01*
X3588D01*
Y3652D01*
X3583D01*
Y3657D01*
X3578D01*
Y3662D01*
X3574D01*
Y3667D01*
X3569D01*
Y3672D01*
X3564D01*
Y3676D01*
X3559D01*
Y3686D01*
X3554D01*
Y3691D01*
X3549D01*
Y3701D01*
X3544D01*
Y3711D01*
X3539D01*
Y3721D01*
X3534D01*
Y3735D01*
X3529D01*
Y3765D01*
X3525D01*
Y3799D01*
X3529D01*
Y3824D01*
X3534D01*
Y3838D01*
X3539D01*
Y3853D01*
X3544D01*
Y3863D01*
X3549D01*
Y3868D01*
X3554D01*
Y3877D01*
X3559D01*
Y3887D01*
X3564D01*
Y3897D01*
X3569D01*
Y3902D01*
X3574D01*
Y3912D01*
X3578D01*
Y3922D01*
X3583D01*
Y3931D01*
X3588D01*
Y3936D01*
X3593D01*
Y3946D01*
X3598D01*
Y3956D01*
X3603D01*
Y3961D01*
X3608D01*
Y3971D01*
X3613D01*
Y3980D01*
X3618D01*
Y3990D01*
X3623D01*
Y3995D01*
X3627D01*
Y4005D01*
X3632D01*
Y4015D01*
X3637D01*
Y4025D01*
X3642D01*
Y4029D01*
X3647D01*
Y4039D01*
X3652D01*
Y4049D01*
X3657D01*
Y4054D01*
X3662D01*
Y4064D01*
X3667D01*
Y4074D01*
X3672D01*
Y4083D01*
X3676D01*
Y4088D01*
X3681D01*
Y4098D01*
X3686D01*
Y4108D01*
X3691D01*
Y4118D01*
X3696D01*
Y4123D01*
X3701D01*
Y4132D01*
X3706D01*
Y4142D01*
X3711D01*
Y4147D01*
X3716D01*
Y4157D01*
X3721D01*
Y4167D01*
X3725D01*
Y4176D01*
X3730D01*
Y4181D01*
X3735D01*
Y4191D01*
X3740D01*
Y4201D01*
X3745D01*
Y4211D01*
X3750D01*
Y4216D01*
X3755D01*
Y4225D01*
X3760D01*
Y4235D01*
X3765D01*
Y4245D01*
X3770D01*
Y4250D01*
X3775D01*
Y4260D01*
X3779D01*
Y4270D01*
X3784D01*
Y4275D01*
X3789D01*
Y4284D01*
X3794D01*
Y4294D01*
X3799D01*
Y4299D01*
X3804D01*
Y4309D01*
X3809D01*
Y4319D01*
X3814D01*
Y4328D01*
X3819D01*
Y4338D01*
X3824D01*
Y4343D01*
X3828D01*
Y4353D01*
X3833D01*
Y4363D01*
X3838D01*
Y4368D01*
X3843D01*
Y4377D01*
X3848D01*
Y4387D01*
X3853D01*
Y4397D01*
X3858D01*
Y4402D01*
X3863D01*
Y4412D01*
X3868D01*
Y4422D01*
X3873D01*
Y4431D01*
X3877D01*
Y4436D01*
X3882D01*
Y4446D01*
X3887D01*
Y4456D01*
X3892D01*
Y4466D01*
X3897D01*
Y4471D01*
X3902D01*
Y4480D01*
X3907D01*
Y4490D01*
X3912D01*
Y4495D01*
X3917D01*
Y4505D01*
X3922D01*
Y4515D01*
X3926D01*
Y4525D01*
X3931D01*
Y4529D01*
X3936D01*
Y4539D01*
X3941D01*
Y4549D01*
X3946D01*
Y4559D01*
X3951D01*
Y4564D01*
X3956D01*
Y4574D01*
X3961D01*
Y4583D01*
X3966D01*
Y4593D01*
X3971D01*
Y4598D01*
X3975D01*
Y4608D01*
X3980D01*
Y4618D01*
X3985D01*
Y4623D01*
X3990D01*
Y4632D01*
X3995D01*
Y4642D01*
X4000D01*
Y4652D01*
X4005D01*
Y4657D01*
X4010D01*
Y4667D01*
X4015D01*
Y4676D01*
X4020D01*
Y4686D01*
X4025D01*
Y4691D01*
X4029D01*
Y4701D01*
X4034D01*
Y4711D01*
X4039D01*
Y4716D01*
X4044D01*
Y4725D01*
X4049D01*
Y4735D01*
X4054D01*
Y4745D01*
X4059D01*
Y4750D01*
X4064D01*
Y4760D01*
X4069D01*
Y4770D01*
X4074D01*
Y4779D01*
X4078D01*
Y4784D01*
X4083D01*
Y4794D01*
X4088D01*
Y4804D01*
X4093D01*
Y4814D01*
X4098D01*
Y4819D01*
X4103D01*
Y4828D01*
X4108D01*
Y4838D01*
X4113D01*
Y4843D01*
X4118D01*
Y4853D01*
X4123D01*
Y4863D01*
X4127D01*
Y4873D01*
X4132D01*
Y4882D01*
X4137D01*
Y4887D01*
X4142D01*
Y4897D01*
X4147D01*
Y4907D01*
X4152D01*
Y4912D01*
X4157D01*
Y4922D01*
X4162D01*
Y4931D01*
X4167D01*
Y4941D01*
X4172D01*
Y4946D01*
X4176D01*
Y4956D01*
X4181D01*
Y4966D01*
X4186D01*
Y4971D01*
X4191D01*
Y4980D01*
X4196D01*
Y4990D01*
X4201D01*
Y5000D01*
X4206D01*
Y5005D01*
X4211D01*
Y5015D01*
X4216D01*
Y5025D01*
X4221D01*
Y5034D01*
X4225D01*
Y5039D01*
X4230D01*
Y5049D01*
X4235D01*
Y5059D01*
X4240D01*
Y5064D01*
X4245D01*
Y5074D01*
X4250D01*
Y5083D01*
X4255D01*
Y5093D01*
X4260D01*
Y5103D01*
X4265D01*
Y5108D01*
X4270D01*
Y5118D01*
X4275D01*
Y5127D01*
X4279D01*
Y5132D01*
X4284D01*
Y5142D01*
X4289D01*
Y5152D01*
X4294D01*
Y5162D01*
X4299D01*
Y5167D01*
X4304D01*
Y5176D01*
X4309D01*
Y5186D01*
X4314D01*
Y5196D01*
X4319D01*
Y5201D01*
X4324D01*
Y5211D01*
X4328D01*
Y5221D01*
X4333D01*
Y5225D01*
X4338D01*
Y5235D01*
X4343D01*
Y5245D01*
X4348D01*
Y5255D01*
X4353D01*
Y5260D01*
X4358D01*
Y5270D01*
X4363D01*
Y5279D01*
X4368D01*
Y5289D01*
X4373D01*
Y5294D01*
X4377D01*
Y5304D01*
X4382D01*
Y5314D01*
X4387D01*
Y5319D01*
X4392D01*
Y5328D01*
X4397D01*
Y5338D01*
X4402D01*
Y5343D01*
X4407D01*
Y5348D01*
X4412D01*
Y5353D01*
X4417D01*
Y5358D01*
X4422D01*
Y5363D01*
X4426D01*
Y5368D01*
X4431D01*
Y5373D01*
X4441D01*
Y5377D01*
X4446D01*
Y5382D01*
X4456D01*
Y5387D01*
X4466D01*
Y5392D01*
X4480D01*
Y5397D01*
X4495D01*
Y5402D01*
X4574D01*
Y5397D01*
D02*
G37*
G36*
X22000Y3300D02*
X16500D01*
Y5255D01*
X22000D01*
Y3300D01*
D02*
G37*
G36*
X12640Y3636D02*
X12669D01*
Y3607D01*
X12698D01*
Y3578D01*
X12727D01*
Y920D01*
X12698D01*
Y862D01*
X12669D01*
Y833D01*
X12611D01*
Y804D01*
X8451D01*
Y833D01*
X8422D01*
Y862D01*
X8393D01*
Y891D01*
X8364D01*
Y3578D01*
X8393D01*
Y3636D01*
X8451D01*
Y3664D01*
X12640D01*
Y3636D01*
D02*
G37*
%LPC*%
G36*
X4549Y5270D02*
X4520D01*
Y5265D01*
X4510D01*
Y5260D01*
X4505D01*
Y5250D01*
X4500D01*
Y5240D01*
X4495D01*
Y5235D01*
X4490D01*
Y5225D01*
X4485D01*
Y5216D01*
X4480D01*
Y5206D01*
X4475D01*
Y5196D01*
X4471D01*
Y5191D01*
X4466D01*
Y5181D01*
X4461D01*
Y5172D01*
X4456D01*
Y5162D01*
X4451D01*
Y5157D01*
X4446D01*
Y5147D01*
X4441D01*
Y5142D01*
X4436D01*
Y5132D01*
X4431D01*
Y5123D01*
X4426D01*
Y5113D01*
X4422D01*
Y5103D01*
X4417D01*
Y5098D01*
X4412D01*
Y5088D01*
X4407D01*
Y5078D01*
X4402D01*
Y5074D01*
X4397D01*
Y5064D01*
X4392D01*
Y5054D01*
X4387D01*
Y5044D01*
X4382D01*
Y5039D01*
X4377D01*
Y5029D01*
X4373D01*
Y5020D01*
X4368D01*
Y5010D01*
X4363D01*
Y5000D01*
X4358D01*
Y4995D01*
X4353D01*
Y4985D01*
X4348D01*
Y4975D01*
X4343D01*
Y4971D01*
X4338D01*
Y4961D01*
X4333D01*
Y4951D01*
X4328D01*
Y4946D01*
X4324D01*
Y4936D01*
X4319D01*
Y4926D01*
X4314D01*
Y4917D01*
X4309D01*
Y4912D01*
X4304D01*
Y4902D01*
X4299D01*
Y4892D01*
X4294D01*
Y4882D01*
X4289D01*
Y4877D01*
X4284D01*
Y4868D01*
X4279D01*
Y4858D01*
X4275D01*
Y4848D01*
X4270D01*
Y4843D01*
X4265D01*
Y4833D01*
X4260D01*
Y4824D01*
X4255D01*
Y4819D01*
X4250D01*
Y4809D01*
X4245D01*
Y4799D01*
X4240D01*
Y4789D01*
X4235D01*
Y4784D01*
X4230D01*
Y4775D01*
X4225D01*
Y4765D01*
X4221D01*
Y4755D01*
X4216D01*
Y4750D01*
X4211D01*
Y4740D01*
X4206D01*
Y4730D01*
X4201D01*
Y4721D01*
X4196D01*
Y4716D01*
X4191D01*
Y4706D01*
X4186D01*
Y4696D01*
X4181D01*
Y4691D01*
X4176D01*
Y4681D01*
X4172D01*
Y4672D01*
X4167D01*
Y4662D01*
X4162D01*
Y4657D01*
X4157D01*
Y4647D01*
X4152D01*
Y4637D01*
X4147D01*
Y4632D01*
X4142D01*
Y4623D01*
X4137D01*
Y4613D01*
X4132D01*
Y4603D01*
X4127D01*
Y4598D01*
X4123D01*
Y4588D01*
X4118D01*
Y4578D01*
X4113D01*
Y4569D01*
X4108D01*
Y4564D01*
X4103D01*
Y4554D01*
X4098D01*
Y4544D01*
X4093D01*
Y4539D01*
X4088D01*
Y4529D01*
X4083D01*
Y4520D01*
X4078D01*
Y4510D01*
X4074D01*
Y4500D01*
X4069D01*
Y4495D01*
X4064D01*
Y4485D01*
X4059D01*
Y4475D01*
X4054D01*
Y4471D01*
X4049D01*
Y4461D01*
X4044D01*
Y4451D01*
X4039D01*
Y4446D01*
X4034D01*
Y4436D01*
X4029D01*
Y4426D01*
X4025D01*
Y4417D01*
X4020D01*
Y4412D01*
X4015D01*
Y4402D01*
X4010D01*
Y4392D01*
X4005D01*
Y4382D01*
X4000D01*
Y4373D01*
X3995D01*
Y4368D01*
X3990D01*
Y4358D01*
X3985D01*
Y4348D01*
X3980D01*
Y4343D01*
X3975D01*
Y4333D01*
X3971D01*
Y4324D01*
X3966D01*
Y4314D01*
X3961D01*
Y4309D01*
X3956D01*
Y4299D01*
X3951D01*
Y4289D01*
X3946D01*
Y4279D01*
X3941D01*
Y4275D01*
X3936D01*
Y4265D01*
X3931D01*
Y4255D01*
X3926D01*
Y4250D01*
X3922D01*
Y4240D01*
X3917D01*
Y4230D01*
X3912D01*
Y4221D01*
X3907D01*
Y4216D01*
X3902D01*
Y4206D01*
X3897D01*
Y4196D01*
X3892D01*
Y4186D01*
X3887D01*
Y4181D01*
X3882D01*
Y4172D01*
X3877D01*
Y4162D01*
X3873D01*
Y4152D01*
X3868D01*
Y4147D01*
X3863D01*
Y4137D01*
X3858D01*
Y4127D01*
X3853D01*
Y4123D01*
X3848D01*
Y4113D01*
X3843D01*
Y4103D01*
X3838D01*
Y4098D01*
X3833D01*
Y4088D01*
X3828D01*
Y4078D01*
X3824D01*
Y4069D01*
X3819D01*
Y4059D01*
X3814D01*
Y4054D01*
X3809D01*
Y4044D01*
X3804D01*
Y4034D01*
X3799D01*
Y4029D01*
X3794D01*
Y4020D01*
X3789D01*
Y4010D01*
X3784D01*
Y4000D01*
X3779D01*
Y3995D01*
X3775D01*
Y3985D01*
X3770D01*
Y3975D01*
X3765D01*
Y3966D01*
X3760D01*
Y3961D01*
X3755D01*
Y3951D01*
X3750D01*
Y3941D01*
X3745D01*
Y3931D01*
X3740D01*
Y3926D01*
X3735D01*
Y3917D01*
X3730D01*
Y3907D01*
X3725D01*
Y3902D01*
X3721D01*
Y3892D01*
X3716D01*
Y3882D01*
X3711D01*
Y3873D01*
X3706D01*
Y3868D01*
X3701D01*
Y3858D01*
X3696D01*
Y3848D01*
X3691D01*
Y3838D01*
X3686D01*
Y3833D01*
X3681D01*
Y3824D01*
X3676D01*
Y3814D01*
X3672D01*
Y3804D01*
X3667D01*
Y3799D01*
X3662D01*
Y3765D01*
X3667D01*
Y3755D01*
X3676D01*
Y3750D01*
X3686D01*
Y3745D01*
X5387D01*
Y3750D01*
X5397D01*
Y3755D01*
X5402D01*
Y3765D01*
X5407D01*
Y3779D01*
X5412D01*
Y3784D01*
X5407D01*
Y3799D01*
X5402D01*
Y3809D01*
X5397D01*
Y3814D01*
X5392D01*
Y3824D01*
X5387D01*
Y3833D01*
X5382D01*
Y3838D01*
X5377D01*
Y3848D01*
X5373D01*
Y3858D01*
X5368D01*
Y3868D01*
X5363D01*
Y3873D01*
X5358D01*
Y3882D01*
X5353D01*
Y3892D01*
X5348D01*
Y3902D01*
X5343D01*
Y3907D01*
X5338D01*
Y3917D01*
X5333D01*
Y3926D01*
X5328D01*
Y3936D01*
X5324D01*
Y3941D01*
X5319D01*
Y3951D01*
X5314D01*
Y3961D01*
X5309D01*
Y3966D01*
X5304D01*
Y3975D01*
X5299D01*
Y3985D01*
X5294D01*
Y3995D01*
X5289D01*
Y4000D01*
X5284D01*
Y4010D01*
X5279D01*
Y4020D01*
X5275D01*
Y4029D01*
X5270D01*
Y4034D01*
X5265D01*
Y4044D01*
X5260D01*
Y4054D01*
X5255D01*
Y4059D01*
X5250D01*
Y4069D01*
X5245D01*
Y4078D01*
X5240D01*
Y4088D01*
X5235D01*
Y4093D01*
X5230D01*
Y4103D01*
X5225D01*
Y4113D01*
X5221D01*
Y4123D01*
X5216D01*
Y4127D01*
X5211D01*
Y4137D01*
X5206D01*
Y4147D01*
X5201D01*
Y4157D01*
X5196D01*
Y4162D01*
X5191D01*
Y4172D01*
X5186D01*
Y4181D01*
X5181D01*
Y4186D01*
X5176D01*
Y4196D01*
X5172D01*
Y4206D01*
X5167D01*
Y4216D01*
X5162D01*
Y4221D01*
X5157D01*
Y4230D01*
X5152D01*
Y4240D01*
X5147D01*
Y4250D01*
X5142D01*
Y4255D01*
X5137D01*
Y4265D01*
X5132D01*
Y4275D01*
X5127D01*
Y4284D01*
X5123D01*
Y4289D01*
X5118D01*
Y4299D01*
X5113D01*
Y4309D01*
X5108D01*
Y4314D01*
X5103D01*
Y4324D01*
X5098D01*
Y4333D01*
X5093D01*
Y4343D01*
X5088D01*
Y4348D01*
X5083D01*
Y4358D01*
X5078D01*
Y4368D01*
X5074D01*
Y4373D01*
X5069D01*
Y4382D01*
X5064D01*
Y4392D01*
X5059D01*
Y4402D01*
X5054D01*
Y4407D01*
X5049D01*
Y4417D01*
X5044D01*
Y4426D01*
X5039D01*
Y4436D01*
X5034D01*
Y4441D01*
X5029D01*
Y4451D01*
X5025D01*
Y4461D01*
X5020D01*
Y4471D01*
X5015D01*
Y4475D01*
X5010D01*
Y4485D01*
X5005D01*
Y4490D01*
X5000D01*
Y4500D01*
X4995D01*
Y4510D01*
X4990D01*
Y4520D01*
X4985D01*
Y4529D01*
X4980D01*
Y4534D01*
X4975D01*
Y4544D01*
X4971D01*
Y4554D01*
X4966D01*
Y4564D01*
X4961D01*
Y4569D01*
X4956D01*
Y4578D01*
X4951D01*
Y4588D01*
X4946D01*
Y4598D01*
X4941D01*
Y4603D01*
X4936D01*
Y4613D01*
X4931D01*
Y4623D01*
X4926D01*
Y4632D01*
X4922D01*
Y4637D01*
X4917D01*
Y4647D01*
X4912D01*
Y4657D01*
X4907D01*
Y4662D01*
X4902D01*
Y4672D01*
X4897D01*
Y4681D01*
X4892D01*
Y4686D01*
X4887D01*
Y4696D01*
X4882D01*
Y4706D01*
X4877D01*
Y4716D01*
X4873D01*
Y4725D01*
X4868D01*
Y4730D01*
X4863D01*
Y4740D01*
X4858D01*
Y4750D01*
X4853D01*
Y4760D01*
X4848D01*
Y4765D01*
X4843D01*
Y4775D01*
X4838D01*
Y4784D01*
X4833D01*
Y4789D01*
X4828D01*
Y4799D01*
X4824D01*
Y4809D01*
X4819D01*
Y4819D01*
X4814D01*
Y4824D01*
X4809D01*
Y4833D01*
X4804D01*
Y4843D01*
X4799D01*
Y4853D01*
X4794D01*
Y4858D01*
X4789D01*
Y4868D01*
X4784D01*
Y4877D01*
X4779D01*
Y4882D01*
X4775D01*
Y4892D01*
X4770D01*
Y4902D01*
X4765D01*
Y4912D01*
X4760D01*
Y4917D01*
X4755D01*
Y4926D01*
X4750D01*
Y4936D01*
X4745D01*
Y4946D01*
X4740D01*
Y4951D01*
X4735D01*
Y4961D01*
X4730D01*
Y4971D01*
X4725D01*
Y4975D01*
X4721D01*
Y4985D01*
X4716D01*
Y4995D01*
X4711D01*
Y5005D01*
X4706D01*
Y5010D01*
X4701D01*
Y5020D01*
X4696D01*
Y5029D01*
X4691D01*
Y5039D01*
X4686D01*
Y5044D01*
X4681D01*
Y5054D01*
X4676D01*
Y5064D01*
X4672D01*
Y5074D01*
X4667D01*
Y5078D01*
X4662D01*
Y5088D01*
X4657D01*
Y5098D01*
X4652D01*
Y5108D01*
X4647D01*
Y5113D01*
X4642D01*
Y5123D01*
X4637D01*
Y5132D01*
X4632D01*
Y5137D01*
X4627D01*
Y5147D01*
X4623D01*
Y5157D01*
X4618D01*
Y5167D01*
X4613D01*
Y5172D01*
X4608D01*
Y5181D01*
X4603D01*
Y5191D01*
X4598D01*
Y5201D01*
X4593D01*
Y5206D01*
X4588D01*
Y5216D01*
X4583D01*
Y5225D01*
X4578D01*
Y5230D01*
X4574D01*
Y5240D01*
X4569D01*
Y5250D01*
X4564D01*
Y5255D01*
X4559D01*
Y5265D01*
X4549D01*
Y5270D01*
D02*
G37*
%LPD*%
G36*
X4554Y4887D02*
X4574D01*
Y4882D01*
X4583D01*
Y4877D01*
X4593D01*
Y4873D01*
X4598D01*
Y4868D01*
X4603D01*
Y4863D01*
X4608D01*
Y4858D01*
X4613D01*
Y4853D01*
X4618D01*
Y4843D01*
X4623D01*
Y4828D01*
X4627D01*
Y4804D01*
X4632D01*
Y4745D01*
X4627D01*
Y4696D01*
X4623D01*
Y4647D01*
X4618D01*
Y4593D01*
X4613D01*
Y4544D01*
X4608D01*
Y4495D01*
X4603D01*
Y4441D01*
X4598D01*
Y4392D01*
X4593D01*
Y4343D01*
X4588D01*
Y4294D01*
X4583D01*
Y4245D01*
X4578D01*
Y4216D01*
X4574D01*
Y4206D01*
X4569D01*
Y4201D01*
X4564D01*
Y4196D01*
X4554D01*
Y4191D01*
X4544D01*
Y4186D01*
X4525D01*
Y4191D01*
X4515D01*
Y4196D01*
X4505D01*
Y4201D01*
X4500D01*
Y4206D01*
X4495D01*
Y4216D01*
X4490D01*
Y4245D01*
X4485D01*
Y4294D01*
X4480D01*
Y4343D01*
X4475D01*
Y4392D01*
X4471D01*
Y4446D01*
X4466D01*
Y4495D01*
X4461D01*
Y4544D01*
X4456D01*
Y4593D01*
X4451D01*
Y4647D01*
X4446D01*
Y4696D01*
X4441D01*
Y4745D01*
X4436D01*
Y4804D01*
X4441D01*
Y4828D01*
X4446D01*
Y4843D01*
X4451D01*
Y4853D01*
X4456D01*
Y4858D01*
X4461D01*
Y4863D01*
X4466D01*
Y4868D01*
X4471D01*
Y4873D01*
X4475D01*
Y4877D01*
X4485D01*
Y4882D01*
X4495D01*
Y4887D01*
X4515D01*
Y4892D01*
X4554D01*
Y4887D01*
D02*
G37*
G36*
Y4093D02*
X4569D01*
Y4088D01*
X4578D01*
Y4083D01*
X4588D01*
Y4078D01*
X4593D01*
Y4074D01*
X4603D01*
Y4064D01*
X4608D01*
Y4059D01*
X4613D01*
Y4054D01*
X4618D01*
Y4044D01*
X4623D01*
Y4034D01*
X4627D01*
Y4010D01*
X4632D01*
Y3990D01*
X4627D01*
Y3966D01*
X4623D01*
Y3956D01*
X4618D01*
Y3946D01*
X4613D01*
Y3941D01*
X4608D01*
Y3936D01*
X4603D01*
Y3926D01*
X4598D01*
Y3922D01*
X4588D01*
Y3917D01*
X4583D01*
Y3912D01*
X4574D01*
Y3907D01*
X4559D01*
Y3902D01*
X4505D01*
Y3907D01*
X4495D01*
Y3912D01*
X4485D01*
Y3917D01*
X4475D01*
Y3922D01*
X4471D01*
Y3926D01*
X4466D01*
Y3931D01*
X4461D01*
Y3936D01*
X4456D01*
Y3941D01*
X4451D01*
Y3946D01*
X4446D01*
Y3956D01*
X4441D01*
Y3971D01*
X4436D01*
Y3995D01*
X4431D01*
Y4005D01*
X4436D01*
Y4029D01*
X4441D01*
Y4044D01*
X4446D01*
Y4049D01*
X4451D01*
Y4059D01*
X4456D01*
Y4064D01*
X4461D01*
Y4069D01*
X4466D01*
Y4074D01*
X4471D01*
Y4078D01*
X4475D01*
Y4083D01*
X4485D01*
Y4088D01*
X4495D01*
Y4093D01*
X4510D01*
Y4098D01*
X4554D01*
Y4093D01*
D02*
G37*
%LPC*%
G36*
X19958Y4642D02*
X19768D01*
Y4248D01*
X19753D01*
Y4263D01*
X19739D01*
Y4292D01*
X19724D01*
Y4307D01*
X19710D01*
Y4336D01*
X19695D01*
Y4365D01*
X19680D01*
Y4380D01*
X19666D01*
Y4394D01*
X19651D01*
Y4423D01*
X19637D01*
Y4438D01*
X19622D01*
Y4467D01*
X19607D01*
Y4482D01*
X19593D01*
Y4511D01*
X19578D01*
Y4525D01*
X19564D01*
Y4540D01*
X19549D01*
Y4569D01*
X19534D01*
Y4584D01*
X19520D01*
Y4613D01*
X19505D01*
Y4628D01*
X19491D01*
Y4642D01*
X19286D01*
Y3913D01*
X19462D01*
Y3927D01*
X19476D01*
Y3971D01*
Y3986D01*
Y4292D01*
X19462D01*
Y4336D01*
X19476D01*
Y4321D01*
X19491D01*
Y4292D01*
X19505D01*
Y4277D01*
X19520D01*
Y4248D01*
X19534D01*
Y4234D01*
X19549D01*
Y4205D01*
X19564D01*
Y4190D01*
X19578D01*
Y4175D01*
X19593D01*
Y4146D01*
X19607D01*
Y4132D01*
X19622D01*
Y4102D01*
X19637D01*
Y4088D01*
X19651D01*
Y4073D01*
X19666D01*
Y4044D01*
X19680D01*
Y4029D01*
X19695D01*
Y4000D01*
X19710D01*
Y3986D01*
X19724D01*
Y3971D01*
X19739D01*
Y3942D01*
X19753D01*
Y3927D01*
X19768D01*
Y3913D01*
X19958D01*
Y4642D01*
D02*
G37*
G36*
X21373D02*
X20789D01*
Y4467D01*
X20979D01*
Y3986D01*
Y3971D01*
Y3913D01*
X21183D01*
Y4467D01*
X21373D01*
Y4642D01*
D02*
G37*
G36*
X20454D02*
X20103D01*
Y3913D01*
X20439D01*
Y3927D01*
X20497D01*
Y3942D01*
X20556D01*
Y3956D01*
X20585D01*
Y3971D01*
X20614D01*
Y3986D01*
X20629D01*
Y4000D01*
X20658D01*
Y4015D01*
X20672D01*
Y4029D01*
X20687D01*
Y4059D01*
X20702D01*
Y4073D01*
X20716D01*
Y4088D01*
X20731D01*
Y4117D01*
X20745D01*
Y4161D01*
X20760D01*
Y4219D01*
X20775D01*
Y4365D01*
X20760D01*
Y4423D01*
X20745D01*
Y4453D01*
X20731D01*
Y4482D01*
X20716D01*
Y4496D01*
X20702D01*
Y4525D01*
X20687D01*
Y4540D01*
X20672D01*
Y4555D01*
X20643D01*
Y4569D01*
X20629D01*
Y4584D01*
X20599D01*
Y4598D01*
X20570D01*
Y4613D01*
X20527D01*
Y4628D01*
X20454D01*
Y4642D01*
D02*
G37*
G36*
X19141D02*
X18936D01*
Y4628D01*
X18922D01*
Y4307D01*
Y4292D01*
Y3927D01*
X18936D01*
Y3913D01*
X19141D01*
Y4642D01*
D02*
G37*
G36*
X17521Y4934D02*
X17419D01*
Y4919D01*
X17346D01*
Y4905D01*
X17317D01*
Y4890D01*
X17288D01*
Y4876D01*
X17273D01*
Y4861D01*
X17259D01*
Y4846D01*
X17244D01*
Y4832D01*
X17229D01*
Y4817D01*
X17215D01*
Y4788D01*
X17200D01*
Y4759D01*
X17186D01*
Y4715D01*
X17171D01*
Y4671D01*
X17156D01*
Y4628D01*
X17142D01*
Y4540D01*
X17127D01*
Y4015D01*
X17142D01*
Y3927D01*
X17156D01*
Y3869D01*
X17171D01*
Y3825D01*
X17186D01*
Y3796D01*
X17200D01*
Y3767D01*
X17215D01*
Y3738D01*
X17229D01*
Y3723D01*
X17244D01*
Y3708D01*
X17259D01*
Y3694D01*
X17273D01*
Y3679D01*
X17288D01*
Y3665D01*
X17317D01*
Y3650D01*
X17346D01*
Y3636D01*
X17419D01*
Y3621D01*
X17521D01*
Y3636D01*
X17580D01*
Y3650D01*
X17623D01*
Y3665D01*
X17653D01*
Y3679D01*
X17696D01*
Y3694D01*
X17725D01*
Y3708D01*
X17755D01*
Y3723D01*
X17784D01*
Y3752D01*
X17755D01*
Y3767D01*
X17740D01*
Y3781D01*
X17711D01*
Y3796D01*
X17682D01*
Y3811D01*
X17623D01*
Y3796D01*
X17580D01*
Y3781D01*
X17536D01*
Y3767D01*
X17419D01*
Y3781D01*
X17390D01*
Y3796D01*
X17361D01*
Y3811D01*
X17346D01*
Y3825D01*
X17332D01*
Y3854D01*
X17317D01*
Y3884D01*
X17302D01*
Y3927D01*
X17288D01*
Y4000D01*
X17273D01*
Y4190D01*
X17259D01*
Y4365D01*
X17273D01*
Y4555D01*
X17288D01*
Y4628D01*
X17302D01*
Y4671D01*
X17317D01*
Y4701D01*
X17332D01*
Y4730D01*
X17346D01*
Y4744D01*
X17361D01*
Y4759D01*
X17390D01*
Y4773D01*
X17419D01*
Y4788D01*
X17536D01*
Y4773D01*
X17580D01*
Y4759D01*
X17623D01*
Y4744D01*
X17653D01*
Y4730D01*
X17682D01*
Y4715D01*
X17725D01*
Y4701D01*
X17755D01*
Y4686D01*
X17769D01*
Y4671D01*
X17813D01*
Y4657D01*
X17828D01*
Y4642D01*
X17857D01*
Y4628D01*
X17886D01*
Y4613D01*
X17915D01*
Y4598D01*
X17944D01*
Y4584D01*
X17973D01*
Y4569D01*
X18003D01*
Y4555D01*
X18017D01*
Y4540D01*
X18046D01*
Y4525D01*
X18076D01*
Y4511D01*
X18090D01*
Y4496D01*
X18119D01*
Y4482D01*
X18149D01*
Y4467D01*
X18178D01*
Y4453D01*
X18192D01*
Y4438D01*
X18207D01*
Y4423D01*
X18221D01*
Y4409D01*
X18236D01*
Y4394D01*
X18251D01*
Y4365D01*
X18265D01*
Y4336D01*
X18280D01*
Y4219D01*
X18265D01*
Y4190D01*
X18251D01*
Y4161D01*
X18236D01*
Y4146D01*
X18221D01*
Y4132D01*
X18207D01*
Y4117D01*
X18192D01*
Y4102D01*
X18163D01*
Y4088D01*
X18149D01*
Y4073D01*
X18119D01*
Y4059D01*
X18090D01*
Y4044D01*
X18076D01*
Y4029D01*
X18046D01*
Y4015D01*
X18017D01*
Y4000D01*
X17988D01*
Y3986D01*
X17973D01*
Y3971D01*
X17959D01*
Y3956D01*
X17988D01*
Y3942D01*
X18017D01*
Y3927D01*
X18046D01*
Y3913D01*
X18076D01*
Y3898D01*
X18105D01*
Y3913D01*
X18134D01*
Y3927D01*
X18163D01*
Y3942D01*
X18192D01*
Y3956D01*
X18207D01*
Y3971D01*
X18236D01*
Y3986D01*
X18251D01*
Y4000D01*
X18280D01*
Y4015D01*
X18294D01*
Y4029D01*
X18309D01*
Y4044D01*
X18324D01*
Y4059D01*
X18338D01*
Y4073D01*
X18353D01*
Y4088D01*
X18367D01*
Y4117D01*
X18382D01*
Y4132D01*
X18397D01*
Y4161D01*
X18411D01*
Y4219D01*
X18426D01*
Y4336D01*
X18411D01*
Y4380D01*
X18397D01*
Y4409D01*
X18382D01*
Y4438D01*
X18367D01*
Y4453D01*
X18353D01*
Y4482D01*
X18338D01*
Y4496D01*
X18324D01*
Y4511D01*
X18309D01*
Y4525D01*
X18294D01*
Y4540D01*
X18280D01*
Y4555D01*
X18251D01*
Y4569D01*
X18236D01*
Y4584D01*
X18207D01*
Y4598D01*
X18192D01*
Y4613D01*
X18163D01*
Y4628D01*
X18134D01*
Y4642D01*
X18119D01*
Y4657D01*
X18090D01*
Y4671D01*
X18061D01*
Y4686D01*
X18032D01*
Y4701D01*
X18017D01*
Y4715D01*
X17988D01*
Y4730D01*
X17959D01*
Y4744D01*
X17930D01*
Y4759D01*
X17901D01*
Y4773D01*
X17871D01*
Y4788D01*
X17842D01*
Y4803D01*
X17813D01*
Y4817D01*
X17798D01*
Y4832D01*
X17755D01*
Y4846D01*
X17725D01*
Y4861D01*
X17696D01*
Y4876D01*
X17667D01*
Y4890D01*
X17623D01*
Y4905D01*
X17580D01*
Y4919D01*
X17521D01*
Y4934D01*
D02*
G37*
G36*
X18338D02*
X18236D01*
Y4919D01*
X18178D01*
Y4905D01*
X18134D01*
Y4890D01*
X18105D01*
Y4876D01*
X18061D01*
Y4861D01*
X18032D01*
Y4846D01*
X18003D01*
Y4832D01*
X17973D01*
Y4803D01*
X18003D01*
Y4788D01*
X18032D01*
Y4773D01*
X18061D01*
Y4759D01*
X18076D01*
Y4744D01*
X18134D01*
Y4759D01*
X18178D01*
Y4773D01*
X18221D01*
Y4788D01*
X18338D01*
Y4773D01*
X18382D01*
Y4759D01*
X18397D01*
Y4744D01*
X18411D01*
Y4730D01*
X18426D01*
Y4701D01*
X18440D01*
Y4671D01*
X18455D01*
Y4628D01*
X18470D01*
Y4569D01*
X18484D01*
Y4409D01*
X18499D01*
Y4146D01*
X18484D01*
Y3986D01*
X18470D01*
Y3927D01*
X18455D01*
Y3884D01*
X18440D01*
Y3854D01*
X18426D01*
Y3825D01*
X18411D01*
Y3811D01*
X18397D01*
Y3796D01*
X18367D01*
Y3781D01*
X18338D01*
Y3767D01*
X18221D01*
Y3781D01*
X18178D01*
Y3796D01*
X18134D01*
Y3811D01*
X18105D01*
Y3825D01*
X18076D01*
Y3840D01*
X18046D01*
Y3854D01*
X18017D01*
Y3869D01*
X17988D01*
Y3884D01*
X17959D01*
Y3898D01*
X17930D01*
Y3913D01*
X17901D01*
Y3927D01*
X17871D01*
Y3942D01*
X17842D01*
Y3956D01*
X17813D01*
Y3971D01*
X17798D01*
Y3986D01*
X17769D01*
Y4000D01*
X17740D01*
Y4015D01*
X17711D01*
Y4029D01*
X17696D01*
Y4044D01*
X17667D01*
Y4059D01*
X17638D01*
Y4073D01*
X17609D01*
Y4088D01*
X17594D01*
Y4102D01*
X17565D01*
Y4117D01*
X17550D01*
Y4132D01*
X17536D01*
Y4146D01*
X17521D01*
Y4161D01*
X17507D01*
Y4190D01*
X17492D01*
Y4219D01*
X17477D01*
Y4336D01*
X17492D01*
Y4365D01*
X17507D01*
Y4394D01*
X17521D01*
Y4409D01*
X17536D01*
Y4423D01*
X17550D01*
Y4438D01*
X17565D01*
Y4453D01*
X17594D01*
Y4467D01*
X17609D01*
Y4482D01*
X17638D01*
Y4496D01*
X17667D01*
Y4511D01*
X17682D01*
Y4525D01*
X17711D01*
Y4540D01*
X17740D01*
Y4555D01*
X17769D01*
Y4569D01*
X17798D01*
Y4598D01*
X17769D01*
Y4613D01*
X17740D01*
Y4628D01*
X17711D01*
Y4642D01*
X17696D01*
Y4657D01*
X17638D01*
Y4642D01*
X17623D01*
Y4628D01*
X17594D01*
Y4613D01*
X17565D01*
Y4598D01*
X17550D01*
Y4584D01*
X17521D01*
Y4569D01*
X17507D01*
Y4555D01*
X17477D01*
Y4540D01*
X17463D01*
Y4525D01*
X17448D01*
Y4511D01*
X17434D01*
Y4496D01*
X17419D01*
Y4482D01*
X17405D01*
Y4467D01*
X17390D01*
Y4438D01*
X17375D01*
Y4409D01*
X17361D01*
Y4380D01*
X17346D01*
Y4336D01*
X17332D01*
Y4219D01*
X17346D01*
Y4175D01*
X17361D01*
Y4146D01*
X17375D01*
Y4117D01*
X17390D01*
Y4102D01*
X17405D01*
Y4088D01*
X17419D01*
Y4059D01*
X17434D01*
Y4044D01*
X17448D01*
Y4029D01*
X17463D01*
Y4015D01*
X17492D01*
Y4000D01*
X17507D01*
Y3986D01*
X17521D01*
Y3971D01*
X17550D01*
Y3956D01*
X17565D01*
Y3942D01*
X17594D01*
Y3927D01*
X17623D01*
Y3913D01*
X17638D01*
Y3898D01*
X17667D01*
Y3884D01*
X17696D01*
Y3869D01*
X17725D01*
Y3854D01*
X17755D01*
Y3840D01*
X17769D01*
Y3825D01*
X17798D01*
Y3811D01*
X17828D01*
Y3796D01*
X17857D01*
Y3781D01*
X17886D01*
Y3767D01*
X17915D01*
Y3752D01*
X17944D01*
Y3738D01*
X17973D01*
Y3723D01*
X18003D01*
Y3708D01*
X18032D01*
Y3694D01*
X18061D01*
Y3679D01*
X18105D01*
Y3665D01*
X18134D01*
Y3650D01*
X18178D01*
Y3636D01*
X18236D01*
Y3621D01*
X18324D01*
Y3636D01*
X18397D01*
Y3650D01*
X18440D01*
Y3665D01*
X18470D01*
Y3679D01*
X18484D01*
Y3694D01*
X18499D01*
Y3708D01*
X18513D01*
Y3723D01*
X18528D01*
Y3738D01*
X18542D01*
Y3767D01*
X18557D01*
Y3796D01*
X18572D01*
Y3825D01*
X18586D01*
Y3869D01*
X18601D01*
Y3927D01*
X18615D01*
Y4015D01*
X18630D01*
Y4175D01*
X18645D01*
Y4394D01*
X18630D01*
Y4540D01*
X18615D01*
Y4628D01*
X18601D01*
Y4686D01*
X18586D01*
Y4730D01*
X18572D01*
Y4759D01*
X18557D01*
Y4788D01*
X18542D01*
Y4817D01*
X18528D01*
Y4832D01*
X18513D01*
Y4846D01*
X18499D01*
Y4861D01*
X18484D01*
Y4876D01*
X18470D01*
Y4890D01*
X18440D01*
Y4905D01*
X18411D01*
Y4919D01*
X18338D01*
Y4934D01*
D02*
G37*
%LPD*%
G36*
X20395Y4467D02*
X20454D01*
Y4453D01*
X20483D01*
Y4438D01*
X20497D01*
Y4423D01*
X20512D01*
Y4409D01*
X20527D01*
Y4394D01*
X20541D01*
Y4336D01*
X20556D01*
Y4219D01*
X20541D01*
Y4175D01*
X20527D01*
Y4146D01*
X20512D01*
Y4132D01*
X20497D01*
Y4117D01*
X20483D01*
Y4102D01*
X20454D01*
Y4088D01*
X20308D01*
Y4394D01*
Y4409D01*
Y4482D01*
X20395D01*
Y4467D01*
D02*
G37*
%LPC*%
G36*
X10791Y3607D02*
X10358D01*
Y3578D01*
X9838D01*
Y3549D01*
X9578D01*
Y3520D01*
X9376D01*
Y3491D01*
X9231D01*
Y3462D01*
X9087D01*
Y3433D01*
X9000D01*
Y3404D01*
X8913D01*
Y3376D01*
X8827D01*
Y3347D01*
X8769D01*
Y3318D01*
X8740D01*
Y3289D01*
X8711D01*
Y3260D01*
X8682D01*
Y3231D01*
X8653D01*
Y3144D01*
X8682D01*
Y3116D01*
X8711D01*
Y3087D01*
X8740D01*
Y3058D01*
X8769D01*
Y3029D01*
X8827D01*
Y3000D01*
X8913D01*
Y2971D01*
X9000D01*
Y2942D01*
X9087D01*
Y2913D01*
X9231D01*
Y2884D01*
X9376D01*
Y2856D01*
X9549D01*
Y2827D01*
X9838D01*
Y2798D01*
X10387D01*
Y2769D01*
X10791D01*
Y2798D01*
X11340D01*
Y2827D01*
X11600D01*
Y2856D01*
X11773D01*
Y2884D01*
X11947D01*
Y2913D01*
X12062D01*
Y2942D01*
X12178D01*
Y2971D01*
X12264D01*
Y3000D01*
X12322D01*
Y3029D01*
X12380D01*
Y3058D01*
X12438D01*
Y3087D01*
X12467D01*
Y3116D01*
X12496D01*
Y3260D01*
X12467D01*
Y3289D01*
X12438D01*
Y3318D01*
X12380D01*
Y3347D01*
X12322D01*
Y3376D01*
X12264D01*
Y3404D01*
X12178D01*
Y3433D01*
X12062D01*
Y3462D01*
X11947D01*
Y3491D01*
X11773D01*
Y3520D01*
X11600D01*
Y3549D01*
X11340D01*
Y3578D01*
X10791D01*
Y3607D01*
D02*
G37*
G36*
X12640Y2711D02*
X8422D01*
Y949D01*
X8451D01*
Y891D01*
X12640D01*
Y1324D01*
Y1353D01*
Y2711D01*
D02*
G37*
%LPD*%
G36*
X9549Y3231D02*
X9520D01*
Y3202D01*
X9462D01*
Y3231D01*
Y3260D01*
Y3289D01*
X9549D01*
Y3231D01*
D02*
G37*
G36*
X11831D02*
X11860D01*
Y3116D01*
X11831D01*
Y3058D01*
X11687D01*
Y3144D01*
X11658D01*
Y3202D01*
X11687D01*
Y3289D01*
X11831D01*
Y3231D01*
D02*
G37*
G36*
X10993Y3520D02*
X11427D01*
Y3491D01*
X11658D01*
Y3462D01*
X11831D01*
Y3433D01*
X12004D01*
Y3404D01*
X12120D01*
Y3376D01*
X12207D01*
Y3347D01*
X12293D01*
Y3318D01*
X12351D01*
Y3289D01*
X12409D01*
Y3260D01*
X12438D01*
Y3202D01*
X12467D01*
Y3173D01*
X12438D01*
Y3116D01*
X12380D01*
Y3087D01*
X12351D01*
Y3058D01*
X12293D01*
Y3029D01*
X12207D01*
Y3000D01*
X12120D01*
Y2971D01*
X12004D01*
Y2942D01*
X11889D01*
Y2971D01*
X11918D01*
Y3000D01*
X11947D01*
Y3029D01*
X11976D01*
Y3087D01*
X12004D01*
Y3260D01*
X11976D01*
Y3318D01*
X11947D01*
Y3347D01*
X11918D01*
Y3376D01*
X11889D01*
Y3404D01*
X11629D01*
Y3376D01*
X11600D01*
Y3347D01*
X11571D01*
Y3318D01*
X11542D01*
Y3260D01*
X11513D01*
Y3087D01*
X11542D01*
Y3029D01*
X11571D01*
Y3000D01*
X11600D01*
Y2971D01*
X11629D01*
Y2942D01*
X11831D01*
Y2913D01*
X11658D01*
Y2884D01*
X11427D01*
Y2856D01*
X10993D01*
Y2827D01*
X10184D01*
Y2856D01*
X9780D01*
Y2884D01*
X9491D01*
Y2913D01*
X9318D01*
Y2942D01*
X9462D01*
Y3116D01*
X9636D01*
Y3144D01*
X9664D01*
Y3173D01*
X9693D01*
Y3347D01*
X9664D01*
Y3376D01*
X9636D01*
Y3404D01*
X9289D01*
Y2942D01*
X9144D01*
Y2971D01*
X9058D01*
Y3000D01*
X8942D01*
Y3029D01*
X8884D01*
Y3058D01*
X8798D01*
Y3087D01*
X8769D01*
Y3116D01*
X8740D01*
Y3144D01*
X8711D01*
Y3231D01*
X8740D01*
Y3260D01*
X8769D01*
Y3289D01*
X8827D01*
Y3318D01*
X8884D01*
Y3347D01*
X8942D01*
Y3376D01*
X9029D01*
Y3404D01*
X9173D01*
Y3433D01*
X9318D01*
Y3462D01*
X9491D01*
Y3491D01*
X9751D01*
Y3520D01*
X10156D01*
Y3549D01*
X10993D01*
Y3520D01*
D02*
G37*
%LPC*%
G36*
X11369Y3404D02*
X11109D01*
Y3376D01*
X11051D01*
Y3347D01*
X11022D01*
Y3318D01*
X10993D01*
Y3231D01*
X10964D01*
Y3144D01*
X10993D01*
Y3029D01*
X11022D01*
Y3000D01*
X11051D01*
Y2971D01*
X11109D01*
Y2942D01*
X11369D01*
Y2971D01*
X11427D01*
Y3000D01*
X11456D01*
Y3202D01*
X11224D01*
Y3116D01*
X11311D01*
Y3058D01*
X11167D01*
Y3087D01*
X11138D01*
Y3260D01*
X11167D01*
Y3289D01*
X11282D01*
Y3260D01*
X11427D01*
Y3289D01*
X11456D01*
Y3318D01*
X11427D01*
Y3347D01*
X11398D01*
Y3376D01*
X11369D01*
Y3404D01*
D02*
G37*
G36*
X10907D02*
X10762D01*
Y3376D01*
X10733D01*
Y2971D01*
X10762D01*
Y2942D01*
X10907D01*
Y3347D01*
Y3376D01*
Y3404D01*
D02*
G37*
G36*
X10589D02*
X10242D01*
Y3231D01*
Y3202D01*
Y2942D01*
X10387D01*
Y3116D01*
X10444D01*
Y3087D01*
X10473D01*
Y3029D01*
X10502D01*
Y2971D01*
X10531D01*
Y2942D01*
X10704D01*
Y2971D01*
X10676D01*
Y3029D01*
X10647D01*
Y3087D01*
X10618D01*
Y3116D01*
X10589D01*
Y3173D01*
X10647D01*
Y3231D01*
X10676D01*
Y3318D01*
X10647D01*
Y3376D01*
X10589D01*
Y3404D01*
D02*
G37*
G36*
X10156D02*
X9780D01*
Y2942D01*
X10156D01*
Y3000D01*
X10184D01*
Y3029D01*
X10156D01*
Y3058D01*
X9924D01*
Y3144D01*
X10156D01*
Y3231D01*
X9924D01*
Y3289D01*
X10156D01*
Y3404D01*
D02*
G37*
%LPD*%
G36*
X10502Y3231D02*
X10387D01*
Y3289D01*
X10502D01*
Y3231D01*
D02*
G37*
G36*
X9520Y2422D02*
X9549D01*
Y2393D01*
X9578D01*
Y2364D01*
X9462D01*
Y2393D01*
X9433D01*
Y2336D01*
X9491D01*
Y2307D01*
X9549D01*
Y2278D01*
X9578D01*
Y2162D01*
X9549D01*
Y2133D01*
X9347D01*
Y2162D01*
X9318D01*
Y2220D01*
X9404D01*
Y2191D01*
X9491D01*
Y2249D01*
X9404D01*
Y2278D01*
X9347D01*
Y2336D01*
X9318D01*
Y2393D01*
X9347D01*
Y2422D01*
X9376D01*
Y2451D01*
X9520D01*
Y2422D01*
D02*
G37*
G36*
X9838D02*
X9896D01*
Y2364D01*
X9924D01*
Y2336D01*
X9838D01*
Y2364D01*
X9722D01*
Y2220D01*
X9751D01*
Y2191D01*
X9809D01*
Y2220D01*
X9838D01*
Y2249D01*
X9896D01*
Y2220D01*
X9924D01*
Y2191D01*
X9896D01*
Y2162D01*
X9867D01*
Y2133D01*
X9693D01*
Y2162D01*
X9664D01*
Y2191D01*
X9636D01*
Y2393D01*
X9664D01*
Y2422D01*
X9722D01*
Y2451D01*
X9838D01*
Y2422D01*
D02*
G37*
G36*
X11051Y2364D02*
X10878D01*
Y2336D01*
X10907D01*
Y2307D01*
X10993D01*
Y2336D01*
X11022D01*
Y2249D01*
X10878D01*
Y2220D01*
Y2191D01*
X11051D01*
Y2133D01*
X10791D01*
Y2451D01*
X11051D01*
Y2364D01*
D02*
G37*
G36*
X10647Y2422D02*
X10704D01*
Y2393D01*
X10733D01*
Y2191D01*
X10704D01*
Y2162D01*
X10676D01*
Y2133D01*
X10473D01*
Y2451D01*
X10647D01*
Y2422D01*
D02*
G37*
G36*
X10184D02*
X10213D01*
Y2393D01*
X10242D01*
Y2364D01*
X10271D01*
Y2191D01*
X10242D01*
Y2162D01*
X10213D01*
Y2133D01*
X10011D01*
Y2162D01*
X9982D01*
Y2220D01*
X9953D01*
Y2336D01*
X9982D01*
Y2393D01*
X10011D01*
Y2422D01*
X10040D01*
Y2451D01*
X10184D01*
Y2422D01*
D02*
G37*
G36*
X9260Y2220D02*
Y2191D01*
Y2133D01*
X9173D01*
Y2451D01*
X9260D01*
Y2220D01*
D02*
G37*
G36*
X9058Y2422D02*
X9087D01*
Y2393D01*
X9116D01*
Y2307D01*
X9087D01*
Y2278D01*
X9058D01*
Y2249D01*
X9087D01*
Y2191D01*
X9116D01*
Y2133D01*
X9029D01*
Y2162D01*
X9000D01*
Y2220D01*
X8971D01*
Y2249D01*
X8942D01*
Y2133D01*
X8827D01*
Y2162D01*
Y2422D01*
X8856D01*
Y2451D01*
X9058D01*
Y2422D01*
D02*
G37*
G36*
X9549Y1642D02*
X9462D01*
Y1758D01*
X9376D01*
Y1642D01*
X9260D01*
Y1671D01*
X9289D01*
Y1960D01*
X9376D01*
Y1844D01*
X9462D01*
Y1960D01*
X9549D01*
Y1642D01*
D02*
G37*
G36*
X9144Y1931D02*
X9202D01*
Y1873D01*
Y1844D01*
X9144D01*
Y1873D01*
X9029D01*
Y1729D01*
X9058D01*
Y1700D01*
X9116D01*
Y1729D01*
X9144D01*
Y1758D01*
X9202D01*
Y1729D01*
X9231D01*
Y1700D01*
X9202D01*
Y1671D01*
X9173D01*
Y1642D01*
X9000D01*
Y1671D01*
X8971D01*
Y1700D01*
X8942D01*
Y1902D01*
X8971D01*
Y1931D01*
X9029D01*
Y1960D01*
X9144D01*
Y1931D01*
D02*
G37*
G36*
X10618Y1787D02*
Y1758D01*
Y1671D01*
X10589D01*
Y1642D01*
X10387D01*
Y1671D01*
X10358D01*
Y1700D01*
X10329D01*
Y1960D01*
X10416D01*
Y1729D01*
X10444D01*
Y1700D01*
X10502D01*
Y1729D01*
X10531D01*
Y1960D01*
X10618D01*
Y1787D01*
D02*
G37*
G36*
X10936Y1873D02*
X10791D01*
Y1844D01*
X10936D01*
Y1787D01*
X10907D01*
Y1758D01*
X10791D01*
Y1700D01*
X10936D01*
Y1642D01*
X10676D01*
Y1931D01*
X10704D01*
Y1960D01*
X10936D01*
Y1873D01*
D02*
G37*
G36*
X9838Y1931D02*
X9896D01*
Y1873D01*
X9924D01*
Y1758D01*
Y1729D01*
Y1700D01*
X9896D01*
Y1671D01*
X9867D01*
Y1642D01*
X9664D01*
Y1671D01*
X9636D01*
Y1758D01*
X9607D01*
Y1844D01*
X9636D01*
Y1902D01*
X9664D01*
Y1931D01*
X9693D01*
Y1960D01*
X9838D01*
Y1931D01*
D02*
G37*
G36*
X10184D02*
X10242D01*
Y1902D01*
X10271D01*
Y1816D01*
Y1787D01*
Y1700D01*
X10242D01*
Y1671D01*
X10271D01*
Y1613D01*
X10213D01*
Y1642D01*
X10040D01*
Y1671D01*
X10011D01*
Y1700D01*
X9982D01*
Y1902D01*
X10011D01*
Y1931D01*
X10069D01*
Y1960D01*
X10184D01*
Y1931D01*
D02*
G37*
G36*
X9549Y1527D02*
X9520D01*
Y1498D01*
X9462D01*
Y1527D01*
X9491D01*
Y1556D01*
X9549D01*
Y1527D01*
D02*
G37*
G36*
X9607Y1382D02*
X9578D01*
Y1411D01*
X9491D01*
Y1382D01*
X9462D01*
Y1353D01*
X9607D01*
Y1324D01*
Y1296D01*
Y1267D01*
X9462D01*
Y1209D01*
X9636D01*
Y1151D01*
X9376D01*
Y1469D01*
X9607D01*
Y1382D01*
D02*
G37*
G36*
X9029Y1411D02*
X9000D01*
Y1382D01*
X8971D01*
Y1411D01*
X8884D01*
Y1382D01*
X8856D01*
Y1353D01*
X9000D01*
Y1324D01*
X9029D01*
Y1296D01*
X9000D01*
Y1267D01*
X8913D01*
Y1296D01*
X8884D01*
Y1267D01*
X8856D01*
Y1238D01*
X8884D01*
Y1209D01*
X9029D01*
Y1151D01*
X8769D01*
Y1469D01*
X9029D01*
Y1411D01*
D02*
G37*
G36*
X10676Y1440D02*
X10733D01*
Y1353D01*
X10676D01*
Y1382D01*
X10560D01*
Y1238D01*
X10589D01*
Y1209D01*
X10647D01*
Y1238D01*
X10676D01*
Y1267D01*
X10733D01*
Y1238D01*
X10762D01*
Y1209D01*
X10733D01*
Y1180D01*
X10704D01*
Y1151D01*
X10531D01*
Y1180D01*
X10502D01*
Y1209D01*
X10473D01*
Y1411D01*
X10502D01*
Y1440D01*
X10560D01*
Y1469D01*
X10676D01*
Y1440D01*
D02*
G37*
G36*
X11976Y2336D02*
X12004D01*
Y2307D01*
X12033D01*
Y2249D01*
X12062D01*
Y2191D01*
X12091D01*
Y2133D01*
X12120D01*
Y2104D01*
X12149D01*
Y2047D01*
X12178D01*
Y1989D01*
X12207D01*
Y1931D01*
X12236D01*
Y1902D01*
X12264D01*
Y1844D01*
X12293D01*
Y1787D01*
X12322D01*
Y1729D01*
X12351D01*
Y1700D01*
X12380D01*
Y1642D01*
X12409D01*
Y1584D01*
X12438D01*
Y1527D01*
X12467D01*
Y1498D01*
X12496D01*
Y1440D01*
X12524D01*
Y1382D01*
X12553D01*
Y1296D01*
X12524D01*
Y1267D01*
X11311D01*
Y1296D01*
X11282D01*
Y1353D01*
X11311D01*
Y1411D01*
X11340D01*
Y1469D01*
X11369D01*
Y1498D01*
X11398D01*
Y1556D01*
X11427D01*
Y1613D01*
X11456D01*
Y1671D01*
X11484D01*
Y1700D01*
X11513D01*
Y1758D01*
X11542D01*
Y1816D01*
X11571D01*
Y1844D01*
X11600D01*
Y1902D01*
X11629D01*
Y1960D01*
X11658D01*
Y2018D01*
X11687D01*
Y2047D01*
X11716D01*
Y2104D01*
X11744D01*
Y2162D01*
X11773D01*
Y2220D01*
X11802D01*
Y2249D01*
X11831D01*
Y2307D01*
X11860D01*
Y2364D01*
X11889D01*
Y2393D01*
X11976D01*
Y2336D01*
D02*
G37*
G36*
X11022Y1440D02*
X11080D01*
Y1382D01*
X11109D01*
Y1238D01*
X11080D01*
Y1209D01*
Y1180D01*
X11051D01*
Y1151D01*
X10849D01*
Y1180D01*
X10820D01*
Y1238D01*
X10791D01*
Y1382D01*
X10820D01*
Y1411D01*
X10849D01*
Y1440D01*
X10878D01*
Y1469D01*
X11022D01*
Y1440D01*
D02*
G37*
G36*
X10416Y1151D02*
X10329D01*
Y1238D01*
Y1267D01*
Y1469D01*
X10416D01*
Y1151D01*
D02*
G37*
G36*
X10213Y1440D02*
X10242D01*
Y1324D01*
X10213D01*
Y1296D01*
X10184D01*
Y1267D01*
X10213D01*
Y1238D01*
X10242D01*
Y1180D01*
X10271D01*
Y1151D01*
X10156D01*
Y1209D01*
X10127D01*
Y1267D01*
X10069D01*
Y1238D01*
Y1151D01*
X9982D01*
Y1469D01*
X10213D01*
Y1440D01*
D02*
G37*
G36*
X9924Y1382D02*
X9838D01*
Y1296D01*
Y1267D01*
Y1151D01*
X9751D01*
Y1382D01*
X9664D01*
Y1469D01*
X9924D01*
Y1382D01*
D02*
G37*
G36*
X9173Y1209D02*
X9318D01*
Y1151D01*
X9087D01*
Y1353D01*
Y1382D01*
Y1469D01*
X9173D01*
Y1209D01*
D02*
G37*
%LPC*%
G36*
X10647Y2364D02*
X10560D01*
Y2191D01*
X10618D01*
Y2220D01*
X10647D01*
Y2364D01*
D02*
G37*
G36*
X10156D02*
X10069D01*
Y2336D01*
X10040D01*
Y2220D01*
X10069D01*
Y2191D01*
X10156D01*
Y2220D01*
X10184D01*
Y2336D01*
X10156D01*
Y2364D01*
D02*
G37*
G36*
X9000Y2393D02*
X8942D01*
Y2307D01*
X9000D01*
Y2336D01*
X9029D01*
Y2364D01*
X9000D01*
Y2393D01*
D02*
G37*
G36*
X9809Y1873D02*
X9722D01*
Y1816D01*
X9693D01*
Y1758D01*
X9722D01*
Y1700D01*
X9809D01*
Y1729D01*
X9838D01*
Y1844D01*
X9809D01*
Y1873D01*
D02*
G37*
G36*
X10184D02*
X10069D01*
Y1729D01*
X10098D01*
Y1700D01*
X10127D01*
Y1758D01*
X10156D01*
Y1729D01*
X10184D01*
Y1873D01*
D02*
G37*
G36*
X11947Y2278D02*
X11918D01*
Y2249D01*
X11889D01*
Y2191D01*
X11860D01*
Y2133D01*
X11831D01*
Y2104D01*
X11802D01*
Y2047D01*
X11773D01*
Y1989D01*
X11744D01*
Y1960D01*
X11716D01*
Y1902D01*
X11687D01*
Y1844D01*
X11658D01*
Y1787D01*
X11629D01*
Y1758D01*
X11600D01*
Y1700D01*
X11571D01*
Y1642D01*
X11542D01*
Y1584D01*
X11513D01*
Y1556D01*
X11484D01*
Y1498D01*
X11456D01*
Y1440D01*
X11427D01*
Y1411D01*
X11398D01*
Y1353D01*
X11889D01*
Y1469D01*
X11860D01*
Y1556D01*
X11831D01*
Y1584D01*
X11889D01*
Y1556D01*
X11918D01*
Y1642D01*
X11947D01*
Y1700D01*
X11889D01*
Y1671D01*
X11802D01*
Y1642D01*
X11744D01*
Y1613D01*
X11716D01*
Y1671D01*
X11744D01*
Y1700D01*
Y1729D01*
X11773D01*
Y1844D01*
X11802D01*
Y1931D01*
X11831D01*
Y2018D01*
X11860D01*
Y2104D01*
X11889D01*
Y2133D01*
X11918D01*
Y2104D01*
X11947D01*
Y2076D01*
X12033D01*
Y2047D01*
X12004D01*
Y1989D01*
X11976D01*
Y1931D01*
X11947D01*
Y1902D01*
X11918D01*
Y1844D01*
X11889D01*
Y1816D01*
X11947D01*
Y1844D01*
X12033D01*
Y1873D01*
X12091D01*
Y1816D01*
X12062D01*
Y1729D01*
X12033D01*
Y1613D01*
X12004D01*
Y1527D01*
X12062D01*
Y1498D01*
X12033D01*
Y1469D01*
X12004D01*
Y1440D01*
X11976D01*
Y1411D01*
X11947D01*
Y1382D01*
X11918D01*
Y1353D01*
X12438D01*
Y1411D01*
X12409D01*
Y1469D01*
X12380D01*
Y1527D01*
X12351D01*
Y1584D01*
X12322D01*
Y1613D01*
X12293D01*
Y1671D01*
X12264D01*
Y1729D01*
X12236D01*
Y1787D01*
X12207D01*
Y1816D01*
X12178D01*
Y1873D01*
X12149D01*
Y1931D01*
X12120D01*
Y1989D01*
X12091D01*
Y2047D01*
X12062D01*
Y2076D01*
X12033D01*
Y2133D01*
X12004D01*
Y2191D01*
X11976D01*
Y2249D01*
X11947D01*
Y2278D01*
D02*
G37*
G36*
X10993Y1382D02*
X10907D01*
Y1353D01*
X10878D01*
Y1267D01*
X10907D01*
Y1209D01*
X10993D01*
Y1238D01*
X11022D01*
Y1353D01*
X10993D01*
Y1382D01*
D02*
G37*
G36*
X10156Y1411D02*
X10069D01*
Y1324D01*
X10156D01*
Y1353D01*
Y1411D01*
D02*
G37*
%LPD*%
D10*
X6085Y6000D02*
G03*
X6085Y6000I-49J0D01*
G01*
Y11500D02*
G03*
X6085Y11500I-49J0D01*
G01*
Y17000D02*
G03*
X6085Y17000I-49J0D01*
G01*
X14549Y19512D02*
G03*
X14549Y19512I-49J0D01*
G01*
Y14012D02*
G03*
X14549Y14012I-49J0D01*
G01*
Y8512D02*
G03*
X14549Y8512I-49J0D01*
G01*
X2049Y3799D02*
G03*
X2049Y3799I-49J0D01*
G01*
Y9299D02*
G03*
X2049Y9299I-49J0D01*
G01*
Y14799D02*
G03*
X2049Y14799I-49J0D01*
G01*
Y20299D02*
G03*
X2049Y20299I-49J0D01*
G01*
X41549Y15701D02*
G03*
X41549Y15701I-49J0D01*
G01*
X21750Y20500D02*
G03*
X21750Y20500I-49J0D01*
G01*
D11*
X43750Y21800D02*
G03*
X43750Y21800I-1000J0D01*
G01*
X6500Y1200D02*
G03*
X6500Y1200I-1000J0D01*
G01*
X43750D02*
G03*
X43750Y1200I-1000J0D01*
G01*
X6500Y21800D02*
G03*
X6500Y21800I-1000J0D01*
G01*
X16500Y200D02*
Y22900D01*
Y200D02*
X17200D01*
X43800D01*
Y22900D01*
X16500D02*
X43800D01*
X450Y200D02*
X15450D01*
X450Y22700D02*
X15450D01*
Y200D02*
Y22700D01*
X450Y200D02*
Y22700D01*
X16700Y2360D02*
Y2960D01*
X17000D01*
X17100Y2860D01*
Y2660D01*
X17000Y2560D01*
X16700D01*
X16900D02*
X17100Y2360D01*
X17600D02*
X17400D01*
X17300Y2460D01*
Y2660D01*
X17400Y2760D01*
X17600D01*
X17700Y2660D01*
Y2560D01*
X17300D01*
X17900Y2760D02*
X18100Y2360D01*
X18299Y2760D01*
X18499Y2260D02*
X18899D01*
X19099Y2360D02*
X19299D01*
X19199D01*
Y2960D01*
X19099Y2860D01*
X19599Y2360D02*
Y2460D01*
X19699D01*
Y2360D01*
X19599D01*
X20099Y2860D02*
X20199Y2960D01*
X20399D01*
X20499Y2860D01*
Y2460D01*
X20399Y2360D01*
X20199D01*
X20099Y2460D01*
Y2860D01*
X17100Y1900D02*
X16700D01*
Y1600D01*
X16900D01*
X16700D01*
Y1300D01*
X17300Y1900D02*
Y1500D01*
X17500Y1300D01*
X17700Y1500D01*
Y1900D01*
X17900D02*
X18299D01*
X18100D01*
Y1300D01*
X18499Y1200D02*
X18899D01*
X19099Y1900D02*
X19499D01*
X19299D01*
Y1300D01*
X20099Y1900D02*
X19699D01*
Y1300D01*
X20099D01*
X19699Y1600D02*
X19899D01*
X20699Y1800D02*
X20599Y1900D01*
X20399D01*
X20299Y1800D01*
Y1700D01*
X20399Y1600D01*
X20599D01*
X20699Y1500D01*
Y1400D01*
X20599Y1300D01*
X20399D01*
X20299Y1400D01*
X20899Y1900D02*
X21299D01*
X21099D01*
Y1300D01*
X21898Y1900D02*
X21498D01*
Y1300D01*
X21898D01*
X21498Y1600D02*
X21698D01*
X22098Y1300D02*
Y1900D01*
X22398D01*
X22498Y1800D01*
Y1600D01*
X22398Y1500D01*
X22098D01*
X22298D02*
X22498Y1300D01*
X22698Y1200D02*
X23098D01*
X23298Y1900D02*
X23498D01*
X23398D01*
Y1300D01*
X23298D01*
X23498D01*
X24098Y1900D02*
X23898D01*
X23798Y1800D01*
Y1400D01*
X23898Y1300D01*
X24098D01*
X24198Y1400D01*
Y1800D01*
X24098Y1900D01*
X24398D02*
X24797D01*
X24597D01*
Y1300D01*
X1800Y6300D02*
Y5700D01*
X2100D01*
X2200Y5800D01*
Y6200D01*
X2100Y6300D01*
X1800D01*
X2800D02*
X2400D01*
Y6000D01*
X2600Y6100D01*
X2700D01*
X2800Y6000D01*
Y5800D01*
X2700Y5700D01*
X2500D01*
X2400Y5800D01*
X1800Y11800D02*
Y11200D01*
X2100D01*
X2200Y11300D01*
Y11700D01*
X2100Y11800D01*
X1800D01*
X2400Y11700D02*
X2500Y11800D01*
X2700D01*
X2800Y11700D01*
Y11600D01*
X2700Y11500D01*
X2600D01*
X2700D01*
X2800Y11400D01*
Y11300D01*
X2700Y11200D01*
X2500D01*
X2400Y11300D01*
X1800Y17328D02*
Y16728D01*
X2100D01*
X2200Y16828D01*
Y17228D01*
X2100Y17328D01*
X1800D01*
X2400Y16728D02*
X2600D01*
X2500D01*
Y17328D01*
X2400Y17228D01*
X6134Y4120D02*
Y4519D01*
X6334Y4719D01*
X6534Y4519D01*
Y4120D01*
Y4420D01*
X6134D01*
X7134Y4619D02*
X7034Y4719D01*
X6834D01*
X6734Y4619D01*
Y4220D01*
X6834Y4120D01*
X7034D01*
X7134Y4220D01*
X22560Y14930D02*
X22460Y15030D01*
X22260D01*
X22160Y14930D01*
Y14830D01*
X22260Y14730D01*
X22460D01*
X22560Y14630D01*
Y14530D01*
X22460Y14430D01*
X22260D01*
X22160Y14530D01*
X23060Y15030D02*
X22860D01*
X22760Y14930D01*
Y14530D01*
X22860Y14430D01*
X23060D01*
X23160Y14530D01*
Y14930D01*
X23060Y15030D01*
X23759Y14930D02*
X23660Y15030D01*
X23460D01*
X23360Y14930D01*
Y14530D01*
X23460Y14430D01*
X23660D01*
X23759Y14530D01*
X23959Y15030D02*
Y14430D01*
Y14630D01*
X24359Y15030D01*
X24059Y14730D01*
X24359Y14430D01*
X24959Y15030D02*
X24559D01*
Y14430D01*
X24959D01*
X24559Y14730D02*
X24759D01*
X25159Y15030D02*
X25559D01*
X25359D01*
Y14430D01*
X26159D02*
X25759D01*
X26159Y14830D01*
Y14930D01*
X26059Y15030D01*
X25859D01*
X25759Y14930D01*
X31000Y22500D02*
Y21900D01*
X31200Y22100D01*
X31400Y21900D01*
Y22500D01*
X31600D02*
X31800D01*
X31700D01*
Y21900D01*
X31600D01*
X31800D01*
X32500Y22500D02*
X32100D01*
Y22200D01*
X32300D01*
X32100D01*
Y21900D01*
X32699Y22500D02*
X32899D01*
X32799D01*
Y21900D01*
X32699D01*
X32899D01*
X33700Y22400D02*
X33600Y22500D01*
X33400D01*
X33300Y22400D01*
Y22300D01*
X33400Y22200D01*
X33600D01*
X33700Y22100D01*
Y22000D01*
X33600Y21900D01*
X33400D01*
X33300Y22000D01*
X34300Y22500D02*
X33900D01*
Y21900D01*
X34300D01*
X33900Y22200D02*
X34100D01*
X34500Y21900D02*
Y22500D01*
X34800D01*
X34900Y22400D01*
Y22200D01*
X34800Y22100D01*
X34500D01*
X34700D02*
X34900Y21900D01*
X35100Y22500D02*
Y22100D01*
X35300Y21900D01*
X35500Y22100D01*
Y22500D01*
X36250Y16700D02*
Y17300D01*
X36550D01*
X36650Y17200D01*
Y17000D01*
X36550Y16900D01*
X36250D01*
X36450D02*
X36650Y16700D01*
X36850D02*
X37050D01*
X36950D01*
Y17300D01*
X36850Y17200D01*
X37350D02*
X37450Y17300D01*
X37650D01*
X37750Y17200D01*
Y17100D01*
X37650Y17000D01*
X37750Y16900D01*
Y16800D01*
X37650Y16700D01*
X37450D01*
X37350Y16800D01*
Y16900D01*
X37450Y17000D01*
X37350Y17100D01*
Y17200D01*
X37450Y17000D02*
X37650D01*
X33750Y16700D02*
Y17300D01*
X34050D01*
X34150Y17200D01*
Y17000D01*
X34050Y16900D01*
X33750D01*
X33950D02*
X34150Y16700D01*
X34350D02*
X34550D01*
X34450D01*
Y17300D01*
X34350Y17200D01*
X34850Y17300D02*
X35250D01*
Y17200D01*
X34850Y16800D01*
Y16700D01*
X31250D02*
Y17300D01*
X31550D01*
X31650Y17200D01*
Y17000D01*
X31550Y16900D01*
X31250D01*
X31450D02*
X31650Y16700D01*
X31850D02*
X32050D01*
X31950D01*
Y17300D01*
X31850Y17200D01*
X32750Y17300D02*
X32550Y17200D01*
X32350Y17000D01*
Y16800D01*
X32450Y16700D01*
X32650D01*
X32750Y16800D01*
Y16900D01*
X32650Y17000D01*
X32350D01*
X36100Y22500D02*
Y21900D01*
X36500D01*
X37000Y22500D02*
X36800D01*
X36700Y22400D01*
Y22000D01*
X36800Y21900D01*
X37000D01*
X37100Y22000D01*
Y22400D01*
X37000Y22500D01*
X37300D02*
Y21900D01*
X37500Y22100D01*
X37700Y21900D01*
Y22500D01*
X38900Y1300D02*
Y1900D01*
X39200D01*
X39300Y1800D01*
Y1600D01*
X39200Y1500D01*
X38900D01*
X39100D02*
X39300Y1300D01*
X39500D02*
X39700D01*
X39600D01*
Y1900D01*
X39500Y1800D01*
X40400Y1900D02*
X40000D01*
Y1600D01*
X40200Y1700D01*
X40300D01*
X40400Y1600D01*
Y1400D01*
X40300Y1300D01*
X40100D01*
X40000Y1400D01*
X26600Y1200D02*
Y1800D01*
X26900D01*
X27000Y1700D01*
Y1500D01*
X26900Y1400D01*
X26600D01*
X26800D02*
X27000Y1200D01*
X27200D02*
X27400D01*
X27300D01*
Y1800D01*
X27200Y1700D01*
X28000Y1200D02*
Y1800D01*
X27700Y1500D01*
X28100D01*
X41400Y15300D02*
X41200D01*
X41300D01*
Y14800D01*
X41200Y14700D01*
X41100D01*
X41000Y14800D01*
X41600Y15300D02*
X42000D01*
Y15200D01*
X41600Y14800D01*
Y14700D01*
X16600Y9500D02*
Y9000D01*
X16700Y8900D01*
X16900D01*
X17000Y9000D01*
Y9500D01*
X17200Y9400D02*
X17300Y9500D01*
X17500D01*
X17600Y9400D01*
Y9300D01*
X17500Y9200D01*
X17400D01*
X17500D01*
X17600Y9100D01*
Y9000D01*
X17500Y8900D01*
X17300D01*
X17200Y9000D01*
X16600Y15000D02*
Y14500D01*
X16700Y14400D01*
X16900D01*
X17000Y14500D01*
Y15000D01*
X17600Y14400D02*
X17200D01*
X17600Y14800D01*
Y14900D01*
X17500Y15000D01*
X17300D01*
X17200Y14900D01*
X16600Y20500D02*
Y20000D01*
X16700Y19900D01*
X16900D01*
X17000Y20000D01*
Y20500D01*
X17200Y19900D02*
X17400D01*
X17300D01*
Y20500D01*
X17200Y20400D01*
X22560Y4830D02*
X22460Y4930D01*
X22260D01*
X22160Y4830D01*
Y4730D01*
X22260Y4630D01*
X22460D01*
X22560Y4530D01*
Y4430D01*
X22460Y4330D01*
X22260D01*
X22160Y4430D01*
X23060Y4930D02*
X22860D01*
X22760Y4830D01*
Y4430D01*
X22860Y4330D01*
X23060D01*
X23160Y4430D01*
Y4830D01*
X23060Y4930D01*
X23759Y4830D02*
X23660Y4930D01*
X23460D01*
X23360Y4830D01*
Y4430D01*
X23460Y4330D01*
X23660D01*
X23759Y4430D01*
X23959Y4930D02*
Y4330D01*
Y4530D01*
X24359Y4930D01*
X24059Y4630D01*
X24359Y4330D01*
X24959Y4930D02*
X24559D01*
Y4330D01*
X24959D01*
X24559Y4630D02*
X24759D01*
X25159Y4930D02*
X25559D01*
X25359D01*
Y4330D01*
X25759D02*
X25959D01*
X25859D01*
Y4930D01*
X25759Y4830D01*
X11550Y6600D02*
Y7200D01*
X11850D01*
X11950Y7100D01*
Y6900D01*
X11850Y6800D01*
X11550D01*
X11750D02*
X11950Y6600D01*
X12150D02*
X12350D01*
X12250D01*
Y7200D01*
X12150Y7100D01*
X12650D02*
X12750Y7200D01*
X12950D01*
X13050Y7100D01*
Y7000D01*
X12950Y6900D01*
X12850D01*
X12950D01*
X13050Y6800D01*
Y6700D01*
X12950Y6600D01*
X12750D01*
X12650Y6700D01*
X11650Y12100D02*
Y12700D01*
X11950D01*
X12050Y12600D01*
Y12400D01*
X11950Y12300D01*
X11650D01*
X11850D02*
X12050Y12100D01*
X12250D02*
X12450D01*
X12350D01*
Y12700D01*
X12250Y12600D01*
X13150Y12100D02*
X12750D01*
X13150Y12500D01*
Y12600D01*
X13050Y12700D01*
X12850D01*
X12750Y12600D01*
X11650Y17600D02*
Y18200D01*
X11950D01*
X12050Y18100D01*
Y17900D01*
X11950Y17800D01*
X11650D01*
X11850D02*
X12050Y17600D01*
X12250D02*
X12450D01*
X12350D01*
Y18200D01*
X12250Y18100D01*
X12750Y17600D02*
X12950D01*
X12850D01*
Y18200D01*
X12750Y18100D01*
X25160Y10620D02*
Y11220D01*
X25460D01*
X25560Y11120D01*
Y10920D01*
X25460Y10820D01*
X25160D01*
X25360D02*
X25560Y10620D01*
X25760D02*
X25960D01*
X25860D01*
Y11220D01*
X25760Y11120D01*
X26260D02*
X26360Y11220D01*
X26560D01*
X26660Y11120D01*
Y10720D01*
X26560Y10620D01*
X26360D01*
X26260Y10720D01*
Y11120D01*
X27500Y6200D02*
Y6800D01*
X27800D01*
X27900Y6700D01*
Y6500D01*
X27800Y6400D01*
X27500D01*
X27700D02*
X27900Y6200D01*
X28100Y6300D02*
X28200Y6200D01*
X28400D01*
X28500Y6300D01*
Y6700D01*
X28400Y6800D01*
X28200D01*
X28100Y6700D01*
Y6600D01*
X28200Y6500D01*
X28500D01*
X23660Y10620D02*
Y11220D01*
X23960D01*
X24060Y11120D01*
Y10920D01*
X23960Y10820D01*
X23660D01*
X23860D02*
X24060Y10620D01*
X24260Y11120D02*
X24360Y11220D01*
X24560D01*
X24660Y11120D01*
Y11020D01*
X24560Y10920D01*
X24660Y10820D01*
Y10720D01*
X24560Y10620D01*
X24360D01*
X24260Y10720D01*
Y10820D01*
X24360Y10920D01*
X24260Y11020D01*
Y11120D01*
X24360Y10920D02*
X24560D01*
X25280Y21240D02*
Y21840D01*
X25580D01*
X25680Y21740D01*
Y21540D01*
X25580Y21440D01*
X25280D01*
X25480D02*
X25680Y21240D01*
X25880Y21840D02*
X26280D01*
Y21740D01*
X25880Y21340D01*
Y21240D01*
X19500Y7700D02*
Y8300D01*
X19800D01*
X19900Y8200D01*
Y8000D01*
X19800Y7900D01*
X19500D01*
X19700D02*
X19900Y7700D01*
X20500Y8300D02*
X20300Y8200D01*
X20100Y8000D01*
Y7800D01*
X20200Y7700D01*
X20400D01*
X20500Y7800D01*
Y7900D01*
X20400Y8000D01*
X20100D01*
X19500Y12700D02*
Y13300D01*
X19800D01*
X19900Y13200D01*
Y13000D01*
X19800Y12900D01*
X19500D01*
X19700D02*
X19900Y12700D01*
X20500Y13300D02*
X20100D01*
Y13000D01*
X20300Y13100D01*
X20400D01*
X20500Y13000D01*
Y12800D01*
X20400Y12700D01*
X20200D01*
X20100Y12800D01*
X19500Y19200D02*
Y19800D01*
X19800D01*
X19900Y19700D01*
Y19500D01*
X19800Y19400D01*
X19500D01*
X19700D02*
X19900Y19200D01*
X20400D02*
Y19800D01*
X20100Y19500D01*
X20500D01*
X3280Y9620D02*
Y10220D01*
X3580D01*
X3680Y10120D01*
Y9920D01*
X3580Y9820D01*
X3280D01*
X3480D02*
X3680Y9620D01*
X3880Y10120D02*
X3980Y10220D01*
X4180D01*
X4280Y10120D01*
Y10020D01*
X4180Y9920D01*
X4080D01*
X4180D01*
X4280Y9820D01*
Y9720D01*
X4180Y9620D01*
X3980D01*
X3880Y9720D01*
X3280Y15120D02*
Y15720D01*
X3580D01*
X3680Y15620D01*
Y15420D01*
X3580Y15320D01*
X3280D01*
X3480D02*
X3680Y15120D01*
X4280D02*
X3880D01*
X4280Y15520D01*
Y15620D01*
X4180Y15720D01*
X3980D01*
X3880Y15620D01*
X3280Y20620D02*
Y21220D01*
X3580D01*
X3680Y21120D01*
Y20920D01*
X3580Y20820D01*
X3280D01*
X3480D02*
X3680Y20620D01*
X3880D02*
X4080D01*
X3980D01*
Y21220D01*
X3880Y21120D01*
X39000Y22400D02*
X38900Y22500D01*
X38700D01*
X38600Y22400D01*
Y22300D01*
X38700Y22200D01*
X38900D01*
X39000Y22100D01*
Y22000D01*
X38900Y21900D01*
X38700D01*
X38600Y22000D01*
X39200Y22500D02*
X39600D01*
X39400D01*
Y21900D01*
X40200Y22400D02*
X40100Y22500D01*
X39900D01*
X39800Y22400D01*
Y22300D01*
X39900Y22200D01*
X40100D01*
X40200Y22100D01*
Y22000D01*
X40100Y21900D01*
X39900D01*
X39800Y22000D01*
X13100Y4000D02*
Y3400D01*
X13500D01*
X14100Y4000D02*
X13700D01*
Y3400D01*
X14100D01*
X13700Y3700D02*
X13900D01*
X14300Y4000D02*
Y3400D01*
X14600D01*
X14699Y3500D01*
Y3900D01*
X14600Y4000D01*
X14300D01*
X14899Y3900D02*
X14999Y4000D01*
X15199D01*
X15299Y3900D01*
Y3800D01*
X15199Y3700D01*
X15099D01*
X15199D01*
X15299Y3600D01*
Y3500D01*
X15199Y3400D01*
X14999D01*
X14899Y3500D01*
X13100Y9500D02*
Y8900D01*
X13500D01*
X14100Y9500D02*
X13700D01*
Y8900D01*
X14100D01*
X13700Y9200D02*
X13900D01*
X14300Y9500D02*
Y8900D01*
X14600D01*
X14699Y9000D01*
Y9400D01*
X14600Y9500D01*
X14300D01*
X15299Y8900D02*
X14899D01*
X15299Y9300D01*
Y9400D01*
X15199Y9500D01*
X14999D01*
X14899Y9400D01*
X13100Y15000D02*
Y14400D01*
X13500D01*
X14100Y15000D02*
X13700D01*
Y14400D01*
X14100D01*
X13700Y14700D02*
X13900D01*
X14300Y15000D02*
Y14400D01*
X14600D01*
X14699Y14500D01*
Y14900D01*
X14600Y15000D01*
X14300D01*
X14899Y14400D02*
X15099D01*
X14999D01*
Y15000D01*
X14899Y14900D01*
X41400Y19050D02*
X41200D01*
X41300D01*
Y18550D01*
X41200Y18450D01*
X41100D01*
X41000Y18550D01*
X42000Y19050D02*
X41800Y18950D01*
X41600Y18750D01*
Y18550D01*
X41700Y18450D01*
X41900D01*
X42000Y18550D01*
Y18650D01*
X41900Y18750D01*
X41600D01*
X1900Y4800D02*
X1700D01*
X1800D01*
Y4300D01*
X1700Y4200D01*
X1600D01*
X1500Y4300D01*
X2400Y4200D02*
Y4800D01*
X2100Y4500D01*
X2500D01*
X1900Y10300D02*
X1700D01*
X1800D01*
Y9800D01*
X1700Y9700D01*
X1600D01*
X1500Y9800D01*
X2100Y10200D02*
X2200Y10300D01*
X2400D01*
X2500Y10200D01*
Y10100D01*
X2400Y10000D01*
X2300D01*
X2400D01*
X2500Y9900D01*
Y9800D01*
X2400Y9700D01*
X2200D01*
X2100Y9800D01*
X1900Y15800D02*
X1700D01*
X1800D01*
Y15300D01*
X1700Y15200D01*
X1600D01*
X1500Y15300D01*
X2500Y15200D02*
X2100D01*
X2500Y15600D01*
Y15700D01*
X2400Y15800D01*
X2200D01*
X2100Y15700D01*
X1900Y21300D02*
X1700D01*
X1800D01*
Y20800D01*
X1700Y20700D01*
X1600D01*
X1500Y20800D01*
X2100Y20700D02*
X2300D01*
X2200D01*
Y21300D01*
X2100Y21200D01*
X29600Y11120D02*
Y10520D01*
X29900D01*
X30000Y10620D01*
Y11020D01*
X29900Y11120D01*
X29600D01*
X30200Y11020D02*
X30300Y11120D01*
X30500D01*
X30600Y11020D01*
Y10920D01*
X30500Y10820D01*
X30600Y10720D01*
Y10620D01*
X30500Y10520D01*
X30300D01*
X30200Y10620D01*
Y10720D01*
X30300Y10820D01*
X30200Y10920D01*
Y11020D01*
X30300Y10820D02*
X30500D01*
X23800Y18500D02*
X23200D01*
Y18200D01*
X23300Y18100D01*
X23700D01*
X23800Y18200D01*
Y18500D01*
Y17900D02*
Y17500D01*
X23700D01*
X23300Y17900D01*
X23200D01*
X9500Y9871D02*
Y9272D01*
X9800D01*
X9900Y9372D01*
Y9772D01*
X9800Y9871D01*
X9500D01*
X10500D02*
X10300Y9772D01*
X10100Y9572D01*
Y9372D01*
X10200Y9272D01*
X10400D01*
X10500Y9372D01*
Y9472D01*
X10400Y9572D01*
X10100D01*
X9500Y15371D02*
Y14772D01*
X9800D01*
X9900Y14872D01*
Y15272D01*
X9800Y15371D01*
X9500D01*
X10400Y14772D02*
Y15371D01*
X10100Y15072D01*
X10500D01*
X9500Y20871D02*
Y20272D01*
X9800D01*
X9900Y20372D01*
Y20772D01*
X9800Y20871D01*
X9500D01*
X10500Y20272D02*
X10100D01*
X10500Y20672D01*
Y20772D01*
X10400Y20871D01*
X10200D01*
X10100Y20772D01*
X24970Y19900D02*
X24870Y20000D01*
X24670D01*
X24570Y19900D01*
Y19500D01*
X24670Y19400D01*
X24870D01*
X24970Y19500D01*
X25170Y19900D02*
X25270Y20000D01*
X25470D01*
X25570Y19900D01*
Y19800D01*
X25470Y19700D01*
X25570Y19600D01*
Y19500D01*
X25470Y19400D01*
X25270D01*
X25170Y19500D01*
Y19600D01*
X25270Y19700D01*
X25170Y19800D01*
Y19900D01*
X25270Y19700D02*
X25470D01*
X20400Y14700D02*
X20300Y14800D01*
X20100D01*
X20000Y14700D01*
Y14300D01*
X20100Y14200D01*
X20300D01*
X20400Y14300D01*
X20600Y14800D02*
X21000D01*
Y14700D01*
X20600Y14300D01*
Y14200D01*
X38900Y18700D02*
X38800Y18800D01*
X38600D01*
X38500Y18700D01*
Y18300D01*
X38600Y18200D01*
X38800D01*
X38900Y18300D01*
X39500Y18800D02*
X39100D01*
Y18500D01*
X39300Y18600D01*
X39400D01*
X39500Y18500D01*
Y18300D01*
X39400Y18200D01*
X39200D01*
X39100Y18300D01*
X7380Y8420D02*
X7280Y8520D01*
X7080D01*
X6980Y8420D01*
Y8020D01*
X7080Y7920D01*
X7280D01*
X7380Y8020D01*
X7580Y8420D02*
X7680Y8520D01*
X7880D01*
X7980Y8420D01*
Y8320D01*
X7880Y8220D01*
X7780D01*
X7880D01*
X7980Y8120D01*
Y8020D01*
X7880Y7920D01*
X7680D01*
X7580Y8020D01*
X7380Y13920D02*
X7280Y14020D01*
X7080D01*
X6980Y13920D01*
Y13520D01*
X7080Y13420D01*
X7280D01*
X7380Y13520D01*
X7980Y13420D02*
X7580D01*
X7980Y13820D01*
Y13920D01*
X7880Y14020D01*
X7680D01*
X7580Y13920D01*
X7380Y19420D02*
X7280Y19520D01*
X7080D01*
X6980Y19420D01*
Y19020D01*
X7080Y18920D01*
X7280D01*
X7380Y19020D01*
X7580Y18920D02*
X7780D01*
X7680D01*
Y19520D01*
X7580Y19420D01*
D12*
X14402Y9846D02*
G03*
X14543Y11043I-402J654D01*
G01*
X13432Y11016D02*
G03*
X13598Y9846I568J-516D01*
G01*
X40484Y17000D02*
G03*
X40484Y17000I-984J0D01*
G01*
X31346Y20598D02*
G03*
X32543Y20457I654J402D01*
G01*
X32516Y21568D02*
G03*
X31346Y21402I-516J-568D01*
G01*
X38846Y20598D02*
G03*
X40043Y20457I654J402D01*
G01*
X40016Y21568D02*
G03*
X38846Y21402I-516J-568D01*
G01*
X36346Y20598D02*
G03*
X37543Y20457I654J402D01*
G01*
X37516Y21568D02*
G03*
X36346Y21402I-516J-568D01*
G01*
X33846Y20598D02*
G03*
X35043Y20457I654J402D01*
G01*
X35016Y21568D02*
G03*
X33846Y21402I-516J-568D01*
G01*
X15750Y19465D02*
G03*
X16250Y19465I250J0D01*
G01*
X15750Y13965D02*
G03*
X16250Y13965I250J0D01*
G01*
X15750Y8465D02*
G03*
X16250Y8465I250J0D01*
G01*
X10075Y6000D02*
G03*
X10075Y6000I-1575J0D01*
G01*
X13432Y5516D02*
G03*
X13598Y4346I568J-516D01*
G01*
X14402D02*
G03*
X14543Y5543I-402J654D01*
G01*
X10075Y11500D02*
G03*
X10075Y11500I-1575J0D01*
G01*
Y17000D02*
G03*
X10075Y17000I-1575J0D01*
G01*
X13432Y16516D02*
G03*
X13598Y15346I568J-516D01*
G01*
X14402D02*
G03*
X14543Y16543I-402J654D01*
G01*
X26484Y17500D02*
G03*
X26484Y17500I-984J0D01*
G01*
X21484Y16000D02*
G03*
X21484Y16000I-984J0D01*
G01*
X5031Y5549D02*
Y7451D01*
X3968D02*
X5031D01*
X3968Y5549D02*
Y7451D01*
Y5549D02*
X5031D01*
Y11049D02*
Y12951D01*
X3968D02*
X5031D01*
X3968Y11049D02*
Y12951D01*
Y11049D02*
X5031D01*
Y16549D02*
Y18451D01*
X3968D02*
X5031D01*
X3968Y16549D02*
Y18451D01*
Y16549D02*
X5031D01*
X22152Y12469D02*
Y13532D01*
Y12469D02*
X38448D01*
Y13532D01*
X22152D02*
X38448D01*
X26600Y9200D02*
X27400D01*
Y6800D02*
Y9200D01*
X26600Y6800D02*
X27400D01*
X26600D02*
Y9200D01*
X27000D02*
Y9600D01*
Y6400D02*
Y6800D01*
X18528Y6260D02*
X19472D01*
X18528D02*
Y8740D01*
X19472Y6260D02*
Y8740D01*
X18528D02*
X19472D01*
X18528Y11760D02*
X19472D01*
X18528D02*
Y14240D01*
X19472Y11760D02*
Y14240D01*
X18528D02*
X19472D01*
X18528Y19740D02*
X19472D01*
Y17260D02*
Y19740D01*
X18528Y17260D02*
Y19740D01*
Y17260D02*
X19472D01*
X8468Y7732D02*
Y9268D01*
X4532Y7732D02*
Y9268D01*
X8468D01*
X4532Y7732D02*
X8468D01*
X13432Y11016D02*
X13466Y11050D01*
X14400D02*
X14543D01*
X13466D02*
X13600D01*
X32516Y21568D02*
X32550Y21534D01*
Y20457D02*
Y20600D01*
Y21400D02*
Y21534D01*
X40016Y21568D02*
X40050Y21534D01*
Y20457D02*
Y20600D01*
Y21400D02*
Y21534D01*
X37516Y21568D02*
X37550Y21534D01*
Y20457D02*
Y20600D01*
Y21400D02*
Y21534D01*
X35016Y21568D02*
X35050Y21534D01*
Y20457D02*
Y20600D01*
Y21400D02*
Y21534D01*
X37100Y16300D02*
X37900D01*
X37100D02*
Y18700D01*
X37900D01*
Y16300D02*
Y18700D01*
X37500Y15900D02*
Y16300D01*
Y18700D02*
Y19100D01*
X34600Y16300D02*
X35400D01*
X34600D02*
Y18700D01*
X35400D01*
Y16300D02*
Y18700D01*
X35000Y15900D02*
Y16300D01*
Y18700D02*
Y19100D01*
X32100Y16300D02*
X32900D01*
X32100D02*
Y18700D01*
X32900D01*
Y16300D02*
Y18700D01*
X32500Y15900D02*
Y16300D01*
Y18700D02*
Y19100D01*
X14957Y17535D02*
X17043D01*
X16250Y19465D02*
X17043D01*
X14957D02*
X15750D01*
X17043Y17535D02*
Y19465D01*
X14957Y17535D02*
Y19465D01*
Y12035D02*
X17043D01*
X16250Y13965D02*
X17043D01*
X14957D02*
X15750D01*
X17043Y12035D02*
Y13965D01*
X14957Y12035D02*
Y13965D01*
Y6535D02*
X17043D01*
X16250Y8465D02*
X17043D01*
X14957D02*
X15750D01*
X17043Y6535D02*
Y8465D01*
X14957Y6535D02*
Y8465D01*
X12100Y5800D02*
X12900D01*
X12100D02*
Y8200D01*
X12900D01*
Y5800D02*
Y8200D01*
X12500Y5400D02*
Y5800D01*
Y8200D02*
Y8600D01*
X12100Y11300D02*
X12900D01*
X12100D02*
Y13700D01*
X12900D01*
Y11300D02*
Y13700D01*
X12500Y10900D02*
Y11300D01*
Y13700D02*
Y14100D01*
X12100Y16800D02*
X12900D01*
X12100D02*
Y19200D01*
X12900D01*
Y16800D02*
Y19200D01*
X12500Y16400D02*
Y16800D01*
Y19200D02*
Y19600D01*
X10537Y17085D02*
Y18915D01*
Y17085D02*
X11463D01*
Y18915D01*
X10537D02*
X11463D01*
X11000D02*
Y19415D01*
Y16585D02*
Y17085D01*
X10537Y17585D02*
X11463D01*
X10537Y11585D02*
Y13415D01*
Y11585D02*
X11463D01*
Y13415D01*
X10537D02*
X11463D01*
X11000D02*
Y13915D01*
Y11085D02*
Y11585D01*
X10537Y12085D02*
X11463D01*
X10537Y6085D02*
Y7915D01*
Y6085D02*
X11463D01*
Y7915D01*
X10537D02*
X11463D01*
X11000D02*
Y8415D01*
Y5585D02*
Y6085D01*
X10537Y6585D02*
X11463D01*
X37400Y1200D02*
Y2000D01*
X35000Y1200D02*
X37400D01*
X35000D02*
Y2000D01*
X37400D01*
Y1600D02*
X37800D01*
X34600D02*
X35000D01*
X32000Y1200D02*
Y2000D01*
X29600Y1200D02*
X32000D01*
X29600D02*
Y2000D01*
X32000D01*
Y1600D02*
X32400D01*
X29200D02*
X29600D01*
X2526Y1425D02*
Y3575D01*
X1474Y1425D02*
X2526D01*
X1474D02*
Y3575D01*
X2526D01*
Y6925D02*
Y9075D01*
X1474Y6925D02*
X2526D01*
X1474D02*
Y9075D01*
X2526D01*
X8250Y4000D02*
X8750D01*
X8500Y3750D02*
Y4250D01*
X13466Y5550D02*
X13600D01*
X14400D02*
X14543D01*
X13432Y5516D02*
X13466Y5550D01*
X2526Y12425D02*
Y14575D01*
X1474Y12425D02*
X2526D01*
X1474D02*
Y14575D01*
X2526D01*
Y17925D02*
Y20075D01*
X1474Y17925D02*
X2526D01*
X1474D02*
Y20075D01*
X2526D01*
X4532Y18732D02*
X8468D01*
X4532Y20268D02*
X8468D01*
X4532Y18732D02*
Y20268D01*
X8468Y18732D02*
Y20268D01*
X4532Y13232D02*
X8468D01*
X4532Y14768D02*
X8468D01*
X4532Y13232D02*
Y14768D01*
X8468Y13232D02*
Y14768D01*
X8250Y9500D02*
X8750D01*
X8500Y9250D02*
Y9750D01*
X8250Y15000D02*
X8750D01*
X8500Y14750D02*
Y15250D01*
X13466Y16550D02*
X13600D01*
X14400D02*
X14543D01*
X13432Y16516D02*
X13466Y16550D01*
X22152Y2368D02*
Y3431D01*
Y2368D02*
X38448D01*
Y3431D01*
X22152D02*
X38448D01*
X29537Y7585D02*
X30463D01*
X30000Y6585D02*
Y7085D01*
Y8915D02*
Y9415D01*
X29537Y8915D02*
X30463D01*
Y7085D02*
Y8915D01*
X29537Y7085D02*
X30463D01*
X29537D02*
Y8915D01*
X22037Y17085D02*
X22963D01*
X22500Y16085D02*
Y16585D01*
Y18415D02*
Y18915D01*
X22037Y18415D02*
X22963D01*
Y16585D02*
Y18415D01*
X22037Y16585D02*
X22963D01*
X22037D02*
Y18415D01*
X25900Y20500D02*
X26300D01*
X28700D02*
X29100D01*
X26300Y20900D02*
X28700D01*
X26300Y20100D02*
Y20900D01*
Y20100D02*
X28700D01*
Y20900D01*
X40974Y15925D02*
Y18075D01*
X42026D01*
Y15925D02*
Y18075D01*
X40974Y15925D02*
X42026D01*
X25500Y9200D02*
Y9600D01*
Y6400D02*
Y6800D01*
X25900D02*
Y9200D01*
X25100D02*
X25900D01*
X25100Y6800D02*
Y9200D01*
Y6800D02*
X25900D01*
X24000Y6400D02*
Y6800D01*
Y9200D02*
Y9600D01*
X23600Y6800D02*
Y9200D01*
Y6800D02*
X24400D01*
Y9200D01*
X23600D02*
X24400D01*
X21925Y21026D02*
X24075D01*
Y19974D02*
Y21026D01*
X21925Y19974D02*
X24075D01*
X21925D02*
Y21026D01*
X40968Y2352D02*
Y14648D01*
X42031D01*
Y2352D02*
Y14648D01*
X40968Y2352D02*
X42031D01*
D13*
X15468Y19071D02*
G03*
X15468Y19071I-118J0D01*
G01*
Y13571D02*
G03*
X15468Y13571I-118J0D01*
G01*
Y8071D02*
G03*
X15468Y8071I-118J0D01*
G01*
D14*
X22725Y13669D02*
X22858D01*
X22792D01*
Y14069D01*
X22725Y14003D01*
X37552Y13669D02*
X37685D01*
X37619D01*
Y14069D01*
X37552Y14003D01*
X38152Y14069D02*
X38018Y14003D01*
X37885Y13869D01*
Y13736D01*
X37952Y13669D01*
X38085D01*
X38152Y13736D01*
Y13803D01*
X38085Y13869D01*
X37885D01*
X14200Y11500D02*
X14500D01*
X14400D01*
X14200Y11700D01*
X14350Y11550D01*
X14500Y11700D01*
X33000Y20800D02*
Y20500D01*
Y20600D01*
X33200Y20800D01*
X33050Y20650D01*
X33200Y20500D01*
X40500Y20800D02*
Y20500D01*
Y20600D01*
X40700Y20800D01*
X40550Y20650D01*
X40700Y20500D01*
X38000Y20800D02*
Y20500D01*
Y20600D01*
X38200Y20800D01*
X38050Y20650D01*
X38200Y20500D01*
X35500Y20800D02*
Y20500D01*
Y20600D01*
X35700Y20800D01*
X35550Y20650D01*
X35700Y20500D01*
X14200Y6000D02*
X14500D01*
X14400D01*
X14200Y6200D01*
X14350Y6050D01*
X14500Y6200D01*
X14200Y17000D02*
X14500D01*
X14400D01*
X14200Y17200D01*
X14350Y17050D01*
X14500Y17200D01*
X22725Y3569D02*
X22858D01*
X22792D01*
Y3969D01*
X22725Y3903D01*
X37552Y3569D02*
X37685D01*
X37619D01*
Y3969D01*
X37552Y3903D01*
X38152Y3969D02*
X38018Y3903D01*
X37885Y3769D01*
Y3636D01*
X37952Y3569D01*
X38085D01*
X38152Y3636D01*
Y3703D01*
X38085Y3769D01*
X37885D01*
X40831Y13752D02*
Y13885D01*
Y13819D01*
X40431D01*
X40497Y13752D01*
X40831Y14352D02*
Y14085D01*
X40564Y14352D01*
X40497D01*
X40431Y14285D01*
Y14152D01*
X40497Y14085D01*
X40831Y2925D02*
Y3058D01*
Y2992D01*
X40431D01*
X40497Y2925D01*
D15*
X39505Y18539D02*
Y18145D01*
X39702Y18342D02*
X39308D01*
X25505Y19039D02*
Y18645D01*
X25702Y18842D02*
X25308D01*
X20505Y17539D02*
Y17145D01*
X20702Y17342D02*
X20308D01*
M02*
