G04*
G04 #@! TF.GenerationSoftware,Altium Limited,Altium Designer,18.0.7 (293)*
G04*
G04 Layer_Color=32896*
%FSLAX24Y24*%
%MOIN*%
G70*
G01*
G75*
%ADD12C,0.0079*%
G36*
X29329Y18000D02*
X29337Y17999D01*
X29343Y17997D01*
X29350Y17995D01*
X29356Y17993D01*
X29361Y17990D01*
X29366Y17988D01*
X29371Y17985D01*
X29375Y17982D01*
X29378Y17979D01*
X29381Y17976D01*
X29384Y17974D01*
X29385Y17972D01*
X29387Y17971D01*
X29388Y17970D01*
X29388Y17969D01*
X29391Y17965D01*
X29395Y17960D01*
X29397Y17955D01*
X29400Y17950D01*
X29401Y17945D01*
X29403Y17940D01*
X29404Y17935D01*
X29405Y17931D01*
X29406Y17926D01*
X29407Y17923D01*
X29407Y17919D01*
X29408Y17916D01*
X29408Y17914D01*
X29408Y17912D01*
Y17911D01*
Y17911D01*
Y17911D01*
Y17910D01*
X29408Y17904D01*
X29407Y17898D01*
X29406Y17892D01*
X29405Y17886D01*
X29403Y17881D01*
X29401Y17876D01*
X29399Y17872D01*
X29397Y17868D01*
X29395Y17864D01*
X29393Y17861D01*
X29391Y17858D01*
X29389Y17856D01*
X29387Y17854D01*
X29386Y17853D01*
X29385Y17852D01*
X29385Y17852D01*
X29381Y17848D01*
X29376Y17844D01*
X29372Y17841D01*
X29367Y17838D01*
X29362Y17836D01*
X29358Y17834D01*
X29353Y17833D01*
X29349Y17832D01*
X29345Y17831D01*
X29341Y17830D01*
X29338Y17829D01*
X29335Y17829D01*
X29333Y17829D01*
X29331Y17829D01*
X29329D01*
X29325Y17829D01*
X29320Y17829D01*
X29316Y17830D01*
X29311Y17831D01*
X29307Y17832D01*
X29303Y17834D01*
X29300Y17835D01*
X29296Y17837D01*
X29293Y17838D01*
X29290Y17839D01*
X29288Y17841D01*
X29286Y17842D01*
X29284Y17843D01*
X29283Y17844D01*
X29282Y17844D01*
X29282Y17845D01*
X29295Y17777D01*
X29396D01*
Y17747D01*
X29271D01*
X29246Y17877D01*
X29276Y17880D01*
X29278Y17877D01*
X29281Y17873D01*
X29284Y17870D01*
X29287Y17868D01*
X29290Y17866D01*
X29292Y17864D01*
X29293Y17864D01*
X29294Y17863D01*
X29294Y17863D01*
X29294D01*
X29299Y17861D01*
X29304Y17859D01*
X29308Y17858D01*
X29312Y17857D01*
X29314Y17857D01*
X29316Y17856D01*
X29318Y17856D01*
X29319D01*
X29320Y17856D01*
X29321D01*
X29326Y17856D01*
X29330Y17857D01*
X29334Y17857D01*
X29338Y17858D01*
X29341Y17859D01*
X29344Y17861D01*
X29347Y17862D01*
X29350Y17864D01*
X29352Y17865D01*
X29354Y17866D01*
X29356Y17868D01*
X29358Y17869D01*
X29359Y17870D01*
X29360Y17871D01*
X29360Y17871D01*
X29360Y17871D01*
X29363Y17874D01*
X29365Y17877D01*
X29367Y17881D01*
X29369Y17884D01*
X29370Y17888D01*
X29372Y17891D01*
X29373Y17895D01*
X29373Y17898D01*
X29374Y17901D01*
X29375Y17904D01*
X29375Y17907D01*
X29375Y17909D01*
Y17911D01*
X29375Y17912D01*
Y17913D01*
Y17913D01*
X29375Y17918D01*
X29375Y17923D01*
X29374Y17928D01*
X29373Y17932D01*
X29372Y17936D01*
X29370Y17940D01*
X29369Y17943D01*
X29368Y17946D01*
X29366Y17949D01*
X29365Y17951D01*
X29363Y17953D01*
X29362Y17955D01*
X29361Y17956D01*
X29361Y17957D01*
X29360Y17958D01*
X29360Y17958D01*
X29357Y17961D01*
X29354Y17963D01*
X29351Y17966D01*
X29347Y17967D01*
X29344Y17969D01*
X29341Y17970D01*
X29338Y17972D01*
X29335Y17972D01*
X29332Y17973D01*
X29330Y17974D01*
X29327Y17974D01*
X29326Y17974D01*
X29324D01*
X29323Y17974D01*
X29322D01*
X29318Y17974D01*
X29315Y17974D01*
X29312Y17973D01*
X29309Y17973D01*
X29306Y17972D01*
X29304Y17971D01*
X29301Y17970D01*
X29299Y17968D01*
X29297Y17967D01*
X29295Y17966D01*
X29294Y17965D01*
X29292Y17964D01*
X29291Y17964D01*
X29290Y17963D01*
X29290Y17963D01*
X29290Y17963D01*
X29288Y17960D01*
X29285Y17958D01*
X29284Y17955D01*
X29282Y17952D01*
X29280Y17949D01*
X29279Y17946D01*
X29277Y17940D01*
X29276Y17938D01*
X29275Y17935D01*
X29275Y17933D01*
X29274Y17931D01*
X29274Y17929D01*
X29274Y17928D01*
X29273Y17927D01*
Y17927D01*
X29241Y17930D01*
X29242Y17936D01*
X29243Y17941D01*
X29244Y17946D01*
X29246Y17951D01*
X29248Y17956D01*
X29250Y17960D01*
X29252Y17964D01*
X29254Y17967D01*
X29257Y17970D01*
X29259Y17973D01*
X29261Y17975D01*
X29262Y17977D01*
X29264Y17979D01*
X29265Y17980D01*
X29266Y17981D01*
X29266Y17981D01*
X29270Y17984D01*
X29274Y17987D01*
X29279Y17990D01*
X29284Y17992D01*
X29288Y17994D01*
X29293Y17995D01*
X29298Y17997D01*
X29302Y17998D01*
X29306Y17998D01*
X29310Y17999D01*
X29313Y17999D01*
X29316Y18000D01*
X29318Y18000D01*
X29320Y18000D01*
X29322D01*
X29329Y18000D01*
D02*
G37*
G36*
X29106Y18000D02*
X29112Y17999D01*
X29118Y17999D01*
X29124Y17998D01*
X29129Y17997D01*
X29134Y17996D01*
X29138Y17994D01*
X29143Y17993D01*
X29146Y17992D01*
X29149Y17990D01*
X29152Y17989D01*
X29154Y17988D01*
X29156Y17987D01*
X29157Y17987D01*
X29158Y17986D01*
X29158Y17986D01*
X29162Y17983D01*
X29166Y17980D01*
X29169Y17978D01*
X29173Y17974D01*
X29175Y17971D01*
X29178Y17968D01*
X29180Y17966D01*
X29182Y17963D01*
X29184Y17960D01*
X29185Y17958D01*
X29187Y17955D01*
X29188Y17953D01*
X29188Y17952D01*
X29189Y17951D01*
X29189Y17950D01*
X29189Y17950D01*
X29191Y17945D01*
X29192Y17941D01*
X29193Y17936D01*
X29194Y17931D01*
X29196Y17921D01*
X29196Y17916D01*
X29197Y17911D01*
X29197Y17907D01*
X29198Y17903D01*
X29198Y17899D01*
Y17896D01*
X29198Y17893D01*
Y17892D01*
Y17891D01*
Y17890D01*
Y17890D01*
Y17890D01*
Y17889D01*
Y17744D01*
X29165D01*
Y17889D01*
X29165Y17898D01*
X29164Y17906D01*
X29163Y17913D01*
X29162Y17919D01*
X29161Y17925D01*
X29160Y17930D01*
X29158Y17935D01*
X29157Y17939D01*
X29155Y17943D01*
X29154Y17946D01*
X29153Y17948D01*
X29151Y17950D01*
X29151Y17952D01*
X29150Y17953D01*
X29149Y17953D01*
X29149Y17953D01*
X29146Y17956D01*
X29142Y17959D01*
X29138Y17961D01*
X29134Y17963D01*
X29130Y17964D01*
X29126Y17966D01*
X29121Y17967D01*
X29117Y17968D01*
X29113Y17968D01*
X29109Y17969D01*
X29106Y17969D01*
X29103Y17970D01*
X29100D01*
X29098Y17970D01*
X29097D01*
X29093Y17970D01*
X29089Y17970D01*
X29085Y17969D01*
X29082Y17969D01*
X29079Y17968D01*
X29076Y17967D01*
X29073Y17966D01*
X29070Y17966D01*
X29068Y17965D01*
X29066Y17964D01*
X29064Y17964D01*
X29063Y17963D01*
X29062Y17962D01*
X29061Y17962D01*
X29060Y17962D01*
X29060D01*
X29058Y17960D01*
X29055Y17958D01*
X29053Y17956D01*
X29051Y17954D01*
X29049Y17952D01*
X29047Y17950D01*
X29044Y17946D01*
X29042Y17943D01*
X29041Y17942D01*
X29041Y17940D01*
X29040Y17939D01*
X29040Y17938D01*
X29039Y17938D01*
Y17938D01*
X29038Y17935D01*
X29037Y17931D01*
X29037Y17927D01*
X29036Y17924D01*
X29035Y17916D01*
X29034Y17912D01*
X29034Y17908D01*
X29034Y17904D01*
X29034Y17900D01*
X29033Y17897D01*
Y17895D01*
X29033Y17892D01*
Y17891D01*
Y17890D01*
Y17889D01*
Y17744D01*
X29000D01*
Y17889D01*
X29000Y17897D01*
X29000Y17904D01*
X29001Y17910D01*
X29001Y17916D01*
X29002Y17922D01*
X29003Y17927D01*
X29004Y17932D01*
X29005Y17936D01*
X29006Y17940D01*
X29007Y17943D01*
X29007Y17946D01*
X29008Y17948D01*
X29009Y17950D01*
X29009Y17952D01*
X29009Y17952D01*
X29009Y17953D01*
X29011Y17957D01*
X29014Y17961D01*
X29016Y17964D01*
X29019Y17968D01*
X29021Y17971D01*
X29024Y17974D01*
X29027Y17976D01*
X29029Y17979D01*
X29032Y17981D01*
X29034Y17983D01*
X29036Y17984D01*
X29038Y17986D01*
X29039Y17987D01*
X29041Y17987D01*
X29041Y17988D01*
X29041Y17988D01*
X29046Y17990D01*
X29050Y17992D01*
X29055Y17993D01*
X29060Y17995D01*
X29065Y17996D01*
X29070Y17997D01*
X29074Y17998D01*
X29079Y17999D01*
X29083Y17999D01*
X29087Y17999D01*
X29091Y18000D01*
X29094Y18000D01*
X29096Y18000D01*
X29100D01*
X29106Y18000D01*
D02*
G37*
G36*
X28397Y8000D02*
X28404Y8000D01*
X28410Y7999D01*
X28416Y7999D01*
X28422Y7998D01*
X28427Y7997D01*
X28432Y7996D01*
X28436Y7995D01*
X28440Y7994D01*
X28443Y7993D01*
X28446Y7993D01*
X28448Y7992D01*
X28450Y7991D01*
X28452Y7991D01*
X28452Y7991D01*
X28453Y7991D01*
X28457Y7989D01*
X28461Y7986D01*
X28464Y7984D01*
X28468Y7981D01*
X28471Y7979D01*
X28474Y7976D01*
X28476Y7973D01*
X28479Y7971D01*
X28481Y7968D01*
X28483Y7966D01*
X28484Y7964D01*
X28486Y7962D01*
X28486Y7961D01*
X28487Y7959D01*
X28488Y7959D01*
X28488Y7959D01*
X28490Y7954D01*
X28492Y7950D01*
X28493Y7945D01*
X28495Y7940D01*
X28496Y7935D01*
X28497Y7930D01*
X28498Y7926D01*
X28499Y7921D01*
X28499Y7917D01*
X28499Y7913D01*
X28500Y7909D01*
X28500Y7906D01*
X28500Y7904D01*
Y7900D01*
X28500Y7894D01*
X28499Y7888D01*
X28499Y7882D01*
X28498Y7876D01*
X28497Y7871D01*
X28496Y7866D01*
X28494Y7861D01*
X28493Y7857D01*
X28492Y7854D01*
X28491Y7851D01*
X28489Y7848D01*
X28488Y7846D01*
X28487Y7844D01*
X28487Y7843D01*
X28486Y7842D01*
X28486Y7842D01*
X28483Y7838D01*
X28480Y7834D01*
X28478Y7831D01*
X28474Y7827D01*
X28471Y7825D01*
X28468Y7822D01*
X28466Y7820D01*
X28463Y7818D01*
X28460Y7816D01*
X28458Y7815D01*
X28455Y7813D01*
X28453Y7812D01*
X28452Y7812D01*
X28451Y7811D01*
X28450Y7811D01*
X28450Y7811D01*
X28445Y7809D01*
X28441Y7808D01*
X28436Y7807D01*
X28431Y7806D01*
X28421Y7804D01*
X28416Y7804D01*
X28411Y7803D01*
X28407Y7803D01*
X28403Y7802D01*
X28399Y7802D01*
X28396D01*
X28393Y7802D01*
X28392D01*
X28391D01*
X28390D01*
X28390D01*
X28390D01*
X28389D01*
X28244D01*
Y7835D01*
X28389D01*
X28398Y7835D01*
X28406Y7836D01*
X28413Y7837D01*
X28419Y7838D01*
X28425Y7839D01*
X28430Y7840D01*
X28435Y7842D01*
X28439Y7843D01*
X28443Y7845D01*
X28446Y7846D01*
X28448Y7847D01*
X28450Y7849D01*
X28452Y7849D01*
X28453Y7850D01*
X28453Y7851D01*
X28453Y7851D01*
X28456Y7854D01*
X28459Y7858D01*
X28461Y7861D01*
X28463Y7866D01*
X28464Y7870D01*
X28466Y7874D01*
X28467Y7879D01*
X28468Y7883D01*
X28468Y7887D01*
X28469Y7891D01*
X28469Y7894D01*
X28470Y7897D01*
Y7900D01*
X28470Y7902D01*
Y7903D01*
X28470Y7907D01*
X28470Y7911D01*
X28469Y7915D01*
X28469Y7918D01*
X28468Y7921D01*
X28467Y7924D01*
X28466Y7927D01*
X28466Y7930D01*
X28465Y7932D01*
X28464Y7934D01*
X28464Y7936D01*
X28463Y7937D01*
X28462Y7938D01*
X28462Y7939D01*
X28462Y7940D01*
Y7940D01*
X28460Y7942D01*
X28458Y7945D01*
X28456Y7947D01*
X28454Y7949D01*
X28452Y7951D01*
X28450Y7953D01*
X28446Y7956D01*
X28443Y7958D01*
X28442Y7959D01*
X28440Y7959D01*
X28439Y7960D01*
X28438Y7960D01*
X28438Y7961D01*
X28438D01*
X28435Y7962D01*
X28431Y7963D01*
X28427Y7963D01*
X28424Y7964D01*
X28416Y7965D01*
X28412Y7966D01*
X28408Y7966D01*
X28404Y7966D01*
X28400Y7966D01*
X28397Y7967D01*
X28395D01*
X28392Y7967D01*
X28391D01*
X28390D01*
X28389D01*
X28244D01*
Y8000D01*
X28389D01*
X28397Y8000D01*
D02*
G37*
G36*
X28436Y7660D02*
X28496D01*
Y7629D01*
X28436D01*
Y7595D01*
X28407D01*
Y7629D01*
X28244D01*
Y7654D01*
X28407Y7769D01*
X28436D01*
Y7660D01*
D02*
G37*
%LPC*%
G36*
X28407Y7739D02*
X28294Y7660D01*
X28407D01*
Y7739D01*
D02*
G37*
%LPD*%
D12*
X27466Y16680D02*
Y19320D01*
X30534D01*
Y16680D02*
Y19320D01*
X27466Y16680D02*
X30534D01*
X27831Y7199D02*
Y8801D01*
Y7199D02*
X29169D01*
Y8801D01*
X27831D02*
X29169D01*
M02*
