G04*
G04 #@! TF.GenerationSoftware,Altium Limited,Altium Designer,18.0.7 (293)*
G04*
G04 Layer_Color=16711935*
%FSLAX24Y24*%
%MOIN*%
G70*
G01*
G75*
%ADD12C,0.0079*%
%ADD61C,0.0039*%
D12*
X13150Y9650D02*
Y11350D01*
X14850D01*
Y9650D02*
Y11350D01*
X13150Y9650D02*
X14850D01*
X31150Y21850D02*
X32850D01*
Y20150D02*
Y21850D01*
X31150Y20150D02*
X32850D01*
X31150D02*
Y21850D01*
X38650D02*
X40350D01*
Y20150D02*
Y21850D01*
X38650Y20150D02*
X40350D01*
X38650D02*
Y21850D01*
X36150D02*
X37850D01*
Y20150D02*
Y21850D01*
X36150Y20150D02*
X37850D01*
X36150D02*
Y21850D01*
X33650D02*
X35350D01*
Y20150D02*
Y21850D01*
X33650Y20150D02*
X35350D01*
X33650D02*
Y21850D01*
X13150Y4150D02*
X14850D01*
Y5850D01*
X13150D02*
X14850D01*
X13150Y4150D02*
Y5850D01*
Y15150D02*
X14850D01*
Y16850D01*
X13150D02*
X14850D01*
X13150Y15150D02*
Y16850D01*
D61*
X40484Y17000D02*
G03*
X40484Y17000I-984J0D01*
G01*
X15173Y19110D02*
G03*
X15173Y19110I-197J0D01*
G01*
Y13610D02*
G03*
X15173Y13610I-197J0D01*
G01*
Y8110D02*
G03*
X15173Y8110I-197J0D01*
G01*
X10075Y6000D02*
G03*
X10075Y6000I-1575J0D01*
G01*
Y11500D02*
G03*
X10075Y11500I-1575J0D01*
G01*
Y17000D02*
G03*
X10075Y17000I-1575J0D01*
G01*
X26484Y17500D02*
G03*
X26484Y17500I-984J0D01*
G01*
X21484Y16000D02*
G03*
X21484Y16000I-984J0D01*
G01*
X22202Y12508D02*
Y13492D01*
Y12508D02*
X38398D01*
Y13492D01*
X22202D02*
X38398D01*
X18528Y8740D02*
X19472D01*
Y6260D02*
Y8740D01*
X18528Y6260D02*
Y8740D01*
Y6260D02*
X19472D01*
X18528Y14240D02*
X19472D01*
Y11760D02*
Y14240D01*
X18528Y11760D02*
Y14240D01*
Y11760D02*
X19472D01*
X18528Y17260D02*
X19472D01*
X18528D02*
Y19740D01*
X19472Y17260D02*
Y19740D01*
X18528D02*
X19472D01*
X8467Y9268D02*
X8468Y9266D01*
X4532Y9268D02*
X8468D01*
Y7732D02*
Y9266D01*
X4532Y7732D02*
X8468D01*
X4532D02*
Y9268D01*
X14622Y17535D02*
X17378D01*
X14622Y19465D02*
X17378D01*
Y17535D02*
Y19465D01*
X14622Y17535D02*
Y19465D01*
Y12035D02*
X17378D01*
X14622Y13965D02*
X17378D01*
Y12035D02*
Y13965D01*
X14622Y12035D02*
Y13965D01*
Y6535D02*
X17378D01*
X14622Y8465D02*
X17378D01*
Y6535D02*
Y8465D01*
X14622Y6535D02*
Y8465D01*
X4532Y18732D02*
Y20268D01*
Y18732D02*
X8468D01*
Y20266D01*
X4532Y20268D02*
X8468D01*
X8467D02*
X8468Y20266D01*
X4532Y13232D02*
Y14768D01*
Y13232D02*
X8468D01*
Y14766D01*
X4532Y14768D02*
X8468D01*
X8467D02*
X8468Y14766D01*
X22202Y2408D02*
Y3392D01*
Y2408D02*
X38398D01*
Y3392D01*
X22202D02*
X38398D01*
X41008Y2402D02*
Y14598D01*
X41992D01*
Y2402D02*
Y14598D01*
X41008Y2402D02*
X41992D01*
M02*
