M48
;Layer_Color=9474304
;FILE_FORMAT=2:4
INCH,LZ
;TYPE=PLATED
T1F00S00C0.0280
T2F00S00C0.0315
T3F00S00C0.0335
T4F00S00C0.0354
T5F00S00C0.0394
T6F00S00C0.0402
T7F00S00C0.0413
T8F00S00C0.0433
T9F00S00C0.1181
%
T01
X0395Y013
T02
X0205Y015606
Y016394
X0255Y017106
Y017894
X0395Y017394
Y016606
T03
X0328Y0016
X0342
X0382
X0288
X027Y006
X0255
X024
X019Y005728
X0125Y005
Y009
Y0105
Y0145
Y016
Y02
X019Y020272
Y016728
Y014772
Y011228
Y009272
X024Y01
X0255
X027
X0255Y0205
X0295
X0325Y0195
X035
X0375
Y0155
X035
X0325
T04
X0085Y005311
Y006689
Y010811
Y012189
Y016311
Y017689
X0145Y018
Y019
X0175
Y018
Y0135
Y0125
X0145
Y0135
Y008
Y007
X0175
Y008
T05
X014Y0045
Y0055
X0055Y006
X0035
Y007
X0055
Y0115
Y0125
X0035
Y0115
Y017
Y018
X0055
Y017
X014Y0165
Y0155
Y011
Y01
X0315Y021
X0325
X034
X035
X0365
X0375
X039
X04
T06
X0298Y0029
X0308
X0318
X0328
X0338
X0348
X0358
X0368
X0378
X0415Y003
Y004
Y005
Y006
X0288Y0029
X0278
X0268
X0258
X0248
X0238
X0228
X002Y003
Y002
Y0075
Y0085
Y013
Y014
Y0185
Y0195
X0225Y0205
X0235
X0238Y013
X0228
X0248
X0258
X0268
X0278
X0288
X0298
X0308
X0318
X0328
X0338
X0348
X0358
X0368
X0378
X0415
Y014
Y012
Y011
Y01
Y009
Y008
Y007
Y0165
Y0175
T07
X03Y006122
X011Y005122
Y008878
Y010622
Y014378
Y016122
Y019878
X0225Y019378
Y015622
X03Y009878
T08
X003547Y0085
Y014
Y0195
X009453
Y014
Y0085
T09
X04275Y0012
X0055
Y0218
X04275
M30
