G04*
G04 #@! TF.GenerationSoftware,Altium Limited,Altium Designer,18.0.7 (293)*
G04*
G04 Layer_Color=32896*
%FSLAX24Y24*%
%MOIN*%
G70*
G01*
G75*
%ADD12C,0.0079*%
G36*
X36829Y32500D02*
X36837Y32499D01*
X36843Y32497D01*
X36850Y32495D01*
X36856Y32493D01*
X36861Y32490D01*
X36866Y32488D01*
X36871Y32485D01*
X36875Y32482D01*
X36878Y32479D01*
X36881Y32476D01*
X36884Y32474D01*
X36885Y32472D01*
X36887Y32471D01*
X36888Y32470D01*
X36888Y32469D01*
X36891Y32465D01*
X36895Y32460D01*
X36897Y32455D01*
X36900Y32450D01*
X36901Y32445D01*
X36903Y32440D01*
X36904Y32435D01*
X36905Y32431D01*
X36906Y32426D01*
X36907Y32423D01*
X36907Y32419D01*
X36908Y32416D01*
X36908Y32414D01*
X36908Y32412D01*
Y32411D01*
Y32411D01*
Y32411D01*
Y32410D01*
X36908Y32404D01*
X36907Y32398D01*
X36906Y32392D01*
X36905Y32386D01*
X36903Y32381D01*
X36901Y32376D01*
X36899Y32372D01*
X36897Y32368D01*
X36895Y32364D01*
X36893Y32361D01*
X36891Y32358D01*
X36889Y32356D01*
X36887Y32354D01*
X36886Y32353D01*
X36885Y32352D01*
X36885Y32352D01*
X36881Y32348D01*
X36876Y32344D01*
X36872Y32341D01*
X36867Y32338D01*
X36862Y32336D01*
X36858Y32334D01*
X36853Y32333D01*
X36849Y32332D01*
X36845Y32331D01*
X36841Y32330D01*
X36838Y32329D01*
X36835Y32329D01*
X36833Y32329D01*
X36831Y32329D01*
X36829D01*
X36825Y32329D01*
X36820Y32329D01*
X36816Y32330D01*
X36811Y32331D01*
X36807Y32332D01*
X36803Y32334D01*
X36800Y32335D01*
X36796Y32337D01*
X36793Y32338D01*
X36790Y32339D01*
X36788Y32341D01*
X36786Y32342D01*
X36784Y32343D01*
X36783Y32344D01*
X36782Y32344D01*
X36782Y32345D01*
X36795Y32277D01*
X36896D01*
Y32247D01*
X36771D01*
X36746Y32377D01*
X36776Y32380D01*
X36778Y32377D01*
X36781Y32373D01*
X36784Y32370D01*
X36787Y32368D01*
X36790Y32366D01*
X36792Y32364D01*
X36793Y32364D01*
X36794Y32363D01*
X36794Y32363D01*
X36794D01*
X36799Y32361D01*
X36804Y32359D01*
X36808Y32358D01*
X36812Y32357D01*
X36814Y32357D01*
X36816Y32356D01*
X36818Y32356D01*
X36819D01*
X36820Y32356D01*
X36821D01*
X36826Y32356D01*
X36830Y32357D01*
X36834Y32357D01*
X36838Y32358D01*
X36841Y32359D01*
X36844Y32361D01*
X36847Y32362D01*
X36850Y32364D01*
X36852Y32365D01*
X36854Y32366D01*
X36856Y32368D01*
X36858Y32369D01*
X36859Y32370D01*
X36860Y32371D01*
X36860Y32371D01*
X36860Y32371D01*
X36863Y32374D01*
X36865Y32377D01*
X36867Y32381D01*
X36869Y32384D01*
X36870Y32388D01*
X36872Y32391D01*
X36873Y32395D01*
X36873Y32398D01*
X36874Y32401D01*
X36875Y32404D01*
X36875Y32407D01*
X36875Y32409D01*
Y32411D01*
X36875Y32412D01*
Y32413D01*
Y32413D01*
X36875Y32418D01*
X36875Y32423D01*
X36874Y32428D01*
X36873Y32432D01*
X36872Y32436D01*
X36870Y32440D01*
X36869Y32443D01*
X36868Y32446D01*
X36866Y32449D01*
X36865Y32451D01*
X36863Y32453D01*
X36862Y32455D01*
X36861Y32456D01*
X36861Y32457D01*
X36860Y32458D01*
X36860Y32458D01*
X36857Y32461D01*
X36854Y32463D01*
X36851Y32466D01*
X36847Y32467D01*
X36844Y32469D01*
X36841Y32470D01*
X36838Y32472D01*
X36835Y32472D01*
X36832Y32473D01*
X36830Y32474D01*
X36827Y32474D01*
X36826Y32474D01*
X36824D01*
X36823Y32474D01*
X36822D01*
X36818Y32474D01*
X36815Y32474D01*
X36812Y32473D01*
X36809Y32473D01*
X36806Y32472D01*
X36804Y32471D01*
X36801Y32470D01*
X36799Y32468D01*
X36797Y32467D01*
X36795Y32466D01*
X36794Y32465D01*
X36792Y32464D01*
X36791Y32464D01*
X36790Y32463D01*
X36790Y32463D01*
X36790Y32463D01*
X36788Y32460D01*
X36785Y32458D01*
X36784Y32455D01*
X36782Y32452D01*
X36780Y32449D01*
X36779Y32446D01*
X36777Y32440D01*
X36776Y32438D01*
X36775Y32435D01*
X36775Y32433D01*
X36774Y32431D01*
X36774Y32429D01*
X36774Y32428D01*
X36773Y32427D01*
Y32427D01*
X36741Y32430D01*
X36742Y32436D01*
X36743Y32441D01*
X36744Y32446D01*
X36746Y32451D01*
X36748Y32456D01*
X36750Y32460D01*
X36752Y32464D01*
X36754Y32467D01*
X36757Y32470D01*
X36759Y32473D01*
X36761Y32475D01*
X36762Y32477D01*
X36764Y32479D01*
X36765Y32480D01*
X36766Y32481D01*
X36766Y32481D01*
X36770Y32484D01*
X36774Y32487D01*
X36779Y32490D01*
X36784Y32492D01*
X36788Y32494D01*
X36793Y32495D01*
X36798Y32497D01*
X36802Y32498D01*
X36806Y32498D01*
X36810Y32499D01*
X36813Y32499D01*
X36816Y32500D01*
X36818Y32500D01*
X36820Y32500D01*
X36822D01*
X36829Y32500D01*
D02*
G37*
G36*
X36606Y32500D02*
X36612Y32499D01*
X36618Y32499D01*
X36624Y32498D01*
X36629Y32497D01*
X36634Y32496D01*
X36638Y32494D01*
X36643Y32493D01*
X36646Y32492D01*
X36649Y32490D01*
X36652Y32489D01*
X36654Y32488D01*
X36656Y32487D01*
X36657Y32487D01*
X36658Y32486D01*
X36658Y32486D01*
X36662Y32483D01*
X36666Y32480D01*
X36669Y32478D01*
X36673Y32474D01*
X36675Y32471D01*
X36678Y32468D01*
X36680Y32466D01*
X36682Y32463D01*
X36684Y32460D01*
X36685Y32458D01*
X36687Y32455D01*
X36688Y32453D01*
X36688Y32452D01*
X36689Y32451D01*
X36689Y32450D01*
X36689Y32450D01*
X36691Y32445D01*
X36692Y32441D01*
X36693Y32436D01*
X36694Y32431D01*
X36696Y32421D01*
X36696Y32416D01*
X36697Y32411D01*
X36697Y32407D01*
X36698Y32403D01*
X36698Y32399D01*
Y32396D01*
X36698Y32393D01*
Y32392D01*
Y32391D01*
Y32390D01*
Y32390D01*
Y32390D01*
Y32389D01*
Y32244D01*
X36665D01*
Y32389D01*
X36665Y32398D01*
X36664Y32406D01*
X36663Y32413D01*
X36662Y32419D01*
X36661Y32425D01*
X36660Y32430D01*
X36658Y32435D01*
X36657Y32439D01*
X36655Y32443D01*
X36654Y32446D01*
X36653Y32448D01*
X36651Y32450D01*
X36651Y32452D01*
X36650Y32453D01*
X36649Y32453D01*
X36649Y32453D01*
X36646Y32456D01*
X36642Y32459D01*
X36638Y32461D01*
X36634Y32463D01*
X36630Y32464D01*
X36626Y32466D01*
X36621Y32467D01*
X36617Y32468D01*
X36613Y32468D01*
X36609Y32469D01*
X36606Y32469D01*
X36603Y32470D01*
X36600D01*
X36598Y32470D01*
X36597D01*
X36593Y32470D01*
X36589Y32470D01*
X36585Y32469D01*
X36582Y32469D01*
X36579Y32468D01*
X36576Y32467D01*
X36573Y32466D01*
X36570Y32466D01*
X36568Y32465D01*
X36566Y32464D01*
X36564Y32464D01*
X36563Y32463D01*
X36562Y32462D01*
X36561Y32462D01*
X36560Y32462D01*
X36560D01*
X36558Y32460D01*
X36555Y32458D01*
X36553Y32456D01*
X36551Y32454D01*
X36549Y32452D01*
X36547Y32450D01*
X36544Y32446D01*
X36542Y32443D01*
X36541Y32442D01*
X36541Y32440D01*
X36540Y32439D01*
X36540Y32438D01*
X36539Y32438D01*
Y32438D01*
X36538Y32435D01*
X36537Y32431D01*
X36537Y32427D01*
X36536Y32424D01*
X36535Y32416D01*
X36534Y32412D01*
X36534Y32408D01*
X36534Y32404D01*
X36534Y32400D01*
X36533Y32397D01*
Y32395D01*
X36533Y32392D01*
Y32391D01*
Y32390D01*
Y32389D01*
Y32244D01*
X36500D01*
Y32389D01*
X36500Y32397D01*
X36500Y32404D01*
X36501Y32410D01*
X36501Y32416D01*
X36502Y32422D01*
X36503Y32427D01*
X36504Y32432D01*
X36505Y32436D01*
X36506Y32440D01*
X36507Y32443D01*
X36507Y32446D01*
X36508Y32448D01*
X36509Y32450D01*
X36509Y32452D01*
X36509Y32452D01*
X36509Y32453D01*
X36511Y32457D01*
X36514Y32461D01*
X36516Y32464D01*
X36519Y32468D01*
X36521Y32471D01*
X36524Y32474D01*
X36527Y32476D01*
X36529Y32479D01*
X36532Y32481D01*
X36534Y32483D01*
X36536Y32484D01*
X36538Y32486D01*
X36539Y32487D01*
X36541Y32487D01*
X36541Y32488D01*
X36541Y32488D01*
X36546Y32490D01*
X36550Y32492D01*
X36555Y32493D01*
X36560Y32495D01*
X36565Y32496D01*
X36570Y32497D01*
X36574Y32498D01*
X36579Y32499D01*
X36583Y32499D01*
X36587Y32499D01*
X36591Y32500D01*
X36594Y32500D01*
X36596Y32500D01*
X36600D01*
X36606Y32500D01*
D02*
G37*
G36*
X35897Y22500D02*
X35904Y22500D01*
X35910Y22499D01*
X35916Y22499D01*
X35922Y22498D01*
X35927Y22497D01*
X35932Y22496D01*
X35936Y22495D01*
X35940Y22494D01*
X35943Y22493D01*
X35946Y22493D01*
X35948Y22492D01*
X35950Y22491D01*
X35952Y22491D01*
X35952Y22491D01*
X35953Y22491D01*
X35957Y22489D01*
X35961Y22486D01*
X35964Y22484D01*
X35968Y22481D01*
X35971Y22479D01*
X35974Y22476D01*
X35976Y22473D01*
X35979Y22471D01*
X35981Y22468D01*
X35983Y22466D01*
X35984Y22464D01*
X35986Y22462D01*
X35986Y22461D01*
X35987Y22459D01*
X35988Y22459D01*
X35988Y22459D01*
X35990Y22454D01*
X35992Y22450D01*
X35993Y22445D01*
X35995Y22440D01*
X35996Y22435D01*
X35997Y22430D01*
X35998Y22426D01*
X35999Y22421D01*
X35999Y22417D01*
X35999Y22413D01*
X36000Y22409D01*
X36000Y22406D01*
X36000Y22404D01*
Y22400D01*
X36000Y22394D01*
X35999Y22388D01*
X35999Y22382D01*
X35998Y22376D01*
X35997Y22371D01*
X35996Y22366D01*
X35994Y22362D01*
X35993Y22357D01*
X35992Y22354D01*
X35991Y22351D01*
X35989Y22348D01*
X35988Y22346D01*
X35987Y22344D01*
X35987Y22343D01*
X35986Y22342D01*
X35986Y22342D01*
X35983Y22338D01*
X35980Y22334D01*
X35978Y22331D01*
X35974Y22327D01*
X35971Y22325D01*
X35968Y22322D01*
X35966Y22320D01*
X35963Y22318D01*
X35960Y22316D01*
X35958Y22315D01*
X35955Y22313D01*
X35953Y22312D01*
X35952Y22312D01*
X35951Y22311D01*
X35950Y22311D01*
X35950Y22311D01*
X35945Y22309D01*
X35941Y22308D01*
X35936Y22307D01*
X35931Y22306D01*
X35921Y22304D01*
X35916Y22304D01*
X35911Y22303D01*
X35907Y22303D01*
X35903Y22302D01*
X35899Y22302D01*
X35896D01*
X35893Y22302D01*
X35892D01*
X35891D01*
X35890D01*
X35890D01*
X35890D01*
X35889D01*
X35744D01*
Y22335D01*
X35889D01*
X35898Y22335D01*
X35906Y22336D01*
X35913Y22337D01*
X35919Y22338D01*
X35925Y22339D01*
X35930Y22340D01*
X35935Y22342D01*
X35939Y22343D01*
X35943Y22345D01*
X35946Y22346D01*
X35948Y22347D01*
X35950Y22349D01*
X35952Y22349D01*
X35953Y22350D01*
X35953Y22351D01*
X35953Y22351D01*
X35956Y22354D01*
X35959Y22358D01*
X35961Y22362D01*
X35963Y22366D01*
X35964Y22370D01*
X35966Y22374D01*
X35967Y22379D01*
X35968Y22383D01*
X35968Y22387D01*
X35969Y22391D01*
X35969Y22394D01*
X35970Y22397D01*
Y22400D01*
X35970Y22402D01*
Y22403D01*
X35970Y22407D01*
X35970Y22411D01*
X35969Y22415D01*
X35969Y22418D01*
X35968Y22421D01*
X35967Y22424D01*
X35966Y22427D01*
X35966Y22430D01*
X35965Y22432D01*
X35964Y22434D01*
X35964Y22436D01*
X35963Y22437D01*
X35962Y22438D01*
X35962Y22439D01*
X35962Y22440D01*
Y22440D01*
X35960Y22442D01*
X35958Y22445D01*
X35956Y22447D01*
X35954Y22449D01*
X35952Y22451D01*
X35950Y22453D01*
X35946Y22456D01*
X35943Y22458D01*
X35942Y22459D01*
X35940Y22459D01*
X35939Y22460D01*
X35938Y22460D01*
X35938Y22461D01*
X35938D01*
X35935Y22462D01*
X35931Y22463D01*
X35927Y22463D01*
X35924Y22464D01*
X35916Y22465D01*
X35912Y22466D01*
X35908Y22466D01*
X35904Y22466D01*
X35900Y22466D01*
X35897Y22467D01*
X35895D01*
X35892Y22467D01*
X35891D01*
X35890D01*
X35889D01*
X35744D01*
Y22500D01*
X35889D01*
X35897Y22500D01*
D02*
G37*
G36*
X35936Y22160D02*
X35996D01*
Y22129D01*
X35936D01*
Y22095D01*
X35907D01*
Y22129D01*
X35744D01*
Y22154D01*
X35907Y22269D01*
X35936D01*
Y22160D01*
D02*
G37*
%LPC*%
G36*
X35907Y22239D02*
X35794Y22160D01*
X35907D01*
Y22239D01*
D02*
G37*
%LPD*%
D12*
X34966Y31180D02*
Y33820D01*
X38034D01*
Y31180D02*
Y33820D01*
X34966Y31180D02*
X38034D01*
X35331Y21699D02*
Y23301D01*
Y21699D02*
X36669D01*
Y23301D01*
X35331D02*
X36669D01*
M02*
