G04*
G04 #@! TF.GenerationSoftware,Altium Limited,Altium Designer,18.0.7 (293)*
G04*
G04 Layer_Color=255*
%FSLAX24Y24*%
%MOIN*%
G70*
G01*
G75*
%ADD16R,0.0610X0.0610*%
%ADD17C,0.0610*%
%ADD33R,0.0618X0.0618*%
%ADD34R,0.0618X0.0618*%
%ADD35C,0.0618*%
%ADD39C,0.1575*%
%ADD40C,0.1535*%
%ADD41R,0.0598X0.0598*%
%ADD42C,0.0598*%
%ADD43C,0.0551*%
%ADD44R,0.0531X0.0531*%
%ADD45C,0.0531*%
%ADD46C,0.0630*%
%ADD47R,0.0630X0.0630*%
%ADD48C,0.0512*%
%ADD49R,0.0512X0.0512*%
%ADD50R,0.0598X0.0598*%
%ADD51C,0.0591*%
%ADD52R,0.0591X0.0591*%
%ADD53R,0.0551X0.0551*%
D16*
X13000Y20500D02*
D03*
Y26000D02*
D03*
Y31500D02*
D03*
D17*
Y21500D02*
D03*
X11000Y20500D02*
D03*
Y21500D02*
D03*
X13000Y27000D02*
D03*
X11000Y26000D02*
D03*
Y27000D02*
D03*
X13000Y32500D02*
D03*
X11000D02*
D03*
Y31500D02*
D03*
X18500Y30622D02*
D03*
Y34378D02*
D03*
Y25122D02*
D03*
Y28878D02*
D03*
Y19622D02*
D03*
Y23378D02*
D03*
X37500Y20622D02*
D03*
X30000Y30122D02*
D03*
Y33878D02*
D03*
X37500Y24378D02*
D03*
D33*
X9500Y23000D02*
D03*
Y28500D02*
D03*
Y34000D02*
D03*
Y17500D02*
D03*
X49000Y31000D02*
D03*
D34*
X30000Y35000D02*
D03*
D35*
X9500Y27500D02*
D03*
Y33000D02*
D03*
Y16500D02*
D03*
Y22000D02*
D03*
X49000Y32000D02*
D03*
X31000Y35000D02*
D03*
D39*
X50250Y36300D02*
D03*
Y15700D02*
D03*
X13000Y36300D02*
D03*
D40*
Y15700D02*
D03*
D41*
X30300Y27500D02*
D03*
Y17400D02*
D03*
D42*
X34300Y27500D02*
D03*
X35300D02*
D03*
X33300D02*
D03*
X31300D02*
D03*
X41300D02*
D03*
X39300D02*
D03*
X36300D02*
D03*
X32300D02*
D03*
X37300D02*
D03*
X38300D02*
D03*
X40300D02*
D03*
X42300D02*
D03*
X43300D02*
D03*
X44300D02*
D03*
X45300D02*
D03*
X49000Y28500D02*
D03*
Y27500D02*
D03*
Y25500D02*
D03*
Y24500D02*
D03*
Y22500D02*
D03*
Y21500D02*
D03*
Y20500D02*
D03*
Y18500D02*
D03*
Y19500D02*
D03*
Y23500D02*
D03*
Y26500D02*
D03*
X41300Y17400D02*
D03*
X39300D02*
D03*
X37300D02*
D03*
X38300D02*
D03*
X40300D02*
D03*
X42300D02*
D03*
X43300D02*
D03*
X44300D02*
D03*
X33300D02*
D03*
X36300D02*
D03*
X32300D02*
D03*
X31300D02*
D03*
X34300D02*
D03*
X35300D02*
D03*
X45300D02*
D03*
D43*
X34500Y20500D02*
D03*
Y24500D02*
D03*
X45000Y30000D02*
D03*
Y34000D02*
D03*
X42500Y30000D02*
D03*
Y34000D02*
D03*
X40000Y30000D02*
D03*
Y34000D02*
D03*
X20000Y19500D02*
D03*
Y23500D02*
D03*
Y25000D02*
D03*
Y29000D02*
D03*
Y30500D02*
D03*
Y34500D02*
D03*
X45700Y16100D02*
D03*
X41700D02*
D03*
X40300D02*
D03*
X36300D02*
D03*
X33000Y35000D02*
D03*
X31500Y20500D02*
D03*
X37000Y35000D02*
D03*
X16000Y21189D02*
D03*
Y26689D02*
D03*
Y32189D02*
D03*
X33000Y20500D02*
D03*
X31500Y24500D02*
D03*
X33000D02*
D03*
D44*
X26500Y23772D02*
D03*
Y29272D02*
D03*
Y34772D02*
D03*
D45*
Y20228D02*
D03*
Y25728D02*
D03*
Y31228D02*
D03*
D46*
X16953Y23000D02*
D03*
X21500Y24500D02*
D03*
Y25500D02*
D03*
X39000Y35500D02*
D03*
X40000D02*
D03*
X47500D02*
D03*
X46500D02*
D03*
X44000D02*
D03*
X45000D02*
D03*
X41500D02*
D03*
X42500D02*
D03*
X21500Y20000D02*
D03*
Y31000D02*
D03*
X16953Y28500D02*
D03*
Y34000D02*
D03*
X21500Y19000D02*
D03*
Y30000D02*
D03*
D47*
X11047Y23000D02*
D03*
Y28500D02*
D03*
Y34000D02*
D03*
D48*
X47000Y31106D02*
D03*
X28000Y30106D02*
D03*
X33000Y31606D02*
D03*
D49*
X47000Y31894D02*
D03*
X28000Y30894D02*
D03*
X33000Y32394D02*
D03*
D50*
X49000Y17500D02*
D03*
D51*
X25000Y32500D02*
D03*
X22000D02*
D03*
X25000Y33500D02*
D03*
Y27000D02*
D03*
X22000D02*
D03*
X25000Y28000D02*
D03*
Y21500D02*
D03*
X22000D02*
D03*
X25000Y22500D02*
D03*
D52*
X22000Y33500D02*
D03*
Y28000D02*
D03*
Y22500D02*
D03*
D53*
X16000Y19811D02*
D03*
Y25311D02*
D03*
Y30811D02*
D03*
M02*
