G04*
G04 #@! TF.GenerationSoftware,Altium Limited,Altium Designer,18.0.7 (293)*
G04*
G04 Layer_Physical_Order=1*
G04 Layer_Color=255*
%FSLAX24Y24*%
%MOIN*%
G70*
G01*
G75*
%ADD16R,0.0610X0.0610*%
%ADD17C,0.0610*%
%ADD33R,0.0618X0.0618*%
%ADD34R,0.0618X0.0618*%
%ADD35C,0.0618*%
%ADD38C,0.0250*%
%ADD39C,0.1575*%
%ADD40C,0.1535*%
%ADD41R,0.0598X0.0598*%
%ADD42C,0.0598*%
%ADD43C,0.0551*%
%ADD44R,0.0531X0.0531*%
%ADD45C,0.0531*%
%ADD46C,0.0630*%
%ADD47R,0.0630X0.0630*%
%ADD48C,0.0512*%
%ADD49R,0.0512X0.0512*%
%ADD50R,0.0598X0.0598*%
%ADD51C,0.0591*%
%ADD52R,0.0591X0.0591*%
%ADD53R,0.0551X0.0551*%
%ADD54C,0.0500*%
G36*
X51500Y14500D02*
X24000D01*
Y37500D01*
X51500D01*
Y14500D01*
D02*
G37*
%LPC*%
G36*
X40055Y35915D02*
X39945D01*
X39840Y35887D01*
X39745Y35832D01*
X39668Y35755D01*
X39613Y35660D01*
X39585Y35555D01*
Y35513D01*
X39539Y35494D01*
X39443Y35590D01*
X39397Y35620D01*
X39387Y35660D01*
X39332Y35755D01*
X39255Y35832D01*
X39160Y35887D01*
X39055Y35915D01*
X38945D01*
X38840Y35887D01*
X38745Y35832D01*
X38668Y35755D01*
X38613Y35660D01*
X38585Y35555D01*
Y35445D01*
X38613Y35340D01*
X38668Y35245D01*
X38745Y35168D01*
X38840Y35113D01*
X38945Y35085D01*
X39055D01*
X39160Y35113D01*
X39230Y35154D01*
X39963Y34421D01*
X39940Y34373D01*
X39855Y34350D01*
X39769Y34301D01*
X39699Y34231D01*
X39650Y34145D01*
X39624Y34049D01*
Y33951D01*
X39650Y33855D01*
X39699Y33769D01*
X39769Y33699D01*
X39855Y33650D01*
X39951Y33624D01*
X40049D01*
X40145Y33650D01*
X40231Y33699D01*
X40301Y33769D01*
X40350Y33855D01*
X40373Y33940D01*
X40421Y33963D01*
X40491Y33893D01*
Y28080D01*
X40508Y27992D01*
X40558Y27917D01*
X40905Y27570D01*
X40901Y27553D01*
Y27447D01*
X40928Y27346D01*
X40981Y27255D01*
X41055Y27181D01*
X41146Y27128D01*
X41247Y27101D01*
X41353D01*
X41454Y27128D01*
X41545Y27181D01*
X41619Y27255D01*
X41672Y27346D01*
X41699Y27447D01*
Y27553D01*
X41672Y27654D01*
X41619Y27745D01*
X41545Y27819D01*
X41454Y27872D01*
X41353Y27899D01*
X41247D01*
X41230Y27895D01*
X40950Y28175D01*
Y33988D01*
X40932Y34075D01*
X40883Y34150D01*
X39994Y35039D01*
X40013Y35085D01*
X40055D01*
X40160Y35113D01*
X40255Y35168D01*
X40332Y35245D01*
X40387Y35340D01*
X40415Y35445D01*
Y35555D01*
X40387Y35660D01*
X40332Y35755D01*
X40255Y35832D01*
X40160Y35887D01*
X40055Y35915D01*
D02*
G37*
G36*
X46555D02*
X46445D01*
X46340Y35887D01*
X46245Y35832D01*
X46168Y35755D01*
X46113Y35660D01*
X46085Y35555D01*
Y35445D01*
X46113Y35340D01*
X46168Y35245D01*
X46245Y35168D01*
X46340Y35113D01*
X46445Y35085D01*
X46555D01*
X46660Y35113D01*
X46755Y35168D01*
X46832Y35245D01*
X46887Y35340D01*
X46915Y35445D01*
Y35555D01*
X46887Y35660D01*
X46832Y35755D01*
X46755Y35832D01*
X46660Y35887D01*
X46555Y35915D01*
D02*
G37*
G36*
X45055D02*
X44945D01*
X44840Y35887D01*
X44745Y35832D01*
X44668Y35755D01*
X44613Y35660D01*
X44585Y35555D01*
Y35445D01*
X44613Y35340D01*
X44668Y35245D01*
X44745Y35168D01*
X44840Y35113D01*
X44945Y35085D01*
X45055D01*
X45160Y35113D01*
X45255Y35168D01*
X45332Y35245D01*
X45387Y35340D01*
X45415Y35445D01*
Y35555D01*
X45387Y35660D01*
X45332Y35755D01*
X45255Y35832D01*
X45160Y35887D01*
X45055Y35915D01*
D02*
G37*
G36*
X44055D02*
X43945D01*
X43840Y35887D01*
X43745Y35832D01*
X43668Y35755D01*
X43613Y35660D01*
X43585Y35555D01*
Y35445D01*
X43593Y35417D01*
X43138Y34962D01*
X43088Y34888D01*
X43071Y34800D01*
Y27829D01*
X43055Y27819D01*
X42981Y27745D01*
X42928Y27654D01*
X42901Y27553D01*
Y27447D01*
X42928Y27346D01*
X42981Y27255D01*
X43055Y27181D01*
X43146Y27128D01*
X43247Y27101D01*
X43353D01*
X43454Y27128D01*
X43545Y27181D01*
X43619Y27255D01*
X43672Y27346D01*
X43699Y27447D01*
Y27553D01*
X43672Y27654D01*
X43619Y27745D01*
X43545Y27819D01*
X43529Y27829D01*
Y34705D01*
X43917Y35093D01*
X43945Y35085D01*
X44055D01*
X44160Y35113D01*
X44255Y35168D01*
X44332Y35245D01*
X44387Y35340D01*
X44415Y35445D01*
Y35555D01*
X44387Y35660D01*
X44332Y35755D01*
X44255Y35832D01*
X44160Y35887D01*
X44055Y35915D01*
D02*
G37*
G36*
X42555D02*
X42445D01*
X42340Y35887D01*
X42245Y35832D01*
X42168Y35755D01*
X42113Y35660D01*
X42085Y35555D01*
Y35445D01*
X42113Y35340D01*
X42168Y35245D01*
X42245Y35168D01*
X42340Y35113D01*
X42445Y35085D01*
X42555D01*
X42660Y35113D01*
X42755Y35168D01*
X42832Y35245D01*
X42887Y35340D01*
X42915Y35445D01*
Y35555D01*
X42887Y35660D01*
X42832Y35755D01*
X42755Y35832D01*
X42660Y35887D01*
X42555Y35915D01*
D02*
G37*
G36*
X37049Y35376D02*
X36951D01*
X36855Y35350D01*
X36769Y35301D01*
X36699Y35231D01*
X36650Y35145D01*
X36624Y35049D01*
Y34951D01*
X36650Y34855D01*
X36699Y34769D01*
X36769Y34699D01*
X36855Y34650D01*
X36951Y34624D01*
X37049D01*
X37145Y34650D01*
X37231Y34699D01*
X37301Y34769D01*
X37350Y34855D01*
X37376Y34951D01*
Y35049D01*
X37350Y35145D01*
X37301Y35231D01*
X37231Y35301D01*
X37145Y35350D01*
X37049Y35376D01*
D02*
G37*
G36*
X31054Y35409D02*
X30946D01*
X30842Y35381D01*
X30749Y35327D01*
X30673Y35251D01*
X30619Y35158D01*
X30591Y35054D01*
Y34946D01*
X30619Y34842D01*
X30673Y34749D01*
X30749Y34673D01*
X30842Y34619D01*
X30946Y34591D01*
X31054D01*
X31158Y34619D01*
X31251Y34673D01*
X31327Y34749D01*
X31381Y34842D01*
X31409Y34946D01*
Y35054D01*
X31381Y35158D01*
X31327Y35251D01*
X31251Y35327D01*
X31158Y35381D01*
X31054Y35409D01*
D02*
G37*
G36*
X30409D02*
X29591D01*
Y34591D01*
X30409D01*
Y35409D01*
D02*
G37*
G36*
X26866Y35137D02*
X26134D01*
Y34406D01*
X26866D01*
Y35137D01*
D02*
G37*
G36*
X45049Y34376D02*
X44951D01*
X44855Y34350D01*
X44769Y34301D01*
X44699Y34231D01*
X44650Y34145D01*
X44624Y34049D01*
Y33951D01*
X44650Y33855D01*
X44699Y33769D01*
X44769Y33699D01*
X44855Y33650D01*
X44951Y33624D01*
X45049D01*
X45145Y33650D01*
X45231Y33699D01*
X45301Y33769D01*
X45350Y33855D01*
X45376Y33951D01*
Y34049D01*
X45350Y34145D01*
X45301Y34231D01*
X45231Y34301D01*
X45145Y34350D01*
X45049Y34376D01*
D02*
G37*
G36*
X42549D02*
X42451D01*
X42355Y34350D01*
X42269Y34301D01*
X42199Y34231D01*
X42150Y34145D01*
X42124Y34049D01*
Y33951D01*
X42150Y33855D01*
X42199Y33769D01*
X42269Y33699D01*
X42355Y33650D01*
X42451Y33624D01*
X42549D01*
X42645Y33650D01*
X42731Y33699D01*
X42801Y33769D01*
X42850Y33855D01*
X42876Y33951D01*
Y34049D01*
X42850Y34145D01*
X42801Y34231D01*
X42731Y34301D01*
X42645Y34350D01*
X42549Y34376D01*
D02*
G37*
G36*
X30053Y34283D02*
X29947D01*
X29844Y34255D01*
X29751Y34202D01*
X29676Y34127D01*
X29622Y34034D01*
X29595Y33931D01*
Y33825D01*
X29622Y33722D01*
X29676Y33629D01*
X29751Y33554D01*
X29844Y33500D01*
X29947Y33473D01*
X30053D01*
X30156Y33500D01*
X30249Y33554D01*
X30324Y33629D01*
X30378Y33722D01*
X30405Y33825D01*
Y33931D01*
X30378Y34034D01*
X30324Y34127D01*
X30249Y34202D01*
X30156Y34255D01*
X30053Y34283D01*
D02*
G37*
G36*
X25052Y33895D02*
X24948D01*
X24847Y33868D01*
X24757Y33816D01*
X24684Y33743D01*
X24632Y33653D01*
X24605Y33552D01*
Y33448D01*
X24632Y33347D01*
X24684Y33257D01*
X24757Y33184D01*
X24847Y33132D01*
X24948Y33105D01*
X25052D01*
X25153Y33132D01*
X25243Y33184D01*
X25316Y33257D01*
X25368Y33347D01*
X25395Y33448D01*
Y33552D01*
X25368Y33653D01*
X25316Y33743D01*
X25243Y33816D01*
X25153Y33868D01*
X25052Y33895D01*
D02*
G37*
G36*
X33356Y32750D02*
X32644D01*
Y32038D01*
X33356D01*
Y32750D01*
D02*
G37*
G36*
X49054Y32409D02*
X48946D01*
X48842Y32381D01*
X48749Y32327D01*
X48673Y32251D01*
X48619Y32158D01*
X48591Y32054D01*
Y31946D01*
X48619Y31842D01*
X48673Y31749D01*
X48749Y31673D01*
X48842Y31619D01*
X48946Y31591D01*
X49054D01*
X49158Y31619D01*
X49251Y31673D01*
X49327Y31749D01*
X49381Y31842D01*
X49409Y31946D01*
Y32054D01*
X49381Y32158D01*
X49327Y32251D01*
X49251Y32327D01*
X49158Y32381D01*
X49054Y32409D01*
D02*
G37*
G36*
X47356Y32250D02*
X46644D01*
Y32123D01*
X46186D01*
X46098Y32106D01*
X46024Y32056D01*
X44337Y30370D01*
X44287Y30295D01*
X44270Y30207D01*
Y29042D01*
X44287Y28954D01*
X44337Y28880D01*
X45272Y27945D01*
X45252Y27899D01*
X45247D01*
X45146Y27872D01*
X45055Y27819D01*
X44981Y27745D01*
X44928Y27654D01*
X44901Y27553D01*
Y27447D01*
X44928Y27346D01*
X44981Y27255D01*
X45000Y27236D01*
X44984Y27180D01*
X44921Y27138D01*
X42390Y24607D01*
X37835D01*
X37824Y24627D01*
X37749Y24702D01*
X37656Y24755D01*
X37553Y24783D01*
X37447D01*
X37344Y24755D01*
X37294Y24727D01*
X37280Y24729D01*
X34801D01*
X34801Y24731D01*
X34731Y24801D01*
X34645Y24850D01*
X34549Y24876D01*
X34451D01*
X34355Y24850D01*
X34269Y24801D01*
X34199Y24731D01*
X34150Y24645D01*
X34124Y24549D01*
Y24451D01*
X34150Y24355D01*
X34199Y24269D01*
X34269Y24199D01*
X34355Y24150D01*
X34451Y24124D01*
X34549D01*
X34645Y24150D01*
X34731Y24199D01*
X34801Y24269D01*
X34801Y24271D01*
X37109D01*
X37122Y24222D01*
X37176Y24129D01*
X37251Y24054D01*
X37344Y24000D01*
X37447Y23973D01*
X37553D01*
X37656Y24000D01*
X37749Y24054D01*
X37824Y24129D01*
X37835Y24149D01*
X42485D01*
X42573Y24166D01*
X42647Y24216D01*
X45178Y26746D01*
X45517D01*
X45605Y26764D01*
X45679Y26814D01*
X45986Y27121D01*
X46036Y27195D01*
X46054Y27283D01*
Y27717D01*
X46036Y27805D01*
X45986Y27879D01*
X44729Y29137D01*
Y29676D01*
X44779Y29694D01*
X44855Y29650D01*
X44951Y29624D01*
X45049D01*
X45145Y29650D01*
X45231Y29699D01*
X45301Y29769D01*
X45350Y29855D01*
X45376Y29951D01*
Y30049D01*
X45375Y30051D01*
X46201Y30877D01*
X46726D01*
X46781Y30822D01*
X46863Y30775D01*
X46953Y30750D01*
X47047D01*
X47137Y30775D01*
X47219Y30822D01*
X47285Y30888D01*
X47332Y30969D01*
X47356Y31059D01*
Y31153D01*
X47332Y31244D01*
X47285Y31325D01*
X47219Y31391D01*
X47137Y31438D01*
X47047Y31462D01*
X46953D01*
X46863Y31438D01*
X46781Y31391D01*
X46726Y31336D01*
X46106D01*
X46019Y31318D01*
X45979Y31292D01*
X45947Y31331D01*
X46281Y31664D01*
X46644D01*
Y31538D01*
X47356D01*
Y32250D01*
D02*
G37*
G36*
X49409Y31409D02*
X48591D01*
Y30591D01*
X49409D01*
Y31409D01*
D02*
G37*
G36*
X28356Y31250D02*
X27644D01*
Y30538D01*
X28356D01*
Y31250D01*
D02*
G37*
G36*
X33049Y35376D02*
X32951D01*
X32855Y35350D01*
X32769Y35301D01*
X32699Y35231D01*
X32650Y35145D01*
X32624Y35049D01*
Y34951D01*
X32650Y34855D01*
X32699Y34769D01*
X32769Y34699D01*
X32771Y34699D01*
Y34164D01*
X29838Y31231D01*
X29788Y31157D01*
X29771Y31069D01*
Y30457D01*
X29751Y30446D01*
X29676Y30371D01*
X29622Y30278D01*
X29595Y30175D01*
Y30069D01*
X29622Y29966D01*
X29676Y29873D01*
X29751Y29798D01*
X29844Y29745D01*
X29947Y29717D01*
X30053D01*
X30156Y29745D01*
X30249Y29798D01*
X30324Y29873D01*
X30378Y29966D01*
X30405Y30069D01*
Y30175D01*
X30378Y30278D01*
X30324Y30371D01*
X30249Y30446D01*
X30229Y30457D01*
Y30974D01*
X33162Y33907D01*
X33212Y33981D01*
X33229Y34069D01*
Y34699D01*
X33231Y34699D01*
X33301Y34769D01*
X33350Y34855D01*
X33376Y34951D01*
Y35049D01*
X33350Y35145D01*
X33301Y35231D01*
X33231Y35301D01*
X33145Y35350D01*
X33049Y35376D01*
D02*
G37*
G36*
X42549Y30376D02*
X42451D01*
X42355Y30350D01*
X42269Y30301D01*
X42199Y30231D01*
X42150Y30145D01*
X42124Y30049D01*
Y29951D01*
X42150Y29855D01*
X42199Y29769D01*
X42269Y29699D01*
X42355Y29650D01*
X42451Y29624D01*
X42549D01*
X42645Y29650D01*
X42731Y29699D01*
X42801Y29769D01*
X42850Y29855D01*
X42876Y29951D01*
Y30049D01*
X42850Y30145D01*
X42801Y30231D01*
X42731Y30301D01*
X42645Y30350D01*
X42549Y30376D01*
D02*
G37*
G36*
X40049D02*
X39951D01*
X39855Y30350D01*
X39769Y30301D01*
X39699Y30231D01*
X39650Y30145D01*
X39624Y30049D01*
Y29951D01*
X39650Y29855D01*
X39699Y29769D01*
X39769Y29699D01*
X39855Y29650D01*
X39951Y29624D01*
X40049D01*
X40145Y29650D01*
X40231Y29699D01*
X40301Y29769D01*
X40350Y29855D01*
X40376Y29951D01*
Y30049D01*
X40350Y30145D01*
X40301Y30231D01*
X40231Y30301D01*
X40145Y30350D01*
X40049Y30376D01*
D02*
G37*
G36*
X26866Y29637D02*
X26134D01*
Y28906D01*
X26866D01*
Y29637D01*
D02*
G37*
G36*
X49053Y28899D02*
X48947D01*
X48846Y28872D01*
X48755Y28819D01*
X48681Y28745D01*
X48628Y28654D01*
X48601Y28553D01*
Y28447D01*
X48628Y28346D01*
X48681Y28255D01*
X48755Y28181D01*
X48846Y28128D01*
X48947Y28101D01*
X49053D01*
X49154Y28128D01*
X49245Y28181D01*
X49319Y28255D01*
X49372Y28346D01*
X49399Y28447D01*
Y28553D01*
X49372Y28654D01*
X49319Y28745D01*
X49245Y28819D01*
X49154Y28872D01*
X49053Y28899D01*
D02*
G37*
G36*
X47555Y35915D02*
X47445D01*
X47340Y35887D01*
X47245Y35832D01*
X47168Y35755D01*
X47113Y35660D01*
X47085Y35555D01*
Y35445D01*
X47113Y35340D01*
X47168Y35245D01*
X47245Y35168D01*
X47340Y35113D01*
X47445Y35085D01*
X47555D01*
X47583Y35093D01*
X47771Y34905D01*
Y28595D01*
X47026Y27850D01*
X46954D01*
X46865Y27826D01*
X46785Y27780D01*
X46720Y27715D01*
X46674Y27635D01*
X46650Y27546D01*
Y27454D01*
X46674Y27365D01*
X46720Y27285D01*
X46785Y27220D01*
X46865Y27174D01*
X46954Y27150D01*
X47046D01*
X47135Y27174D01*
X47215Y27220D01*
X47280Y27285D01*
X47326Y27365D01*
X47350Y27454D01*
Y27526D01*
X48162Y28338D01*
X48212Y28412D01*
X48229Y28500D01*
Y35000D01*
X48212Y35088D01*
X48162Y35162D01*
X47907Y35417D01*
X47915Y35445D01*
Y35555D01*
X47887Y35660D01*
X47832Y35755D01*
X47755Y35832D01*
X47660Y35887D01*
X47555Y35915D01*
D02*
G37*
G36*
X49053Y27899D02*
X48947D01*
X48846Y27872D01*
X48755Y27819D01*
X48681Y27745D01*
X48628Y27654D01*
X48601Y27553D01*
Y27447D01*
X48628Y27346D01*
X48681Y27255D01*
X48755Y27181D01*
X48846Y27128D01*
X48947Y27101D01*
X49053D01*
X49154Y27128D01*
X49245Y27181D01*
X49319Y27255D01*
X49372Y27346D01*
X49399Y27447D01*
Y27553D01*
X49372Y27654D01*
X49319Y27745D01*
X49245Y27819D01*
X49154Y27872D01*
X49053Y27899D01*
D02*
G37*
G36*
X44353D02*
X44247D01*
X44146Y27872D01*
X44055Y27819D01*
X43981Y27745D01*
X43928Y27654D01*
X43901Y27553D01*
Y27447D01*
X43928Y27346D01*
X43981Y27255D01*
X44055Y27181D01*
X44146Y27128D01*
X44247Y27101D01*
X44353D01*
X44454Y27128D01*
X44545Y27181D01*
X44619Y27255D01*
X44672Y27346D01*
X44699Y27447D01*
Y27553D01*
X44672Y27654D01*
X44619Y27745D01*
X44545Y27819D01*
X44454Y27872D01*
X44353Y27899D01*
D02*
G37*
G36*
X41555Y35915D02*
X41445D01*
X41340Y35887D01*
X41245Y35832D01*
X41168Y35755D01*
X41113Y35660D01*
X41085Y35555D01*
Y35445D01*
X41113Y35340D01*
X41168Y35245D01*
X41245Y35168D01*
X41271Y35153D01*
Y28300D01*
X41288Y28212D01*
X41338Y28138D01*
X41905Y27570D01*
X41901Y27553D01*
Y27447D01*
X41928Y27346D01*
X41981Y27255D01*
X42055Y27181D01*
X42146Y27128D01*
X42247Y27101D01*
X42353D01*
X42454Y27128D01*
X42545Y27181D01*
X42619Y27255D01*
X42672Y27346D01*
X42699Y27447D01*
Y27553D01*
X42672Y27654D01*
X42619Y27745D01*
X42545Y27819D01*
X42454Y27872D01*
X42353Y27899D01*
X42247D01*
X42230Y27895D01*
X41729Y28395D01*
Y35153D01*
X41755Y35168D01*
X41832Y35245D01*
X41887Y35340D01*
X41915Y35445D01*
Y35555D01*
X41887Y35660D01*
X41832Y35755D01*
X41755Y35832D01*
X41660Y35887D01*
X41555Y35915D01*
D02*
G37*
G36*
X40353Y27899D02*
X40247D01*
X40146Y27872D01*
X40055Y27819D01*
X39981Y27745D01*
X39928Y27654D01*
X39901Y27553D01*
Y27447D01*
X39928Y27346D01*
X39981Y27255D01*
X40055Y27181D01*
X40146Y27128D01*
X40247Y27101D01*
X40353D01*
X40454Y27128D01*
X40545Y27181D01*
X40619Y27255D01*
X40672Y27346D01*
X40699Y27447D01*
Y27553D01*
X40672Y27654D01*
X40619Y27745D01*
X40545Y27819D01*
X40454Y27872D01*
X40353Y27899D01*
D02*
G37*
G36*
X39353D02*
X39247D01*
X39146Y27872D01*
X39055Y27819D01*
X38981Y27745D01*
X38928Y27654D01*
X38901Y27553D01*
Y27447D01*
X38928Y27346D01*
X38981Y27255D01*
X39055Y27181D01*
X39146Y27128D01*
X39247Y27101D01*
X39353D01*
X39454Y27128D01*
X39545Y27181D01*
X39619Y27255D01*
X39672Y27346D01*
X39699Y27447D01*
Y27553D01*
X39672Y27654D01*
X39619Y27745D01*
X39545Y27819D01*
X39454Y27872D01*
X39353Y27899D01*
D02*
G37*
G36*
X38353D02*
X38247D01*
X38146Y27872D01*
X38055Y27819D01*
X37981Y27745D01*
X37928Y27654D01*
X37901Y27553D01*
Y27447D01*
X37928Y27346D01*
X37981Y27255D01*
X38055Y27181D01*
X38146Y27128D01*
X38247Y27101D01*
X38353D01*
X38454Y27128D01*
X38545Y27181D01*
X38619Y27255D01*
X38672Y27346D01*
X38699Y27447D01*
Y27553D01*
X38672Y27654D01*
X38619Y27745D01*
X38545Y27819D01*
X38454Y27872D01*
X38353Y27899D01*
D02*
G37*
G36*
X37353D02*
X37247D01*
X37146Y27872D01*
X37055Y27819D01*
X36981Y27745D01*
X36928Y27654D01*
X36901Y27553D01*
Y27447D01*
X36928Y27346D01*
X36981Y27255D01*
X37055Y27181D01*
X37146Y27128D01*
X37247Y27101D01*
X37353D01*
X37454Y27128D01*
X37545Y27181D01*
X37619Y27255D01*
X37672Y27346D01*
X37699Y27447D01*
Y27553D01*
X37672Y27654D01*
X37619Y27745D01*
X37545Y27819D01*
X37454Y27872D01*
X37353Y27899D01*
D02*
G37*
G36*
X36353D02*
X36247D01*
X36146Y27872D01*
X36055Y27819D01*
X35981Y27745D01*
X35928Y27654D01*
X35901Y27553D01*
Y27447D01*
X35928Y27346D01*
X35981Y27255D01*
X36055Y27181D01*
X36146Y27128D01*
X36247Y27101D01*
X36353D01*
X36454Y27128D01*
X36545Y27181D01*
X36619Y27255D01*
X36672Y27346D01*
X36699Y27447D01*
Y27553D01*
X36672Y27654D01*
X36619Y27745D01*
X36545Y27819D01*
X36454Y27872D01*
X36353Y27899D01*
D02*
G37*
G36*
X35353D02*
X35247D01*
X35146Y27872D01*
X35055Y27819D01*
X34981Y27745D01*
X34928Y27654D01*
X34901Y27553D01*
Y27447D01*
X34928Y27346D01*
X34981Y27255D01*
X35055Y27181D01*
X35146Y27128D01*
X35247Y27101D01*
X35353D01*
X35454Y27128D01*
X35545Y27181D01*
X35619Y27255D01*
X35672Y27346D01*
X35699Y27447D01*
Y27553D01*
X35672Y27654D01*
X35619Y27745D01*
X35545Y27819D01*
X35454Y27872D01*
X35353Y27899D01*
D02*
G37*
G36*
X34353D02*
X34247D01*
X34146Y27872D01*
X34055Y27819D01*
X33981Y27745D01*
X33928Y27654D01*
X33901Y27553D01*
Y27447D01*
X33928Y27346D01*
X33981Y27255D01*
X34055Y27181D01*
X34146Y27128D01*
X34247Y27101D01*
X34353D01*
X34454Y27128D01*
X34545Y27181D01*
X34619Y27255D01*
X34672Y27346D01*
X34699Y27447D01*
Y27553D01*
X34672Y27654D01*
X34619Y27745D01*
X34545Y27819D01*
X34454Y27872D01*
X34353Y27899D01*
D02*
G37*
G36*
X33353D02*
X33247D01*
X33146Y27872D01*
X33055Y27819D01*
X32981Y27745D01*
X32928Y27654D01*
X32901Y27553D01*
Y27447D01*
X32928Y27346D01*
X32981Y27255D01*
X33055Y27181D01*
X33146Y27128D01*
X33247Y27101D01*
X33353D01*
X33454Y27128D01*
X33545Y27181D01*
X33619Y27255D01*
X33672Y27346D01*
X33699Y27447D01*
Y27553D01*
X33672Y27654D01*
X33619Y27745D01*
X33545Y27819D01*
X33454Y27872D01*
X33353Y27899D01*
D02*
G37*
G36*
X32353D02*
X32247D01*
X32146Y27872D01*
X32055Y27819D01*
X31981Y27745D01*
X31928Y27654D01*
X31901Y27553D01*
Y27447D01*
X31928Y27346D01*
X31981Y27255D01*
X32055Y27181D01*
X32146Y27128D01*
X32247Y27101D01*
X32353D01*
X32454Y27128D01*
X32545Y27181D01*
X32619Y27255D01*
X32672Y27346D01*
X32699Y27447D01*
Y27553D01*
X32672Y27654D01*
X32619Y27745D01*
X32545Y27819D01*
X32454Y27872D01*
X32353Y27899D01*
D02*
G37*
G36*
X49053Y26899D02*
X48947D01*
X48846Y26872D01*
X48755Y26819D01*
X48681Y26745D01*
X48628Y26654D01*
X48601Y26553D01*
Y26447D01*
X48628Y26346D01*
X48681Y26255D01*
X48755Y26181D01*
X48846Y26128D01*
X48947Y26101D01*
X49053D01*
X49154Y26128D01*
X49245Y26181D01*
X49319Y26255D01*
X49372Y26346D01*
X49399Y26447D01*
Y26553D01*
X49372Y26654D01*
X49319Y26745D01*
X49245Y26819D01*
X49154Y26872D01*
X49053Y26899D01*
D02*
G37*
G36*
Y25899D02*
X48947D01*
X48846Y25872D01*
X48755Y25819D01*
X48681Y25745D01*
X48628Y25654D01*
X48601Y25553D01*
Y25447D01*
X48628Y25346D01*
X48681Y25255D01*
X48755Y25181D01*
X48846Y25128D01*
X48947Y25101D01*
X49053D01*
X49154Y25128D01*
X49245Y25181D01*
X49319Y25255D01*
X49372Y25346D01*
X49399Y25447D01*
Y25553D01*
X49372Y25654D01*
X49319Y25745D01*
X49245Y25819D01*
X49154Y25872D01*
X49053Y25899D01*
D02*
G37*
G36*
X25052Y32895D02*
X24948D01*
X24847Y32868D01*
X24757Y32816D01*
X24684Y32743D01*
X24632Y32653D01*
X24605Y32552D01*
Y32448D01*
X24632Y32347D01*
X24684Y32257D01*
X24757Y32184D01*
X24847Y32132D01*
X24948Y32105D01*
X25052D01*
X25067Y32109D01*
X25291Y31885D01*
Y31514D01*
Y28333D01*
X25267Y28324D01*
X25241Y28317D01*
X25153Y28368D01*
X25052Y28395D01*
X24948D01*
X24847Y28368D01*
X24757Y28316D01*
X24684Y28243D01*
X24632Y28153D01*
X24605Y28052D01*
Y27948D01*
X24632Y27847D01*
X24684Y27757D01*
X24757Y27684D01*
X24847Y27632D01*
X24948Y27605D01*
X25052D01*
X25153Y27632D01*
X25241Y27683D01*
X25267Y27676D01*
X25291Y27667D01*
Y27615D01*
X25067Y27391D01*
X25052Y27395D01*
X24948D01*
X24847Y27368D01*
X24757Y27316D01*
X24684Y27243D01*
X24632Y27153D01*
X24605Y27052D01*
Y26948D01*
X24632Y26847D01*
X24684Y26757D01*
X24757Y26684D01*
X24771Y26676D01*
Y24856D01*
X24788Y24769D01*
X24838Y24694D01*
X25291Y24241D01*
Y22833D01*
X25267Y22824D01*
X25241Y22817D01*
X25153Y22868D01*
X25052Y22895D01*
X24948D01*
X24847Y22868D01*
X24757Y22816D01*
X24684Y22743D01*
X24632Y22653D01*
X24605Y22552D01*
Y22448D01*
X24632Y22347D01*
X24684Y22257D01*
X24757Y22184D01*
X24847Y22132D01*
X24948Y22105D01*
X25052D01*
X25153Y22132D01*
X25241Y22183D01*
X25267Y22176D01*
X25291Y22167D01*
Y22115D01*
X25067Y21891D01*
X25052Y21895D01*
X24948D01*
X24847Y21868D01*
X24757Y21816D01*
X24684Y21743D01*
X24632Y21653D01*
X24605Y21552D01*
Y21448D01*
X24632Y21347D01*
X24684Y21257D01*
X24757Y21184D01*
X24847Y21132D01*
X24948Y21105D01*
X25052D01*
X25153Y21132D01*
X25243Y21184D01*
X25316Y21257D01*
X25368Y21347D01*
X25395Y21448D01*
Y21552D01*
X25391Y21567D01*
X25682Y21858D01*
X25732Y21932D01*
X25750Y22020D01*
Y24336D01*
X25732Y24424D01*
X25682Y24498D01*
X25229Y24951D01*
Y26676D01*
X25243Y26684D01*
X25316Y26757D01*
X25368Y26847D01*
X25395Y26948D01*
Y27052D01*
X25391Y27067D01*
X25682Y27358D01*
X25732Y27432D01*
X25750Y27520D01*
Y30895D01*
X25796Y30914D01*
X26766Y29944D01*
X26840Y29894D01*
X26928Y29877D01*
X27726D01*
X27781Y29822D01*
X27863Y29775D01*
X27953Y29750D01*
X28031D01*
X29444Y28338D01*
X29519Y28288D01*
X29606Y28271D01*
X30205D01*
X30530Y27945D01*
X30511Y27899D01*
X29901D01*
Y27101D01*
X30699D01*
Y27711D01*
X30745Y27730D01*
X30905Y27570D01*
X30901Y27553D01*
Y27447D01*
X30928Y27346D01*
X30981Y27255D01*
X31055Y27181D01*
X31071Y27171D01*
Y24781D01*
X31088Y24694D01*
X31138Y24619D01*
X31142Y24615D01*
X31124Y24549D01*
Y24451D01*
X31150Y24355D01*
X31199Y24269D01*
X31269Y24199D01*
X31355Y24150D01*
X31451Y24124D01*
X31549D01*
X31645Y24150D01*
X31731Y24199D01*
X31801Y24269D01*
X31801Y24271D01*
X32699D01*
X32699Y24269D01*
X32769Y24199D01*
X32855Y24150D01*
X32951Y24124D01*
X33049D01*
X33145Y24150D01*
X33231Y24199D01*
X33301Y24269D01*
X33350Y24355D01*
X33376Y24451D01*
Y24549D01*
X33350Y24645D01*
X33301Y24731D01*
X33231Y24801D01*
X33145Y24850D01*
X33049Y24876D01*
X32951D01*
X32855Y24850D01*
X32769Y24801D01*
X32699Y24731D01*
X32699Y24729D01*
X31801D01*
X31801Y24731D01*
X31731Y24801D01*
X31645Y24850D01*
X31549Y24876D01*
X31530D01*
X31529Y24877D01*
Y27171D01*
X31545Y27181D01*
X31619Y27255D01*
X31672Y27346D01*
X31699Y27447D01*
Y27553D01*
X31672Y27654D01*
X31619Y27745D01*
X31545Y27819D01*
X31529Y27829D01*
Y29811D01*
X32969Y31250D01*
X33047D01*
X33137Y31275D01*
X33219Y31322D01*
X33285Y31388D01*
X33332Y31469D01*
X33356Y31559D01*
Y31653D01*
X33332Y31744D01*
X33285Y31825D01*
X33219Y31891D01*
X33137Y31938D01*
X33047Y31962D01*
X32953D01*
X32863Y31938D01*
X32781Y31891D01*
X32715Y31825D01*
X32668Y31744D01*
X32644Y31653D01*
Y31575D01*
X31138Y30069D01*
X31088Y29994D01*
X31071Y29906D01*
Y28119D01*
X31024Y28100D01*
X30462Y28662D01*
X30388Y28712D01*
X30300Y28729D01*
X29701D01*
X28356Y30075D01*
Y30153D01*
X28332Y30244D01*
X28285Y30325D01*
X28219Y30391D01*
X28137Y30438D01*
X28047Y30462D01*
X27953D01*
X27863Y30438D01*
X27781Y30391D01*
X27726Y30336D01*
X27023D01*
X26542Y30817D01*
X26563Y30867D01*
X26641Y30888D01*
X26725Y30936D01*
X26793Y31004D01*
X26841Y31087D01*
X26866Y31180D01*
Y31276D01*
X26841Y31370D01*
X26793Y31453D01*
X26725Y31521D01*
X26641Y31569D01*
X26548Y31594D01*
X26452D01*
X26359Y31569D01*
X26275Y31521D01*
X26207Y31453D01*
X26159Y31370D01*
X26138Y31291D01*
X26088Y31270D01*
X25750Y31609D01*
Y31980D01*
X25732Y32068D01*
X25682Y32142D01*
X25391Y32433D01*
X25395Y32448D01*
Y32552D01*
X25368Y32653D01*
X25316Y32743D01*
X25243Y32816D01*
X25153Y32868D01*
X25052Y32895D01*
D02*
G37*
G36*
X49053Y24899D02*
X48947D01*
X48846Y24872D01*
X48755Y24819D01*
X48681Y24745D01*
X48628Y24654D01*
X48601Y24553D01*
Y24447D01*
X48628Y24346D01*
X48681Y24255D01*
X48755Y24181D01*
X48846Y24128D01*
X48947Y24101D01*
X49053D01*
X49154Y24128D01*
X49245Y24181D01*
X49319Y24255D01*
X49372Y24346D01*
X49399Y24447D01*
Y24553D01*
X49372Y24654D01*
X49319Y24745D01*
X49245Y24819D01*
X49154Y24872D01*
X49053Y24899D01*
D02*
G37*
G36*
Y23899D02*
X48947D01*
X48846Y23872D01*
X48755Y23819D01*
X48681Y23745D01*
X48628Y23654D01*
X48601Y23553D01*
Y23447D01*
X48628Y23346D01*
X48681Y23255D01*
X48755Y23181D01*
X48846Y23128D01*
X48947Y23101D01*
X49053D01*
X49154Y23128D01*
X49245Y23181D01*
X49319Y23255D01*
X49372Y23346D01*
X49399Y23447D01*
Y23553D01*
X49372Y23654D01*
X49319Y23745D01*
X49245Y23819D01*
X49154Y23872D01*
X49053Y23899D01*
D02*
G37*
G36*
Y22899D02*
X48947D01*
X48846Y22872D01*
X48755Y22819D01*
X48681Y22745D01*
X48628Y22654D01*
X48601Y22553D01*
Y22447D01*
X48628Y22346D01*
X48681Y22255D01*
X48755Y22181D01*
X48846Y22128D01*
X48947Y22101D01*
X49053D01*
X49154Y22128D01*
X49245Y22181D01*
X49319Y22255D01*
X49372Y22346D01*
X49399Y22447D01*
Y22553D01*
X49372Y22654D01*
X49319Y22745D01*
X49245Y22819D01*
X49154Y22872D01*
X49053Y22899D01*
D02*
G37*
G36*
Y21899D02*
X48947D01*
X48846Y21872D01*
X48755Y21819D01*
X48681Y21745D01*
X48671Y21729D01*
X45400D01*
X45312Y21712D01*
X45238Y21662D01*
X41370Y17795D01*
X41353Y17799D01*
X41247D01*
X41146Y17772D01*
X41055Y17719D01*
X40981Y17645D01*
X40928Y17554D01*
X40901Y17453D01*
Y17347D01*
X40928Y17246D01*
X40981Y17155D01*
X41055Y17081D01*
X41146Y17028D01*
X41247Y17001D01*
X41353D01*
X41454Y17028D01*
X41545Y17081D01*
X41619Y17155D01*
X41672Y17246D01*
X41699Y17347D01*
Y17453D01*
X41695Y17470D01*
X45495Y21271D01*
X48671D01*
X48681Y21255D01*
X48755Y21181D01*
X48846Y21128D01*
X48947Y21101D01*
X49053D01*
X49154Y21128D01*
X49245Y21181D01*
X49319Y21255D01*
X49372Y21346D01*
X49399Y21447D01*
Y21553D01*
X49372Y21654D01*
X49319Y21745D01*
X49245Y21819D01*
X49154Y21872D01*
X49053Y21899D01*
D02*
G37*
G36*
X34549Y20876D02*
X34451D01*
X34355Y20850D01*
X34269Y20801D01*
X34199Y20731D01*
X34199Y20729D01*
X33301D01*
X33301Y20731D01*
X33231Y20801D01*
X33145Y20850D01*
X33049Y20876D01*
X32951D01*
X32855Y20850D01*
X32769Y20801D01*
X32699Y20731D01*
X32650Y20645D01*
X32624Y20549D01*
Y20451D01*
X32650Y20355D01*
X32699Y20269D01*
X32769Y20199D01*
X32771Y20199D01*
Y17794D01*
X32788Y17706D01*
X32838Y17632D01*
X32925Y17544D01*
X32901Y17453D01*
Y17347D01*
X32928Y17246D01*
X32981Y17155D01*
X33055Y17081D01*
X33146Y17028D01*
X33247Y17001D01*
X33353D01*
X33454Y17028D01*
X33545Y17081D01*
X33619Y17155D01*
X33672Y17246D01*
X33699Y17347D01*
Y17453D01*
X33672Y17554D01*
X33619Y17645D01*
X33545Y17719D01*
X33454Y17772D01*
X33353Y17799D01*
X33319D01*
X33229Y17889D01*
Y20199D01*
X33231Y20199D01*
X33301Y20269D01*
X33301Y20271D01*
X34199D01*
X34199Y20269D01*
X34269Y20199D01*
X34355Y20150D01*
X34451Y20124D01*
X34549D01*
X34645Y20150D01*
X34731Y20199D01*
X34801Y20269D01*
X34850Y20355D01*
X34876Y20451D01*
Y20549D01*
X34850Y20645D01*
X34801Y20731D01*
X34731Y20801D01*
X34645Y20850D01*
X34549Y20876D01*
D02*
G37*
G36*
X37553Y21027D02*
X37447D01*
X37344Y21000D01*
X37251Y20946D01*
X37176Y20871D01*
X37122Y20778D01*
X37095Y20675D01*
Y20569D01*
X37122Y20466D01*
X37176Y20373D01*
X37251Y20298D01*
X37344Y20245D01*
X37447Y20217D01*
X37553D01*
X37656Y20245D01*
X37749Y20298D01*
X37824Y20373D01*
X37878Y20466D01*
X37905Y20569D01*
Y20675D01*
X37878Y20778D01*
X37824Y20871D01*
X37749Y20946D01*
X37656Y21000D01*
X37553Y21027D01*
D02*
G37*
G36*
X31549Y20876D02*
X31451D01*
X31355Y20850D01*
X31269Y20801D01*
X31199Y20731D01*
X31150Y20645D01*
X31124Y20549D01*
Y20451D01*
X31150Y20355D01*
X31199Y20269D01*
X31269Y20199D01*
X31355Y20150D01*
X31451Y20124D01*
X31549D01*
X31645Y20150D01*
X31731Y20199D01*
X31801Y20269D01*
X31850Y20355D01*
X31876Y20451D01*
Y20549D01*
X31850Y20645D01*
X31801Y20731D01*
X31731Y20801D01*
X31645Y20850D01*
X31549Y20876D01*
D02*
G37*
G36*
X49053Y20899D02*
X48947D01*
X48846Y20872D01*
X48755Y20819D01*
X48681Y20745D01*
X48671Y20729D01*
X45400D01*
X45312Y20712D01*
X45238Y20662D01*
X42370Y17795D01*
X42353Y17799D01*
X42247D01*
X42146Y17772D01*
X42055Y17719D01*
X41981Y17645D01*
X41928Y17554D01*
X41901Y17453D01*
Y17347D01*
X41928Y17246D01*
X41981Y17155D01*
X42055Y17081D01*
X42146Y17028D01*
X42247Y17001D01*
X42353D01*
X42454Y17028D01*
X42545Y17081D01*
X42619Y17155D01*
X42672Y17246D01*
X42699Y17347D01*
Y17453D01*
X42695Y17470D01*
X45495Y20271D01*
X48671D01*
X48681Y20255D01*
X48755Y20181D01*
X48846Y20128D01*
X48947Y20101D01*
X49053D01*
X49154Y20128D01*
X49245Y20181D01*
X49319Y20255D01*
X49372Y20346D01*
X49399Y20447D01*
Y20553D01*
X49372Y20654D01*
X49319Y20745D01*
X49245Y20819D01*
X49154Y20872D01*
X49053Y20899D01*
D02*
G37*
G36*
X26548Y26094D02*
X26452D01*
X26359Y26069D01*
X26275Y26021D01*
X26207Y25953D01*
X26159Y25870D01*
X26134Y25776D01*
Y25680D01*
X26159Y25587D01*
X26207Y25504D01*
X26271Y25440D01*
Y24778D01*
X26288Y24690D01*
X26338Y24616D01*
X26761Y24192D01*
Y24137D01*
X26134D01*
Y23406D01*
X26761D01*
Y20814D01*
X26541Y20594D01*
X26452D01*
X26359Y20569D01*
X26275Y20521D01*
X26207Y20453D01*
X26159Y20370D01*
X26134Y20276D01*
Y20180D01*
X26159Y20087D01*
X26207Y20004D01*
X26275Y19936D01*
X26359Y19888D01*
X26452Y19863D01*
X26548D01*
X26641Y19888D01*
X26725Y19936D01*
X26793Y20004D01*
X26841Y20087D01*
X26866Y20180D01*
Y20270D01*
X27153Y20557D01*
X27203Y20631D01*
X27220Y20719D01*
Y24287D01*
X27203Y24375D01*
X27153Y24449D01*
X26729Y24873D01*
Y25440D01*
X26793Y25504D01*
X26841Y25587D01*
X26866Y25680D01*
Y25776D01*
X26841Y25870D01*
X26793Y25953D01*
X26725Y26021D01*
X26641Y26069D01*
X26548Y26094D01*
D02*
G37*
G36*
X49053Y19899D02*
X48947D01*
X48846Y19872D01*
X48755Y19819D01*
X48681Y19745D01*
X48628Y19654D01*
X48601Y19553D01*
Y19447D01*
X48628Y19346D01*
X48681Y19255D01*
X48755Y19181D01*
X48846Y19128D01*
X48947Y19101D01*
X49053D01*
X49154Y19128D01*
X49245Y19181D01*
X49319Y19255D01*
X49372Y19346D01*
X49399Y19447D01*
Y19553D01*
X49372Y19654D01*
X49319Y19745D01*
X49245Y19819D01*
X49154Y19872D01*
X49053Y19899D01*
D02*
G37*
G36*
Y18899D02*
X48947D01*
X48846Y18872D01*
X48755Y18819D01*
X48681Y18745D01*
X48628Y18654D01*
X48601Y18553D01*
Y18447D01*
X48628Y18346D01*
X48681Y18255D01*
X48755Y18181D01*
X48846Y18128D01*
X48947Y18101D01*
X49053D01*
X49154Y18128D01*
X49245Y18181D01*
X49319Y18255D01*
X49372Y18346D01*
X49399Y18447D01*
Y18553D01*
X49372Y18654D01*
X49319Y18745D01*
X49245Y18819D01*
X49154Y18872D01*
X49053Y18899D01*
D02*
G37*
G36*
X49399Y17899D02*
X48601D01*
Y17101D01*
X49399D01*
Y17899D01*
D02*
G37*
G36*
X45353Y17799D02*
X45247D01*
X45146Y17772D01*
X45055Y17719D01*
X44981Y17645D01*
X44928Y17554D01*
X44901Y17453D01*
Y17347D01*
X44928Y17246D01*
X44981Y17155D01*
X45055Y17081D01*
X45146Y17028D01*
X45247Y17001D01*
X45353D01*
X45454Y17028D01*
X45545Y17081D01*
X45619Y17155D01*
X45672Y17246D01*
X45699Y17347D01*
Y17453D01*
X45672Y17554D01*
X45619Y17645D01*
X45545Y17719D01*
X45454Y17772D01*
X45353Y17799D01*
D02*
G37*
G36*
X44353D02*
X44247D01*
X44146Y17772D01*
X44055Y17719D01*
X43981Y17645D01*
X43928Y17554D01*
X43901Y17453D01*
Y17347D01*
X43928Y17246D01*
X43981Y17155D01*
X44055Y17081D01*
X44146Y17028D01*
X44247Y17001D01*
X44353D01*
X44454Y17028D01*
X44545Y17081D01*
X44619Y17155D01*
X44672Y17246D01*
X44699Y17347D01*
Y17453D01*
X44672Y17554D01*
X44619Y17645D01*
X44545Y17719D01*
X44454Y17772D01*
X44353Y17799D01*
D02*
G37*
G36*
X43353D02*
X43247D01*
X43146Y17772D01*
X43055Y17719D01*
X42981Y17645D01*
X42928Y17554D01*
X42901Y17453D01*
Y17347D01*
X42928Y17246D01*
X42981Y17155D01*
X43055Y17081D01*
X43146Y17028D01*
X43247Y17001D01*
X43353D01*
X43454Y17028D01*
X43545Y17081D01*
X43619Y17155D01*
X43672Y17246D01*
X43699Y17347D01*
Y17453D01*
X43672Y17554D01*
X43619Y17645D01*
X43545Y17719D01*
X43454Y17772D01*
X43353Y17799D01*
D02*
G37*
G36*
X40353D02*
X40247D01*
X40146Y17772D01*
X40055Y17719D01*
X39981Y17645D01*
X39928Y17554D01*
X39901Y17453D01*
Y17347D01*
X39928Y17246D01*
X39981Y17155D01*
X40055Y17081D01*
X40146Y17028D01*
X40247Y17001D01*
X40353D01*
X40454Y17028D01*
X40545Y17081D01*
X40619Y17155D01*
X40672Y17246D01*
X40699Y17347D01*
Y17453D01*
X40672Y17554D01*
X40619Y17645D01*
X40545Y17719D01*
X40454Y17772D01*
X40353Y17799D01*
D02*
G37*
G36*
X39353D02*
X39247D01*
X39146Y17772D01*
X39055Y17719D01*
X38981Y17645D01*
X38928Y17554D01*
X38901Y17453D01*
Y17347D01*
X38928Y17246D01*
X38981Y17155D01*
X39055Y17081D01*
X39146Y17028D01*
X39247Y17001D01*
X39353D01*
X39454Y17028D01*
X39545Y17081D01*
X39619Y17155D01*
X39672Y17246D01*
X39699Y17347D01*
Y17453D01*
X39672Y17554D01*
X39619Y17645D01*
X39545Y17719D01*
X39454Y17772D01*
X39353Y17799D01*
D02*
G37*
G36*
X38353D02*
X38247D01*
X38146Y17772D01*
X38055Y17719D01*
X37981Y17645D01*
X37928Y17554D01*
X37901Y17453D01*
Y17347D01*
X37928Y17246D01*
X37981Y17155D01*
X38055Y17081D01*
X38146Y17028D01*
X38247Y17001D01*
X38353D01*
X38454Y17028D01*
X38545Y17081D01*
X38619Y17155D01*
X38672Y17246D01*
X38699Y17347D01*
Y17453D01*
X38672Y17554D01*
X38619Y17645D01*
X38545Y17719D01*
X38454Y17772D01*
X38353Y17799D01*
D02*
G37*
G36*
X37353D02*
X37247D01*
X37146Y17772D01*
X37055Y17719D01*
X36981Y17645D01*
X36928Y17554D01*
X36901Y17453D01*
Y17347D01*
X36928Y17246D01*
X36981Y17155D01*
X37055Y17081D01*
X37146Y17028D01*
X37247Y17001D01*
X37353D01*
X37454Y17028D01*
X37545Y17081D01*
X37619Y17155D01*
X37672Y17246D01*
X37699Y17347D01*
Y17453D01*
X37672Y17554D01*
X37619Y17645D01*
X37545Y17719D01*
X37454Y17772D01*
X37353Y17799D01*
D02*
G37*
G36*
X36353D02*
X36247D01*
X36146Y17772D01*
X36055Y17719D01*
X35981Y17645D01*
X35928Y17554D01*
X35901Y17453D01*
Y17347D01*
X35928Y17246D01*
X35981Y17155D01*
X36055Y17081D01*
X36146Y17028D01*
X36247Y17001D01*
X36353D01*
X36454Y17028D01*
X36545Y17081D01*
X36619Y17155D01*
X36672Y17246D01*
X36699Y17347D01*
Y17453D01*
X36672Y17554D01*
X36619Y17645D01*
X36545Y17719D01*
X36454Y17772D01*
X36353Y17799D01*
D02*
G37*
G36*
X35353D02*
X35247D01*
X35146Y17772D01*
X35055Y17719D01*
X34981Y17645D01*
X34928Y17554D01*
X34901Y17453D01*
Y17347D01*
X34928Y17246D01*
X34981Y17155D01*
X35055Y17081D01*
X35146Y17028D01*
X35247Y17001D01*
X35353D01*
X35454Y17028D01*
X35545Y17081D01*
X35619Y17155D01*
X35672Y17246D01*
X35699Y17347D01*
Y17453D01*
X35672Y17554D01*
X35619Y17645D01*
X35545Y17719D01*
X35454Y17772D01*
X35353Y17799D01*
D02*
G37*
G36*
X34353D02*
X34247D01*
X34146Y17772D01*
X34055Y17719D01*
X33981Y17645D01*
X33928Y17554D01*
X33901Y17453D01*
Y17347D01*
X33928Y17246D01*
X33981Y17155D01*
X34055Y17081D01*
X34146Y17028D01*
X34247Y17001D01*
X34353D01*
X34454Y17028D01*
X34545Y17081D01*
X34619Y17155D01*
X34672Y17246D01*
X34699Y17347D01*
Y17453D01*
X34672Y17554D01*
X34619Y17645D01*
X34545Y17719D01*
X34454Y17772D01*
X34353Y17799D01*
D02*
G37*
G36*
X32353D02*
X32247D01*
X32146Y17772D01*
X32055Y17719D01*
X31981Y17645D01*
X31928Y17554D01*
X31901Y17453D01*
Y17347D01*
X31928Y17246D01*
X31981Y17155D01*
X32055Y17081D01*
X32146Y17028D01*
X32247Y17001D01*
X32353D01*
X32454Y17028D01*
X32545Y17081D01*
X32619Y17155D01*
X32672Y17246D01*
X32699Y17347D01*
Y17453D01*
X32672Y17554D01*
X32619Y17645D01*
X32545Y17719D01*
X32454Y17772D01*
X32353Y17799D01*
D02*
G37*
G36*
X31353D02*
X31247D01*
X31146Y17772D01*
X31055Y17719D01*
X30981Y17645D01*
X30928Y17554D01*
X30901Y17453D01*
Y17347D01*
X30928Y17246D01*
X30981Y17155D01*
X31055Y17081D01*
X31146Y17028D01*
X31247Y17001D01*
X31353D01*
X31454Y17028D01*
X31545Y17081D01*
X31619Y17155D01*
X31672Y17246D01*
X31699Y17347D01*
Y17453D01*
X31672Y17554D01*
X31619Y17645D01*
X31545Y17719D01*
X31454Y17772D01*
X31353Y17799D01*
D02*
G37*
G36*
X30699D02*
X29901D01*
Y17001D01*
X30699D01*
Y17799D01*
D02*
G37*
G36*
X45749Y16476D02*
X45651D01*
X45555Y16450D01*
X45469Y16401D01*
X45399Y16331D01*
X45350Y16245D01*
X45324Y16149D01*
Y16051D01*
X45350Y15955D01*
X45399Y15869D01*
X45469Y15799D01*
X45555Y15750D01*
X45651Y15724D01*
X45749D01*
X45845Y15750D01*
X45931Y15799D01*
X46001Y15869D01*
X46050Y15955D01*
X46076Y16051D01*
Y16149D01*
X46050Y16245D01*
X46001Y16331D01*
X45931Y16401D01*
X45845Y16450D01*
X45749Y16476D01*
D02*
G37*
G36*
X41749D02*
X41651D01*
X41555Y16450D01*
X41469Y16401D01*
X41399Y16331D01*
X41350Y16245D01*
X41324Y16149D01*
Y16051D01*
X41350Y15955D01*
X41399Y15869D01*
X41469Y15799D01*
X41555Y15750D01*
X41651Y15724D01*
X41749D01*
X41845Y15750D01*
X41931Y15799D01*
X42001Y15869D01*
X42050Y15955D01*
X42076Y16051D01*
Y16149D01*
X42050Y16245D01*
X42001Y16331D01*
X41931Y16401D01*
X41845Y16450D01*
X41749Y16476D01*
D02*
G37*
G36*
X40349D02*
X40251D01*
X40155Y16450D01*
X40069Y16401D01*
X39999Y16331D01*
X39950Y16245D01*
X39924Y16149D01*
Y16051D01*
X39950Y15955D01*
X39999Y15869D01*
X40069Y15799D01*
X40155Y15750D01*
X40251Y15724D01*
X40349D01*
X40445Y15750D01*
X40531Y15799D01*
X40601Y15869D01*
X40650Y15955D01*
X40676Y16051D01*
Y16149D01*
X40650Y16245D01*
X40601Y16331D01*
X40531Y16401D01*
X40445Y16450D01*
X40349Y16476D01*
D02*
G37*
G36*
X36349D02*
X36251D01*
X36155Y16450D01*
X36069Y16401D01*
X35999Y16331D01*
X35950Y16245D01*
X35924Y16149D01*
Y16051D01*
X35950Y15955D01*
X35999Y15869D01*
X36069Y15799D01*
X36155Y15750D01*
X36251Y15724D01*
X36349D01*
X36445Y15750D01*
X36531Y15799D01*
X36601Y15869D01*
X36650Y15955D01*
X36676Y16051D01*
Y16149D01*
X36650Y16245D01*
X36601Y16331D01*
X36531Y16401D01*
X36445Y16450D01*
X36349Y16476D01*
D02*
G37*
%LPD*%
D16*
X13000Y20500D02*
D03*
Y26000D02*
D03*
Y31500D02*
D03*
D17*
Y21500D02*
D03*
X11000Y20500D02*
D03*
Y21500D02*
D03*
X13000Y27000D02*
D03*
X11000Y26000D02*
D03*
Y27000D02*
D03*
X13000Y32500D02*
D03*
X11000D02*
D03*
Y31500D02*
D03*
X18500Y30622D02*
D03*
Y34378D02*
D03*
Y25122D02*
D03*
Y28878D02*
D03*
Y19622D02*
D03*
Y23378D02*
D03*
X37500Y20622D02*
D03*
X30000Y30122D02*
D03*
Y33878D02*
D03*
X37500Y24378D02*
D03*
D33*
X9500Y23000D02*
D03*
Y28500D02*
D03*
Y34000D02*
D03*
Y17500D02*
D03*
X49000Y31000D02*
D03*
D34*
X30000Y35000D02*
D03*
D35*
X9500Y27500D02*
D03*
Y33000D02*
D03*
Y16500D02*
D03*
Y22000D02*
D03*
X49000Y32000D02*
D03*
X31000Y35000D02*
D03*
D38*
X37500Y24378D02*
X42485D01*
X45083Y26976D01*
X45517D01*
X45824Y27283D01*
X44499Y29042D02*
Y30207D01*
Y29042D02*
X45824Y27717D01*
Y27283D02*
Y27717D01*
X47000Y27500D02*
X48000Y28500D01*
X29606D02*
X30300D01*
X31300Y27500D01*
X28000Y30106D02*
X29606Y28500D01*
X31300Y24781D02*
Y27500D01*
X41500Y28300D02*
Y35500D01*
Y28300D02*
X42300Y27500D01*
X40720Y28080D02*
X41300Y27500D01*
X40720Y28080D02*
Y33988D01*
X43300Y27500D02*
Y34800D01*
X44000Y35500D01*
X31300Y24781D02*
X31500Y24581D01*
Y24500D02*
Y24581D01*
X48000Y28500D02*
Y35000D01*
X47500Y35500D02*
X48000Y35000D01*
X44499Y30207D02*
X46186Y31894D01*
X47000D01*
X46106Y31106D02*
X47000D01*
X45000Y30000D02*
X46106Y31106D01*
X39000Y35500D02*
X39073Y35427D01*
X39281D01*
X40720Y33988D01*
X31300Y29906D02*
X33000Y31606D01*
X31300Y27500D02*
Y29906D01*
X30000Y31069D02*
X33000Y34069D01*
X30000Y30122D02*
Y31069D01*
X33000Y34069D02*
Y35000D01*
X25520Y27520D02*
Y31514D01*
X26928Y30106D01*
X28000D01*
X25520Y31514D02*
Y31980D01*
X25000Y27000D02*
X25520Y27520D01*
X26500Y24778D02*
Y25728D01*
Y24778D02*
X26991Y24287D01*
Y20719D02*
Y24287D01*
X26500Y20228D02*
X26991Y20719D01*
X25000Y32500D02*
X25520Y31980D01*
X25000Y21500D02*
X25520Y22020D01*
X25000Y24856D02*
Y27000D01*
Y24856D02*
X25520Y24336D01*
Y22020D02*
Y24336D01*
X37280Y24500D02*
X37403Y24378D01*
X34500Y24500D02*
X37280D01*
X37403Y24378D02*
X37500D01*
X31500Y24500D02*
X33000D01*
Y17794D02*
Y20500D01*
Y17794D02*
X33300Y17494D01*
Y17400D02*
Y17494D01*
X33000Y20500D02*
X34500D01*
X42300Y17400D02*
X45400Y20500D01*
X49000D01*
X45400Y21500D02*
X49000D01*
X41300Y17400D02*
X45400Y21500D01*
X20000D02*
X21500Y20000D01*
X20000Y21500D02*
Y23500D01*
Y27000D02*
X21500Y25500D01*
X20000Y27000D02*
Y29000D01*
Y32500D02*
Y34500D01*
Y32500D02*
X21500Y31000D01*
D39*
X50250Y36300D02*
D03*
Y15700D02*
D03*
X13000Y36300D02*
D03*
D40*
Y15700D02*
D03*
D41*
X30300Y27500D02*
D03*
Y17400D02*
D03*
D42*
X34300Y27500D02*
D03*
X35300D02*
D03*
X33300D02*
D03*
X31300D02*
D03*
X41300D02*
D03*
X39300D02*
D03*
X36300D02*
D03*
X32300D02*
D03*
X37300D02*
D03*
X38300D02*
D03*
X40300D02*
D03*
X42300D02*
D03*
X43300D02*
D03*
X44300D02*
D03*
X45300D02*
D03*
X49000Y28500D02*
D03*
Y27500D02*
D03*
Y25500D02*
D03*
Y24500D02*
D03*
Y22500D02*
D03*
Y21500D02*
D03*
Y20500D02*
D03*
Y18500D02*
D03*
Y19500D02*
D03*
Y23500D02*
D03*
Y26500D02*
D03*
X41300Y17400D02*
D03*
X39300D02*
D03*
X37300D02*
D03*
X38300D02*
D03*
X40300D02*
D03*
X42300D02*
D03*
X43300D02*
D03*
X44300D02*
D03*
X33300D02*
D03*
X36300D02*
D03*
X32300D02*
D03*
X31300D02*
D03*
X34300D02*
D03*
X35300D02*
D03*
X45300D02*
D03*
D43*
X34500Y20500D02*
D03*
Y24500D02*
D03*
X45000Y30000D02*
D03*
Y34000D02*
D03*
X42500Y30000D02*
D03*
Y34000D02*
D03*
X40000Y30000D02*
D03*
Y34000D02*
D03*
X20000Y19500D02*
D03*
Y23500D02*
D03*
Y25000D02*
D03*
Y29000D02*
D03*
Y30500D02*
D03*
Y34500D02*
D03*
X45700Y16100D02*
D03*
X41700D02*
D03*
X40300D02*
D03*
X36300D02*
D03*
X33000Y35000D02*
D03*
X31500Y20500D02*
D03*
X37000Y35000D02*
D03*
X16000Y21189D02*
D03*
Y26689D02*
D03*
Y32189D02*
D03*
X33000Y20500D02*
D03*
X31500Y24500D02*
D03*
X33000D02*
D03*
D44*
X26500Y23772D02*
D03*
Y29272D02*
D03*
Y34772D02*
D03*
D45*
Y20228D02*
D03*
Y25728D02*
D03*
Y31228D02*
D03*
D46*
X16953Y23000D02*
D03*
X21500Y24500D02*
D03*
Y25500D02*
D03*
X39000Y35500D02*
D03*
X40000D02*
D03*
X47500D02*
D03*
X46500D02*
D03*
X44000D02*
D03*
X45000D02*
D03*
X41500D02*
D03*
X42500D02*
D03*
X21500Y20000D02*
D03*
Y31000D02*
D03*
X16953Y28500D02*
D03*
Y34000D02*
D03*
X21500Y19000D02*
D03*
Y30000D02*
D03*
D47*
X11047Y23000D02*
D03*
Y28500D02*
D03*
Y34000D02*
D03*
D48*
X47000Y31106D02*
D03*
X28000Y30106D02*
D03*
X33000Y31606D02*
D03*
D49*
X47000Y31894D02*
D03*
X28000Y30894D02*
D03*
X33000Y32394D02*
D03*
D50*
X49000Y17500D02*
D03*
D51*
X25000Y32500D02*
D03*
X22000D02*
D03*
X25000Y33500D02*
D03*
Y27000D02*
D03*
X22000D02*
D03*
X25000Y28000D02*
D03*
Y21500D02*
D03*
X22000D02*
D03*
X25000Y22500D02*
D03*
D52*
X22000Y33500D02*
D03*
Y28000D02*
D03*
Y22500D02*
D03*
D53*
X16000Y19811D02*
D03*
Y25311D02*
D03*
Y30811D02*
D03*
D54*
X47000Y27500D02*
D03*
M02*
