G04*
G04 #@! TF.GenerationSoftware,Altium Limited,Altium Designer,18.0.7 (293)*
G04*
G04 Layer_Color=16711935*
%FSLAX24Y24*%
%MOIN*%
G70*
G01*
G75*
%ADD16R,0.0610X0.0610*%
%ADD17C,0.0610*%
%ADD18C,0.1655*%
%ADD19C,0.1615*%
%ADD20R,0.0678X0.0678*%
%ADD21C,0.0678*%
%ADD22C,0.0631*%
%ADD23R,0.0611X0.0611*%
%ADD24C,0.0611*%
%ADD25C,0.0710*%
%ADD26R,0.0710X0.0710*%
%ADD27C,0.0592*%
%ADD28R,0.0592X0.0592*%
%ADD29R,0.0678X0.0678*%
%ADD30C,0.0671*%
%ADD31R,0.0671X0.0671*%
%ADD32C,0.0690*%
%ADD33R,0.0618X0.0618*%
%ADD34R,0.0618X0.0618*%
%ADD35C,0.0618*%
%ADD36R,0.0631X0.0631*%
%ADD37C,0.0580*%
%ADD55R,0.0395X0.0343*%
G04:AMPARAMS|DCode=56|XSize=39.5mil|YSize=125.3mil|CornerRadius=17.2mil|HoleSize=0mil|Usage=FLASHONLY|Rotation=0.000|XOffset=0mil|YOffset=0mil|HoleType=Round|Shape=RoundedRectangle|*
%AMROUNDEDRECTD56*
21,1,0.0395,0.0909,0,0,0.0*
21,1,0.0051,0.1253,0,0,0.0*
1,1,0.0344,0.0026,-0.0454*
1,1,0.0344,-0.0026,-0.0454*
1,1,0.0344,-0.0026,0.0454*
1,1,0.0344,0.0026,0.0454*
%
%ADD56ROUNDEDRECTD56*%
G04:AMPARAMS|DCode=57|XSize=39.5mil|YSize=34.3mil|CornerRadius=17.2mil|HoleSize=0mil|Usage=FLASHONLY|Rotation=0.000|XOffset=0mil|YOffset=0mil|HoleType=Round|Shape=RoundedRectangle|*
%AMROUNDEDRECTD57*
21,1,0.0395,0.0000,0,0,0.0*
21,1,0.0052,0.0343,0,0,0.0*
1,1,0.0343,0.0026,0.0000*
1,1,0.0343,-0.0026,0.0000*
1,1,0.0343,-0.0026,0.0000*
1,1,0.0343,0.0026,0.0000*
%
%ADD57ROUNDEDRECTD57*%
G04:AMPARAMS|DCode=58|XSize=52.7mil|YSize=22.8mil|CornerRadius=11.4mil|HoleSize=0mil|Usage=FLASHONLY|Rotation=270.000|XOffset=0mil|YOffset=0mil|HoleType=Round|Shape=RoundedRectangle|*
%AMROUNDEDRECTD58*
21,1,0.0527,0.0000,0,0,270.0*
21,1,0.0299,0.0228,0,0,270.0*
1,1,0.0228,0.0000,-0.0150*
1,1,0.0228,0.0000,0.0150*
1,1,0.0228,0.0000,0.0150*
1,1,0.0228,0.0000,-0.0150*
%
%ADD58ROUNDEDRECTD58*%
%ADD59R,0.0228X0.0527*%
D16*
X13000Y20500D02*
D03*
Y26000D02*
D03*
Y31500D02*
D03*
D17*
Y21500D02*
D03*
X11000Y20500D02*
D03*
Y21500D02*
D03*
X13000Y27000D02*
D03*
X11000Y26000D02*
D03*
Y27000D02*
D03*
X13000Y32500D02*
D03*
X11000D02*
D03*
Y31500D02*
D03*
D18*
X50250Y36300D02*
D03*
Y15700D02*
D03*
X13000Y36300D02*
D03*
D19*
Y15700D02*
D03*
D20*
X30300Y27500D02*
D03*
Y17400D02*
D03*
D21*
X34300Y27500D02*
D03*
X35300D02*
D03*
X33300D02*
D03*
X31300D02*
D03*
X41300D02*
D03*
X39300D02*
D03*
X36300D02*
D03*
X32300D02*
D03*
X37300D02*
D03*
X38300D02*
D03*
X40300D02*
D03*
X42300D02*
D03*
X43300D02*
D03*
X44300D02*
D03*
X45300D02*
D03*
X49000Y28500D02*
D03*
Y27500D02*
D03*
Y25500D02*
D03*
Y24500D02*
D03*
Y22500D02*
D03*
Y21500D02*
D03*
Y20500D02*
D03*
Y18500D02*
D03*
Y19500D02*
D03*
Y23500D02*
D03*
Y26500D02*
D03*
X41300Y17400D02*
D03*
X39300D02*
D03*
X37300D02*
D03*
X38300D02*
D03*
X40300D02*
D03*
X42300D02*
D03*
X43300D02*
D03*
X44300D02*
D03*
X33300D02*
D03*
X36300D02*
D03*
X32300D02*
D03*
X31300D02*
D03*
X34300D02*
D03*
X35300D02*
D03*
X45300D02*
D03*
D22*
X34500Y20500D02*
D03*
Y24500D02*
D03*
X45000Y30000D02*
D03*
Y34000D02*
D03*
X42500Y30000D02*
D03*
Y34000D02*
D03*
X40000Y30000D02*
D03*
Y34000D02*
D03*
X20000Y19500D02*
D03*
Y23500D02*
D03*
Y25000D02*
D03*
Y29000D02*
D03*
Y30500D02*
D03*
Y34500D02*
D03*
X45700Y16100D02*
D03*
X41700D02*
D03*
X40300D02*
D03*
X36300D02*
D03*
X33000Y35000D02*
D03*
X31500Y20500D02*
D03*
X37000Y35000D02*
D03*
X16000Y21189D02*
D03*
Y26689D02*
D03*
Y32189D02*
D03*
X33000Y20500D02*
D03*
X31500Y24500D02*
D03*
X33000D02*
D03*
D23*
X26500Y23772D02*
D03*
Y29272D02*
D03*
Y34772D02*
D03*
D24*
Y20228D02*
D03*
Y25728D02*
D03*
Y31228D02*
D03*
D25*
X16953Y23000D02*
D03*
X21500Y24500D02*
D03*
Y25500D02*
D03*
X39000Y35500D02*
D03*
X40000D02*
D03*
X47500D02*
D03*
X46500D02*
D03*
X44000D02*
D03*
X45000D02*
D03*
X41500D02*
D03*
X42500D02*
D03*
X21500Y20000D02*
D03*
Y31000D02*
D03*
X16953Y28500D02*
D03*
Y34000D02*
D03*
X21500Y19000D02*
D03*
Y30000D02*
D03*
D26*
X11047Y23000D02*
D03*
Y28500D02*
D03*
Y34000D02*
D03*
D27*
X47000Y31106D02*
D03*
X28000Y30106D02*
D03*
X33000Y31606D02*
D03*
D28*
X47000Y31894D02*
D03*
X28000Y30894D02*
D03*
X33000Y32394D02*
D03*
D29*
X49000Y17500D02*
D03*
D30*
X25000Y32500D02*
D03*
X22000D02*
D03*
X25000Y33500D02*
D03*
Y27000D02*
D03*
X22000D02*
D03*
X25000Y28000D02*
D03*
Y21500D02*
D03*
X22000D02*
D03*
X25000Y22500D02*
D03*
D31*
X22000Y33500D02*
D03*
Y28000D02*
D03*
Y22500D02*
D03*
D32*
X18500Y30622D02*
D03*
Y34378D02*
D03*
Y25122D02*
D03*
Y28878D02*
D03*
Y19622D02*
D03*
Y23378D02*
D03*
X37500Y20622D02*
D03*
X30000Y30122D02*
D03*
Y33878D02*
D03*
X37500Y24378D02*
D03*
D33*
X9500Y23000D02*
D03*
Y28500D02*
D03*
Y34000D02*
D03*
Y17500D02*
D03*
X49000Y31000D02*
D03*
D34*
X30000Y35000D02*
D03*
D35*
X9500Y27500D02*
D03*
Y33000D02*
D03*
Y16500D02*
D03*
Y22000D02*
D03*
X49000Y32000D02*
D03*
X31000Y35000D02*
D03*
D36*
X16000Y19811D02*
D03*
Y25311D02*
D03*
Y30811D02*
D03*
D37*
X47000Y27500D02*
D03*
D55*
X35203Y31598D02*
D03*
D56*
X37797Y32500D02*
D03*
D57*
X35203D02*
D03*
Y33402D02*
D03*
D58*
X36374Y22061D02*
D03*
X35626D02*
D03*
X36374Y22939D02*
D03*
X36000D02*
D03*
D59*
X35626D02*
D03*
M02*
