M48
;Layer_Color=9474304
;FILE_FORMAT=2:4
INCH,LZ
;TYPE=PLATED
T1F00S00C0.0280
T2F00S00C0.0315
T3F00S00C0.0335
T4F00S00C0.0354
T5F00S00C0.0394
T6F00S00C0.0402
T7F00S00C0.0413
T8F00S00C0.0433
T9F00S00C0.1181
%
T01
X047Y0275
T02
X028Y030106
Y030894
X033Y031606
Y032394
X047Y031894
Y031106
T03
X0403Y0161
X0417
X0457
X0363
X0345Y0205
X033
X0315
X0265Y020228
X02Y0195
Y0235
Y025
Y029
Y0305
Y0345
X0265Y034772
Y031228
Y029272
Y025728
Y023772
X0315Y0245
X033
X0345
X033Y035
X037
X04Y034
X0425
X045
Y03
X0425
X04
T04
X016Y019811
Y021189
Y025311
Y026689
Y030811
Y032189
X022Y0325
Y0335
X025
Y0325
Y028
Y027
X022
Y028
Y0225
Y0215
X025
Y0225
T05
X0215Y019
Y02
X013Y0205
X011
Y0215
X013
Y026
Y027
X011
Y026
Y0315
Y0325
X013
Y0315
X0215Y031
Y03
Y0255
Y0245
X039Y0355
X04
X0415
X0425
X044
X045
X0465
X0475
T06
X0373Y0174
X0383
X0393
X0403
X0413
X0423
X0433
X0443
X0453
X049Y0175
Y0185
Y0195
Y0205
X0363Y0174
X0353
X0343
X0333
X0323
X0313
X0303
X0095Y0175
Y0165
Y022
Y023
Y0275
Y0285
Y033
Y034
X03Y035
X031
X0313Y0275
X0303
X0323
X0333
X0343
X0353
X0363
X0373
X0383
X0393
X0403
X0413
X0423
X0433
X0443
X0453
X049
Y0285
Y0265
Y0255
Y0245
Y0235
Y0225
Y0215
Y031
Y032
T07
X0375Y020622
X0185Y019622
Y023378
Y025122
Y028878
Y030622
Y034378
X03Y033878
Y030122
X0375Y024378
T08
X011047Y023
Y0285
Y034
X016953
Y0285
Y023
T09
X05025Y0157
X013
Y0363
X05025
M30
